<mxfile host="app.diagrams.net" modified="2021-07-07T15:12:35.100Z" agent="5.0 (Windows NT 10.0; Win64; x64) AppleWebKit/537.36 (KHTML, like Gecko) Chrome/91.0.4472.124 Safari/537.36" etag="xIfluXBNy4luwU4kT044" version="14.8.4" type="github">
  <diagram id="vRx7yQ27XKKLSLeZoQCa" name="Page-1">
    <mxGraphModel dx="2267" dy="1337" grid="1" gridSize="10" guides="1" tooltips="1" connect="1" arrows="1" fold="1" page="1" pageScale="1" pageWidth="827" pageHeight="1169" math="0" shadow="0">
      <root>
        <mxCell id="0" />
        <mxCell id="1" parent="0" />
        <mxCell id="K1axlJIXEC6P-MiM49ua-7" value="" style="strokeWidth=1;shadow=0;dashed=0;align=center;html=1;shape=mxgraph.mockup.containers.browserWindow;rSize=0;strokeColor=#666666;strokeColor2=#008cff;strokeColor3=#c4c4c4;mainText=,;recursiveResize=0;" vertex="1" parent="1">
          <mxGeometry x="40" y="1720" width="1080" height="760" as="geometry" />
        </mxCell>
        <mxCell id="K1axlJIXEC6P-MiM49ua-8" value="&lt;div style=&quot;font-size: 14px&quot;&gt;12:00&lt;/div&gt;&lt;div style=&quot;font-size: 14px&quot;&gt;&lt;font style=&quot;font-size: 14px&quot;&gt;2D&lt;br&gt;&lt;/font&gt;&lt;/div&gt;" style="rounded=1;html=1;shadow=0;dashed=0;whiteSpace=wrap;fontSize=10;fillColor=#cce5ff;align=center;strokeColor=#36393d;" vertex="1" parent="K1axlJIXEC6P-MiM49ua-7">
          <mxGeometry x="472.5" y="420" width="152.5" height="60" as="geometry" />
        </mxCell>
        <mxCell id="K1axlJIXEC6P-MiM49ua-9" value="&lt;div style=&quot;font-size: 14px&quot;&gt;13:00&lt;/div&gt;&lt;div style=&quot;font-size: 14px&quot;&gt;&lt;font style=&quot;font-size: 14px&quot;&gt;3D&lt;br&gt;&lt;/font&gt;&lt;/div&gt;" style="rounded=1;html=1;shadow=0;dashed=0;whiteSpace=wrap;fontSize=10;fillColor=#cce5ff;align=center;strokeColor=#36393d;" vertex="1" parent="K1axlJIXEC6P-MiM49ua-7">
          <mxGeometry x="642.5" y="420" width="152.5" height="60" as="geometry" />
        </mxCell>
        <mxCell id="K1axlJIXEC6P-MiM49ua-10" value="&lt;div style=&quot;font-size: 14px&quot;&gt;14:30&lt;/div&gt;&lt;div style=&quot;font-size: 14px&quot;&gt;&lt;font style=&quot;font-size: 14px&quot;&gt;2D&lt;br&gt;&lt;/font&gt;&lt;/div&gt;" style="rounded=1;html=1;shadow=0;dashed=0;whiteSpace=wrap;fontSize=10;fillColor=#cce5ff;align=center;strokeColor=#36393d;" vertex="1" parent="K1axlJIXEC6P-MiM49ua-7">
          <mxGeometry x="815" y="420" width="152.5" height="60" as="geometry" />
        </mxCell>
        <mxCell id="K1axlJIXEC6P-MiM49ua-11" value="&lt;div style=&quot;font-size: 14px&quot;&gt;14:30&lt;/div&gt;&lt;div style=&quot;font-size: 14px&quot;&gt;&lt;font style=&quot;font-size: 14px&quot;&gt;3D&lt;/font&gt;&lt;/div&gt;&lt;div style=&quot;font-size: 14px&quot;&gt;&lt;font style=&quot;font-size: 14px&quot;&gt;50 FPS&lt;br&gt;&lt;/font&gt;&lt;/div&gt;" style="rounded=1;html=1;shadow=0;dashed=0;whiteSpace=wrap;fontSize=10;fillColor=#cce5ff;align=center;strokeColor=#36393d;" vertex="1" parent="K1axlJIXEC6P-MiM49ua-7">
          <mxGeometry x="472.5" y="500" width="152.5" height="60" as="geometry" />
        </mxCell>
        <mxCell id="K1axlJIXEC6P-MiM49ua-12" value="&lt;div style=&quot;font-size: 14px&quot;&gt;17:00&lt;/div&gt;&lt;div style=&quot;font-size: 14px&quot;&gt;&lt;font style=&quot;font-size: 14px&quot;&gt;2D&lt;br&gt;&lt;/font&gt;&lt;/div&gt;" style="rounded=1;html=1;shadow=0;dashed=0;whiteSpace=wrap;fontSize=10;fillColor=#cce5ff;align=center;strokeColor=#36393d;" vertex="1" parent="K1axlJIXEC6P-MiM49ua-7">
          <mxGeometry x="642.5" y="500" width="152.5" height="60" as="geometry" />
        </mxCell>
        <mxCell id="K1axlJIXEC6P-MiM49ua-13" value="&lt;div style=&quot;font-size: 14px&quot;&gt;19:00&lt;/div&gt;&lt;div style=&quot;font-size: 14px&quot;&gt;&lt;font style=&quot;font-size: 14px&quot;&gt;2D&lt;br&gt;&lt;/font&gt;&lt;/div&gt;" style="rounded=1;html=1;shadow=0;dashed=0;whiteSpace=wrap;fontSize=10;fillColor=#cce5ff;align=center;strokeColor=#36393d;" vertex="1" parent="K1axlJIXEC6P-MiM49ua-7">
          <mxGeometry x="472.5" y="580" width="152.5" height="60" as="geometry" />
        </mxCell>
        <mxCell id="K1axlJIXEC6P-MiM49ua-14" value="mycinema" style="strokeWidth=1;shadow=0;dashed=0;align=center;html=1;shape=mxgraph.mockup.containers.anchor;fontSize=17;fontColor=#666666;align=left;" vertex="1" parent="K1axlJIXEC6P-MiM49ua-7">
          <mxGeometry x="60" y="12" width="110" height="26" as="geometry" />
        </mxCell>
        <mxCell id="K1axlJIXEC6P-MiM49ua-15" value="https://www.mycinema.de" style="strokeWidth=1;shadow=0;dashed=0;align=center;html=1;shape=mxgraph.mockup.containers.anchor;rSize=0;fontSize=17;fontColor=#666666;align=left;" vertex="1" parent="K1axlJIXEC6P-MiM49ua-7">
          <mxGeometry x="130" y="60" width="250" height="26" as="geometry" />
        </mxCell>
        <mxCell id="K1axlJIXEC6P-MiM49ua-16" value="" style="shape=image;verticalLabelPosition=bottom;labelBackgroundColor=#ffffff;verticalAlign=top;imageAspect=0;image=https://images-na.ssl-images-amazon.com/images/I/51TXaigVBHL._AC_.jpg;" vertex="1" parent="K1axlJIXEC6P-MiM49ua-7">
          <mxGeometry x="112.5" y="200" width="326.12" height="470" as="geometry" />
        </mxCell>
        <mxCell id="K1axlJIXEC6P-MiM49ua-17" value="" style="verticalLabelPosition=bottom;shadow=0;dashed=0;align=center;html=1;verticalAlign=top;strokeWidth=1;shape=mxgraph.mockup.navigation.scrollBar;strokeColor=#999999;barPos=100;fillColor2=#99ddff;strokeColor2=none;direction=north;" vertex="1" parent="K1axlJIXEC6P-MiM49ua-7">
          <mxGeometry x="1060" y="230" width="20" height="470" as="geometry" />
        </mxCell>
        <mxCell id="K1axlJIXEC6P-MiM49ua-18" value="Impressum/Kontakt" style="rounded=0;whiteSpace=wrap;html=1;" vertex="1" parent="K1axlJIXEC6P-MiM49ua-7">
          <mxGeometry y="700" width="1080" height="60" as="geometry" />
        </mxCell>
        <mxCell id="K1axlJIXEC6P-MiM49ua-19" value="&lt;div&gt;&lt;font size=&quot;1&quot;&gt;&lt;b&gt;&lt;font style=&quot;font-size: 26px&quot;&gt;Shrek&lt;/font&gt;&lt;/b&gt;&lt;/font&gt;&lt;/div&gt;&lt;div style=&quot;font-size: 14px&quot;&gt;90 min&lt;span style=&quot;white-space: pre&quot;&gt;	&lt;/span&gt;FSK 6&lt;/div&gt;&lt;div&gt;&lt;br&gt;&lt;/div&gt;&lt;div&gt;Das ist ein sehr toller Film und so. Die ganze Familie hat Spaß.&lt;br&gt;&lt;/div&gt;" style="text;html=1;strokeColor=none;fillColor=none;align=left;verticalAlign=top;whiteSpace=wrap;rounded=0;horizontal=1;" vertex="1" parent="K1axlJIXEC6P-MiM49ua-7">
          <mxGeometry x="480" y="200" width="482.5" height="90" as="geometry" />
        </mxCell>
        <mxCell id="K1axlJIXEC6P-MiM49ua-20" value="" style="rounded=0;whiteSpace=wrap;html=1;fillColor=none;" vertex="1" parent="K1axlJIXEC6P-MiM49ua-7">
          <mxGeometry y="110" width="1080" height="60" as="geometry" />
        </mxCell>
        <mxCell id="K1axlJIXEC6P-MiM49ua-21" value="" style="verticalLabelPosition=bottom;shadow=0;dashed=0;align=center;html=1;verticalAlign=top;strokeWidth=1;shape=mxgraph.mockup.containers.userMale;strokeColor=#666666;strokeColor2=#008cff;" vertex="1" parent="K1axlJIXEC6P-MiM49ua-7">
          <mxGeometry x="899.74" y="119.87" width="40.26" height="40.26" as="geometry" />
        </mxCell>
        <mxCell id="K1axlJIXEC6P-MiM49ua-22" value="Programm" style="rounded=1;html=1;shadow=0;dashed=0;whiteSpace=wrap;fontSize=10;fillColor=#cce5ff;align=center;strokeColor=#36393d;" vertex="1" parent="K1axlJIXEC6P-MiM49ua-7">
          <mxGeometry x="297.5" y="120" width="110" height="40" as="geometry" />
        </mxCell>
        <mxCell id="K1axlJIXEC6P-MiM49ua-23" value="Events" style="rounded=1;html=1;shadow=0;dashed=0;whiteSpace=wrap;fontSize=10;fillColor=#cce5ff;align=center;strokeColor=#36393d;" vertex="1" parent="K1axlJIXEC6P-MiM49ua-7">
          <mxGeometry x="421" y="120" width="110" height="40" as="geometry" />
        </mxCell>
        <mxCell id="K1axlJIXEC6P-MiM49ua-24" value="Preisübersicht" style="rounded=1;html=1;shadow=0;dashed=0;whiteSpace=wrap;fontSize=10;fillColor=#cce5ff;align=center;strokeColor=#36393d;" vertex="1" parent="K1axlJIXEC6P-MiM49ua-7">
          <mxGeometry x="547.5" y="120.13000000000011" width="110" height="40" as="geometry" />
        </mxCell>
        <mxCell id="K1axlJIXEC6P-MiM49ua-25" value="News" style="rounded=1;html=1;shadow=0;dashed=0;whiteSpace=wrap;fontSize=10;fillColor=#cce5ff;align=center;strokeColor=#36393d;" vertex="1" parent="K1axlJIXEC6P-MiM49ua-7">
          <mxGeometry x="672.5" y="120.13000000000011" width="110" height="40" as="geometry" />
        </mxCell>
        <mxCell id="K1axlJIXEC6P-MiM49ua-26" value="" style="html=1;verticalLabelPosition=bottom;align=center;labelBackgroundColor=#ffffff;verticalAlign=top;strokeWidth=2;strokeColor=#0080F0;shadow=0;dashed=0;shape=mxgraph.ios7.icons.home;fillColor=none;" vertex="1" parent="K1axlJIXEC6P-MiM49ua-7">
          <mxGeometry x="140" y="120" width="40" height="40" as="geometry" />
        </mxCell>
        <mxCell id="K1axlJIXEC6P-MiM49ua-27" value="&lt;div&gt;&lt;font size=&quot;1&quot;&gt;&lt;b style=&quot;font-size: 15px&quot;&gt;Besetzung&lt;/b&gt;&lt;/font&gt;&lt;/div&gt;&lt;div&gt;&lt;b&gt;&lt;br&gt;&lt;/b&gt;&lt;/div&gt;&lt;div&gt;Sven Schauspieler&lt;br&gt;&lt;/div&gt;&lt;div&gt;Alice Actress&lt;br&gt;&lt;/div&gt;&lt;div&gt;Monika Model&lt;br&gt;&lt;b&gt;&lt;/b&gt;&lt;/div&gt;" style="text;html=1;strokeColor=none;fillColor=none;align=center;verticalAlign=top;whiteSpace=wrap;rounded=0;" vertex="1" parent="K1axlJIXEC6P-MiM49ua-7">
          <mxGeometry x="837.5" y="200" width="130" height="90" as="geometry" />
        </mxCell>
        <mxCell id="K1axlJIXEC6P-MiM49ua-28" value="&lt;div style=&quot;font-size: 20px&quot; align=&quot;left&quot;&gt;&lt;font style=&quot;font-size: 20px&quot;&gt;&lt;b&gt;Vorstellungen:&lt;/b&gt;&lt;/font&gt;&lt;/div&gt;" style="text;html=1;strokeColor=none;fillColor=none;align=left;verticalAlign=middle;whiteSpace=wrap;rounded=0;" vertex="1" parent="K1axlJIXEC6P-MiM49ua-7">
          <mxGeometry x="472.5" y="360" width="82.5" height="20" as="geometry" />
        </mxCell>
        <mxCell id="K1axlJIXEC6P-MiM49ua-29" value="Heute 07.07.2021" style="text;html=1;strokeColor=none;fillColor=none;align=left;verticalAlign=middle;whiteSpace=wrap;rounded=0;" vertex="1" parent="K1axlJIXEC6P-MiM49ua-7">
          <mxGeometry x="472.5" y="390" width="100" height="20" as="geometry" />
        </mxCell>
        <mxCell id="K1axlJIXEC6P-MiM49ua-31" value="&lt;div style=&quot;font-size: 14px&quot;&gt;21:00&lt;/div&gt;&lt;div style=&quot;font-size: 14px&quot;&gt;&lt;font style=&quot;font-size: 14px&quot;&gt;3D&lt;/font&gt;&lt;/div&gt;&lt;div style=&quot;font-size: 14px&quot;&gt;&lt;font style=&quot;font-size: 14px&quot;&gt;Originalvertonung&lt;br&gt;&lt;/font&gt;&lt;/div&gt;" style="rounded=1;html=1;shadow=0;dashed=0;whiteSpace=wrap;fontSize=10;fillColor=#cce5ff;align=center;strokeColor=#36393d;" vertex="1" parent="K1axlJIXEC6P-MiM49ua-7">
          <mxGeometry x="642.5" y="580" width="152.5" height="60" as="geometry" />
        </mxCell>
        <mxCell id="K1axlJIXEC6P-MiM49ua-52" value="" style="group" vertex="1" connectable="0" parent="K1axlJIXEC6P-MiM49ua-7">
          <mxGeometry x="243.75" y="240.62" width="557.5" height="377.38" as="geometry" />
        </mxCell>
        <mxCell id="K1axlJIXEC6P-MiM49ua-46" value="Sitzplan" style="strokeWidth=1;shadow=0;dashed=0;align=center;html=1;shape=mxgraph.mockup.containers.window;align=left;verticalAlign=top;spacingLeft=8;strokeColor2=#008cff;strokeColor3=#c4c4c4;fontColor=#666666;mainText=;fontSize=17;labelBackgroundColor=none;fillColor=none;" vertex="1" parent="K1axlJIXEC6P-MiM49ua-52">
          <mxGeometry width="557.5" height="377.38" as="geometry" />
        </mxCell>
        <mxCell id="K1axlJIXEC6P-MiM49ua-47" value="" style="shape=image;verticalLabelPosition=bottom;labelBackgroundColor=#ffffff;verticalAlign=top;aspect=fixed;imageAspect=0;image=data:image/png,iVBORw0KGgoAAAANSUhEUgAAAeAAAACtCAYAAABoZayTAAAgAElEQVR4nO2dzWscSZrGG/0BO33ScX0X7PbJUIf1QeddMHXoywjmKPq8ixFj5ugVe1thRA8CX6qNh0KwxqZaDGrUWEbCA9JB5WYoS9jYZcrGRm5p5Cx9ukqKPWS/lVFRERmfUmZWPQUPtFryrzIzIt4n443IfL+KoohBEARBEHS1+irrA4AgCIKgURQMGIIgCIIyEAwYgiAIgjIQDBiCIAiCMhAMGIIgCIIyEAwYgiAIgjIQDBiCIAiCMhAMGIIgCIIyEAy4YFp/c8i+/v6Cjc0xZ31z/xw88MDLgAdBvGDABdPtp2dewYC0tHMEHnjgXTEPgnjBgAumvAcY8MADT82DIF4w4IIp7wEGPPDAU/MgiBcMuGASA0Kpyth8nbGtXcYevkr+/3ydsb0TxhhjbGc//juTAKPilWuMVRqMtdqMzayZBywVb3rF7fh46RguvFY75u2dxD/78GQfFdM04E+vxOfKWBgDET8hDKlcY+y4I+8nru0boj1Ct6+qb6fxIIgXDLhgEgNCpcHY+vtYFAQoAFKA2dqNf28SYGS8sbnkZ1sDVvH2Thib3UiOb7lpHwB39uMAODYXs8VztOXxgXR2Iz7XEIZEbbJ34sejdq009N9nakg7+3qW7fnu7Icx4FY7ad/5evqxmvD2ThJepeHfHqq+ncaDIF49A377qc3ubp6ym4+67NaTs8wPDJJLFRAevuo3YAo0ZCamBizjicHVxoBVvONO8t8za4PB1XSGyf/MM10CKh9IZzf8Az6v5WZ/m7jwlpv6QG/Dk1133/Odr8fHqeontsdH/11pxDdIPjz+2pWq/gbMc2HAUBRFrP7ukN15dsauPzhnj7ePtX/fM+A7z87Y1FKHTS11YMA5lq1hlqrxTEJMt2VpwOVaf+B3NWB+hlRp+KdQaZZKn3ItTIDWBXtT3s5+kn4+7vgb+sxazCH58qivlaphDJj6DZ1vqPYYm4tvttIyCTBgyEXkn9YGTLr15AwGnGPZGubWrjywZmnAYurT1YD5NcLlZtgZ8Hw9XAraJkDrDJhS9dMr/udbriVtSTzVOrppCp94oQyYv4ahMhKUOvZtD5f2hUZDk4tdGPAwysYw09amhiEFzStEylg0oFCbkvZO0jeImfLEa59mcqY3MPxx+fCmV+Sbzlz7H/UL/ucQ7aFbS3ZpXxgwJAoGPKQyNTjaHOIaYC7bgMVNWOJ32QTAmbV4tko814AqbsLynWFSwNfNtkx5D1/Fx1iqhpkB8xvXiKdK89reEIWYAfN9JERGghi6myHb84UBQ6JgwEMqU4OTfWwCzGUbcIjHkOh4+EDtE1D5R3xCPKZCJpK2dmnLW24mx+d7w1GqxoYeak3ZpJ/Ytgf1Edk+BlsetS3/8ckgqPp2Gg8aDcGAh1R5f9EAeOCBp+ZBoyEY8JAq7wEGPPDAU/Og0ZCzAUP5Vt4DDHjggafmQRAvGHDBlPcAAx544Kl5EMQLBlwwhQoI628OwQMPvCvmQRAvGHDB1Pq1zaZ+/MJuVLvOuv30DDzwwMuAB0G8YMAQBEEQlIFgwBAEQRCUgQpvwOtvDtnX3194rc98c/8cPPDAA+/SeRDEq/AGnPddj+CBBx542AUNyQQDLtgABg888IrLgyBeMOCCDWDwwAOvuDwI4jV0Blyqxi+VFyvszKz1v4TdtPydikea3ZCXSbPlzdfjF+LbFidI47kUO1DxyrW4jmqrbVeMQcULUYxBx3DhtdrhijHIPiqmacDnC0aEMJC0gh0uPOorx52wxRhCtEfo9tXFBhkPgngNnQFTsW2xFm6lkT5IVANOxaMBSAHCh1eqxgGLAoLsu2x4FACJt7U7WBLP9nzpZ1sDVvHEcoRUaN4mAO7sJxV8+NJ6rgFVLEfoW/6OV7kWn7MPj9q10tB/n031J5Pjtznfnf0wBtxqJ+2rq+Nrwts7SXiVhn97pMUGFQ+CePUMePX1Ebv+4JyNLzA2Ublgq6+L0WFUA0QsEaYrGaYbcKqC97YzYBmP6rvS77Z2B4OsDa9c6y8tN7thbsC66xWqHCFfy3ZmzTwjwUu87r71cflAOrvhH/B5LTf9y/0tN/WB3oYnu+6+5ztfj48zRDlC/t9XGvG48OHx145unkO0L8oRQqS7m6dsonLBxhcYm1zssref2ql/3zPgicoFu7t5yqIoYneenbGJykXmJ2MiGwNOS2fZGsjMWhIQfA2YRKlF2czL1TBLVXkt1SwNuFzrD/yuBszPkCoN/xQqzVLpk1bH1yZA64K9KW9nP+kjIer3zqzFHJIvj/paqRrGgKnf0PmGao+xufhmKy2TAAOGbFV/d8iu3UsmrzcfddnUUif13/QMmC9B+PZTe+gMeHolMaH5+qDJ2c5YKdCMzYUzYGLL1pRceVu78sCapQGLqU9XA+bXCJebYWfAsj5yFQFaZ8CUqp9e8T/fci1pS+Kp1tFNU/jEC2XA/DUMlZGg1LFve7i0LzS8qr877E1ioyhiP/xyYm7AvKaWOuzOs2K8v9Rmxsr/XjRNGwOh2Zb44b/DJwXtYkiqFLkqMAxDCppXiJSxaEChNiXtnaRvEDPlidc+zeRMb2D44/LhTa/Ix4Rr/6N+wf8coj10a8ku7QsDhkS9/dRm1x+ca5dyBwz4zrMzrWvnSaYBn9+wQzuEbQZc2iDznQHT5hpKsa2/t9+UJB4fbQ5xDTCXbcDiJizbGb8YqFvthOcaUMVNWL4zTOprutmWKe/hq/gY6YbN9/j4jWvEU6V5bW+IQsyA+T4SIiNBDN3NkO35woAhUTcfdftmwyr1GfDdzVM2udjN/OBtZJOCTnsEIUsDpuBAjyFRkPXhyT4hzjeUAYd4DImOhw/UPgGVf8QnxGMqY3MxJ23t0pa33EyOz/eGg5Y7Qq0pm/QT2/agPiLbx2DLo7ZVZa1czxcGDPGaWur0LemmqWfAdzdP2fUH59pdW3lT3h+8Bw888MCDAY+GppY6VhnkngFPLnbZ+ALr0+Pt48xPSKe8DzjwwAMPPBjwaEj00PEFlvr3Q/cijrwNOPDAAw88GDAkEwy4YAMYPPDAKy4PgnjBgH/T+ptD8MADD7xL5UEQr8IbcOvXNpv68Qu7Ue066/bTM/DAAw+8S+dBEK/CGzAEQRAEFVEwYAiCIAjKQIU34PU3h+zr7y+81me+uX8OHnhOPKVW/8I+z/4H+/ztV+zzt1+xgz/8jn2em2Lt13936+uOvLxfv1HjQRCvwhtw3nc9gjfcPJk+/+/ve0Yp6uAPv2PRX/9s1cd9eHm/fqPGgyBeMOCCDWDw8sUb0P0/Ks2SV/T3dbM+7snL+/UbNR4E8YIBF2wAg5cvHq/2678bmeXnb79in/90Q9u3Q/Dyfv1GjQdBvIbOgEvV+KXyYoWdmbX+l7Cblr9T8UizG3bFGFQ8vhiDTXGCNJ5LsQMVr1yLyzC22nbFGFS8EMUYdAwXXlrBDm1A/b//MTfMb79i7Y+t9P4dgKczkLSCHa6GRNW9QhZjCFEcw6V903i62KDtL9DIa+gMmIpti7VwK430QaIacCoeDUAKED68UjUOWBQQZN9lw6MASLyt3cGSeLbnSz/bGrCKJ5YjtC2/ODbXX2KSL63nGlDFcoQm5e/6ZJgu7qWNN5bS+3cAns6QTGrjml4/vl1CGHCr3V9C1Lfe895Jwqs0BkuS2vLSYoNRf4FGXj0DXn19xCYqF2x8gbGJyoW2kHBepBogYokwXckw3YBTFby3nQHLeFTflTeCSsOdV671l5ab3TA3YN31ClWOkK9lO7NmnpHgJV533/q4fCCd3TAL+H0qmAHLrrvP9Rubi/vdcjNMOUL+31ca8bjw4fH9j26efc83baxo+ws0dLq7ecqu3Yt9dHKxq60u2DPg6w/OewWEi1QX2MaA09JZtgYys5YEBF8DJlG9UtnMy9UwS1V5LdUsDbhc6w/8rgbMz5AqDf8UarmW9BHG0uv4SgPqX/8cNgUdgKczuONOIt96wNTXStUwBkz9huoVm7SH6Zrt+vvBm1xXHgwYiqKIvf3UZtfuJZNXk7rAPQPmSw/eeXbGbj4aLgOeXklMaL4+aHK2M1YKNGNz4QyY2LI1JVfe1q48sGZpwGLq09WA+TXC5WbYGbCsj+gCavtjix384Z/MDPN/f6/t2yF4uhsOasvplfj6qdbRTVP4xAtlwHz/8U1Bkyh1nPY3MGDIVm8/tfsyxzcfddmdZ4YGHEURu/XkjI0vMHbt3gWrvyvGy8NtZqz870XTtDEQmm2JH/47fFLQLoakSpGrAsMwpKB5maaM03iiAZnMqAdkMGs9+MM/6We/gXi6Gxj+fNNMU3f9plfkY8K1/5mMWZf+oltLdul/MGCI1+Ril40vMHb9gf4FLNJNWLeenA1dCprfsEM7hH0MRBcYbFOyfIpt/b39piTx+GhziGuAuWwDFjdh2c74xUDdaic814AqbsIymVFL9dc/q2eu//kv5s8AB+Dp1kSpj9AMWJXmtb0hCjED5vuIaUYijUeMtN3yLucLA4ZEvf3UZjcfdd1S0FEUsfEFlvlJmMgmBZ32CEKWBkzBgR5D2tq1fyxH5Mk+Ic43lAGHeAyJjocP1D4BlVLjqj5iE1Dbr/8eb6L607/F+u9/t34DVgiebs12azdZY/VdAzbpJ7btQX1Eto/Blkdtq8pauZ4vDBiKosEU9OPtY+1EtmfAE5UL9sMvJyyK4k1YJtPnPCjvD96DN9w8qTaW1O9o3liynwF78PJ+/UaNBw2v6u8O+5Zvp5Y67LufvqT+G+ljSNcfnBf+MaS8DDjwhpvXp9W/xEUSKD38X//KPs9Nsc/3/8g+z/4HO/jun5Pf/emGvjBDAF7er9+o8aDhFv8Y0s1HFo8hFVV5H3DgDTevJ8tnduPNU79Tz14D8fJ+/UaNB0G8YMAFG8Dg5YsXRRGLNpaszZKf1Q7064C8vF+/UeNBEC8Y8G9af3MIHnjWvCiK2Of//nd3w/z2q4HNVCF5eb9+o8aDIF6FN+DWr2029eMXdqPaddbtp2fggefEa39sJTuTHRXd/+Ol8fJ+/UaNB0G8Cm/AEARBEFREwYAhCIIgKAMV3oDX3xyyr7+/8Fqf+eb+OXjggQfepfMgiFfhDTjvux7BAw888LALGpIJBlywAQweeOAVlwdBvGDABRvA4IEHXnF5EMRr6Ay4VI1fKi9W2JlZ638Ju2n5OxWPNLthV4xBxeOLMdgUJ0jjuRQ7UPHKtbgMY6ttV4xBxQtRjEHHcOGlFeyw5ck+KqZpwOcLRoQwkLSCHS486ivHnbDFGEK0R+j21cUGGQ+CeA2dAVOxbbEWbqWRPkhUA07FowFIAcKHV6rGAYsCguy7bHgUAIm3tTtYmtD2fOlnWwNW8cRyhLblF8fm+ktM8qX1XAOqWI7Qt/wdr3JtsASmLY/atdLQf59N9SeT47c53539MAbcaveXEPWt97x3kvAqDf/2SIsNKh4E8RowYKroIJYnzKtUA0QsEaYrGaYbcKqC97YzYBmvVO2/G9/aHQyyNrxyrb+03OyGuQHrrleocoR8rd2ZNfOMBC/xupvU703j8YF0dsM/4PNabvqX+1tu6gO9DU923X3Pd74eH2eIcoT8v6804nHhw+OvHd08h2hflCOERP3wy4lRSd8BA55c7A6tAaels2wNZGYtCQi+Bkyi1KJs5uVqmKWqvJZqlgZcrvUHflcD5mdIlYZ/CpVmqfRRFae3DdC6YG/K29lP+kiI+r0zazGH5MujvlaqhjFg6jd0vqHaY2wuvtlKyyTAgCFXvf3U7lUW1P1tnwHf3Txl3/30hU0udofOgKdXEhOarw+anO2MlQLN2Fw4Aya2bE3Jlbe1Kw+sWRqwmPp0NWB+jXC5GXYGLOsjVxGgdQZMqfrpFf/zLdeStiSeah3dNIVPvFAGzF/DUBkJSh37todL+0LDr6mljv0M+O2nNrv+4Jy9/dQeSgMWg4FomjYGQrMt8cN/h08K2sWQVClyVWAYhhQ0rxApY9GAQm1K2jtJ3yBmyhOvfZrJmd7A8Mflw5tekY8J1/5H/YL/OUR76NaSXdoXBgyRHm8fs5uPuiyKIjsDvvkoMd1hNGB+ww7tELYZcGmDzHcGTJtrKMW2/t5+U5J4fLQ5xDXAXLYBi5uwbGf8YqButROea0AVN2H5zjCpr+lmW6a8h6/iY6QbNt/j4zeuEU+V5rW9IQoxA+b7SIiMBDF0N0O25wsDhqKofxIbRRYGvPr6iI0vsAHdepL/Kh42Kei0RxCyNGAKDvQYEgVZH57sE+J8QxlwiMeQ6Hj4QO0TUPlHfEI8pjI2F3PS1i5tecvN5Ph8bzhouSPUmrJJP7FtD+ojsn0MtjxqW1XWyvV8YcBQFEXszrMzqY+mTWaljyENwwzYVkV5kB888MArLg8aHTntgo4iGDB44IEH3mXwoNGRswEXSXkfcOCBBx54MGBIJhhwwQYweOCBV1weBPGCAf+m9TeH4IEHHniXyoMgXoU34NavbTb14xd2o9p11u2nZ+CBBx54l86DIF6FN2AIgiAIKqJgwBAEQRCUgQpvwOtvDtnX3194rc98c/8cPPDAA+/SeRDEq/AGnPddj+CBBx542AUNyQQDLtgABg888IrLgyBeMOCCDWDwwAOvuDwI4jV0Blyqxi+VFyvszKz1v4TdtPydikea3bArxqDi8cUYbIoTpPFcih2oeOVaXIax1bYrxqDihSjGoGO48NIKdtjyZB8V0zTg8wUjQhhIWsEOFx71leNO2GIMIdojdPvqYoOMB0G8hs6Aqdi2WAu30kgfJKoBp+LRAKQA4cMrVeOARQFB9l02PAqAxNvaHSyJZ3u+9LOtAat4YjlC2/KLY3P9JSb50nquAVUsR+hb/o5XuTZYAtOWR+1aaei/z9SQTGrj2p7vzn4YA261+0uI+tZ73jtJeJWGf3ukxQYVD4J49RmwWEYp64MzkWqAiCXCdCXDdANOVfDedgYs41F9V/rd1u5gkLXhlWv9peVmN8wNWHe9QpUj5GvZzqyZZyR4idfdtz4uH0hnN/wDPq/lpn+5v+WmPtDb8GTX3fd85+vxcYYoR8j/+0ojHhc+PP7a0c1ziPZFOUKI9Hj7uM9DJxe7qX/fM+DV10faP86jbAw4LZ1layAza0lA8DVgEqUWZTMvV8MsVeW1VLM04HKtP/C7GjA/Q6o0/FOoNEulT1odX5sArQv2pryd/aSPhKjfO7MWc0i+POprpWoYA6Z+Q+cbqj3G5uKbrbRMAgwYctGdZ2fs1hPzN5/1DPjx9vFQG/D0SmJC8/VBk7OdsVKgGZsLZ8DElq0pufK2duWBNUsDFlOfrgbMrxEuN8POgGV95CoCtM6AKVU/veJ/vuVa0pbEU62jm6bwiRfKgPlrGCojQalj3/ZwaV9ouHXriYcBX7t30dPdzdPMT8ZENjNW/veiadoYCM22xA//HT4paBdDUqXIVYFhGFLQvEKkjEUDCrUpae8kfYOYKU+89mkmZ3oDwx+XD296RT4mXPsf9Qv+5xDtoVtLdmlfGDBEuvXkjE1ULtj4AmMTlQu2+jq93XsGXH93yB5vH7MoitPR1+5dsLef2pmfkE6mAZ/fsEM7hG0GXNog850B0+YaSrGtv7fflCQeH20OcQ0wl23A4iYs2xm/GKhb7YTnGlDFTVi+M0zqa7rZlinv4av4GOmGzff4+I1rxFOleW1viELMgPk+EiIjQQzdzZDt+cKAIdLq66Oe6d7dPGXXH6S/Ba1vDZg33MnFbs+Q8yybFHTaIwhZGjAFB3oMiYKsD0/2CXG+oQw4xGNIdDx8oPYJqPwjPiEeUxmbizlpa5e2vOVmcny+Nxy03BFqTdmkn9i2B/UR2T4GWx61rSpr5Xq+MGCIJHqmbjNzz4BvPTljU0sdFkXJDLj+Lv81LPP+4D144IEHHgx4NDS52O0t397dPGUTlYvUv+8Z8NtPbXbzUZeNL7ChWAPOy4ADDzzwwIMBj4ZWXx+x6w/O7deAi6q8DzjwwAMPPBgwJBMMuGADGDzwwCsuD4J4wYB/0/qbQ/DAAw+8S+VBEK/CG3Dr1zab+vELu1HtOuv20zPwwAMPvEvnQRCvwhswBEEQBBVRMGAIgiAIykCFN+D1N4fs6+8vvNZnvrl/Dh544IF36TwI4lV4A877rkfwwAMPPOyChmSCARdsAIMHHnjF5UEQLxhwwQYweOCBV1weBPEaOgMuVeOXyosVdmbW+l/Cblr+TsUjzW7YFWNQ8fhiDDbFCdJ4LsUOVLxyLS7D2GrbFWNQ8UIUY9AxXHhpBTtsebKPimka8PmCESEMJK1ghwuP+spxJ2wxhhDtEbp9dbFBxoMgXkNnwFRsW6yFW2mkDxLVgFPxaABSgPDhlapxwKKAIPsuGx4FQOJt7Q6WxLM9X/rZ1oBVPLEcoW35xbG5/hKTfGk914AqliP0LX/Hq1wbLIFpy6N2rTT032dqSCa1cW3Pd2c/jAG32v0lRH3rPe+dJLxKw7890mKDigdBvPoMePX1EZtc7GpLKOVJqgEilgjTlQzTDThVwXvbGbCMR/Vd6Xdbu4NB1oZXrvWXlpvdMDdg3fUKVY6Qr2U7s2aekeAlXnff+rh8IJ3d8A/4vJab/uX+lpv6QG/Dk1133/Odr8fHGaIcIf/vK414XPjw+GtHN88h2hflCCFeP/xywiYqF2xysav9254B198dsmv3LtidZ8V6a4uNAaels2wNZGYtCQi+Bkyi1KJs5uVqmKWqvJZqlgZcrvUHflcD5mdIlYZ/CpVmqfRJq+NrE6B1wd6Ut7Of9JEQ9Xtn1mIOyZdHfa1UDWPA1G/ofEO1x9hcfLOVlkmAAUMu+uGXE3bt3sVAXWCVegb83U9f2K0nxTLfKDI3kOmVxITm64MmZztjpUAzNhfOgIktW1Ny5W3tygNrlgYspj5dDZhfI1xuhp0By/rIVQRonQFTqn56xf98y7WkLYmnWkc3TeETL5QB89cwVEaCUse+7eHSvtBw6/qDc2PzjSLOgCcXu7308zDUA5bNWPnfi6ZpYyA02xI//Hf4pKBdDEmVIlcFhmFIQfMKkTIWDSjUpqS9k/QNYqY88dqnmZzpDQx/XD686RX5mHDtf9Qv+J9DtIduLdmlfWHAEGl8gfV81Koe8ORil3330xcWRfFa8LV7F5mfjIlMAz6/YYd2CNsMuLRB5jsDps01lGJbf2+/KUk8Ptoc4hpgLtuAxU1YtjN+MVC32gnPNaCKm7B8Z5jU13SzLVPew1fxMdINm+/x8RvXiKdK89reEIWYAfN9JERGghi6myHb84UBQ6TxBcZ++OWERVHE7jw7Yzcfpa8D9xkwP3UWf86rbFLQaY8gZGnAFBzoMSQKsj482SfE+YYy4BCPIdHx8IHaJ6Dyj/iEeExlbC7mpK1d2vKWm8nx+d5w0HJHqDVlk35i2x7UR2T7GGx51LaqrJXr+cKAIZK4gVm3oblnwLeexG799lN7KGbAtirKg/zggQdecXnQcGtysdvbS2U1A46ieCMW5a5pGp135X3AgQceeODBgEdDbz+1e2vAk4td8zXgoirvAw488MADDwYMyQQDLtgABg888IrLgyBeMODftP7mEDzwwAPvUnkQxKvwBtz6tc2mfvzCblS7zrr99Aw88MAD79J5EMSr8AYMQRAEQUUUDBiCIAiCMhAMWND6m0P29fcXXus939w/Bw888MAbeR6ULhiwoLzvogQPPPDAKwoPShcMWFDeOzR44IEHXlF4ULpgwILy3qHBAw888IrCg9IFAxYkdsBSNX5JPV8pZ2Zt8KXuYmUaVYeW8UizG/HL52Xl0mx54jGalvtLOz46RpviEyoeX3zCphhDGs+luIOKV67FZSdbbbviEypeiOITOoYLL61AiS1P9lExTQM+XyDDJODreGkFSlx41FeOO2GLT4Roj9Dtq4sNMh6ULhiwILEDUvHutNq6spJzqg6t4lH5O9vqLCpepZE+SGx5NAApQPjwStX4XCkgyL7LhkcBkHhbu/7tQT/bGrCKJ5ZftC03OTbXX1KTLyXoGlDF8ou+5f54lWuDJT9tedSulYb++0wNyaQWsO357uyHMeBWu79kqm99672ThFdp+LeHSSwUeVC6egY8vsAGpHuR9DBK1QHTSo612oMl53QdWuSpAr0rT1cizZY3NhcPPNsZsIxH9Wzpd1u7g0HWhleu9ZfSm90wN2Dd9QpVfpHPkMysmWckeInX3bceMB9IZzf8Az6v5aZ/ecPlpj7Q2/Bk1933fOfr8XGGKL/I//tKIx4XPjz+2tHNc4j2RflFuR5vHw94qK6qoHQGXH93yCYqxShHGFq2AXpmTT5QbAM0pRVV6SIXA05LZ9ny+PP0NWASna9s5uVqmKWqvHZslgZcrvUHflcD5mdIlYZ/CpVmqfRJq1tsE6B1wd6Ut7Of9JEQ9Ypn1mIOyZdHfa1UDWPA1G/ofEO1x9hcfLOVlkmAAYfX3c1TNrXUSf0bqQF/99MXdnfzNPMTyEJZzZAYS1KUsrtfW970SmJC8/VBk7OdsVKgoWP1PV8+iMnWlFx5W7vywJqlAYupT1cD5tcIl5thZ8CyPmLL011LW97OfpKqn17xP99yLWlL4qnW0U1T+MQLZcD8NQyVkaDUsW97uLTvKOv6g3NWf5f+DvABA377qT2ys98osgvQ5Zo6aLkYMP978WeXGWsoHs22xA//HT4paBdDUqXIVYFhGFLQvEKkjEUDCrUpae8kfYOYKU+89mkmZ3oDwx+XD296RT4mXPsf9Qv+5xDtoVtLdmlfGLBej7eP2c1HXe3fDRjwrSdn7NaT0X15uG3AV6WxbAP0zn6/4fnOgPkNO7RD2IenCwy2KVk+xbb+3n5Tknh8tDnENcBctgGLm7BsZ/y8ZtbiGz/iuQZUcROW7wyT+pputmXKe/gqPka6YfM9Pn7jGoxbv4YAAAgHSURBVPFUaV7bG6IQM2C+j4TISBBDdzNke74wYL0mF7vs8fax9u8GDHiicsHefmpnfgJZyTSg+u7yFHm0jkRrwb5rmLpHELI0YAoO9BgSBVkfnuwT4nxDGXCIx5DoePhA7RNQ+Ud8QjymMjYXc9LWLm15y83k+HxvOGi5g9ZYfdeATfqJbXtQH5HtY7DlUduqslau5wsDTlf93SG7/sDsdZx9BmyyaDzsMh1woQIMeOCBB96w8kZRU0sd4z1UfQY8UbnQLhoPu/LeocEDDzzwisIbNdk+QYQXcQjKe4cGDzzwwCsKD0oXDFhQ3js0eOCBB15ReFC6YMCCQnXA9TeH4IEHHngjzYPSBQMW1Pq1zaZ+/MJuVLvOuv30DDzwwANv5HlQumDAEARBEJSBYMAQBEEQlIGu3IDX3xyyr7+/8Fpf+Ob+eWF4Hz9+ZKurq+znn3921t/+9jfwAvHy3l/AAw+8q+NlrSs34Lzv2gvN297e9jIP0rt378ALwMt7fwEPPPCujpe1YMCXzMu7IY0aL+/9BTzwwLs6XtaCAV8yL++GNGq8vPcX8MAD7+p4WStzA1YVDSjX4qpArbbdy/BVPNeX4Zeq8UvbxQo2fDEBsZIPzxMNZHNzk7VaLdZut9nu7m7v/7daLdbpxMCjoyO2ublpZEgy3suXLwdewn5+fu7MIzWbTdbpdNjR0ZGxYap44jGKTJfjo2NkjBkbsEn7huovIfuf6/hQ8UIUi9AxXHhpBUVsebKPimka8PmCFiEMRPz48qivHHfCFosI0R6h21fVt9N4WStzA947SaqSVBpJhSGq7WobYFQ8sRycafk7KmbN15otVZMOQxVWxMoqKgP+8OEDOzg4YAcHB30Gcn5+zl6+fMl+/vlntre3x/b29owMScXj1Wq12MHBgRev2Wz2HaOpAat4Hz58UB6v6/lubm72bmJMDVjVvsedJCDI6gzb9BcKgMTb2h0s2WfD8xkfKp7r+ODFl8DkS/+5BlSxXKJveT5evtXM+HatNPTfZ2pIJrV7bc93Zz+MAbfa/SVOfetRq2K1K0/Vt9N4WatnwKuvj9j1B+dsfIGxicoFW319OQcoXkCxJJ/YCLbl4FQ834LofAku8d/PrKnr96pSqLu7u30G0ul0+gxYNBddSlbk8To9PWXPnz/34p2enirN14WXdryu53twcGA9A5a1L9Wfpd9t7Q4GWZv+Uq7136DNbpgbsIznMz5UPN/xMTY3OGPzrd/LB9LZDf+Az2u56V+OcLmpD/Q2PNl19z3f+Xp8nCHKJfL/Xlaz3Jani/2u7ZtlucS7m6dsonLBxhcYm1zsakv79gz45qMuu/UkfoPJD7+cGNcz9DVgccCJgc41wPC8cm3QMH0MmJ8hlarx96h4pgbCp2Q7nU4QQyJuu9325lGamI7vxYsX3gZMs9UQPP48fQ2Y73uMyWderoZZqsprvWZpwCHGx9hc/wyp0vBPodIslT5pdYZtArQu2JvydvaTPhKivvDMWswh+fKor1GtcV8Dpn5D5xuqPcbm5LHflZelAV+7d8Eebx+zKIrYdz99Yd/99MXMgKeWOn0GPLnYvVIDpvSBrJO7BBieJ6Z2fA14bC5ZIzzuxN8TcgZ8cHBgnILWGfDR0ZF05upiwM1mk/38c5wGFk3dlvfixYue6bZaLXZ6eurM29zcZKenp71181AGTEFMtqbkapiy5QofXggDDjE+iEOGudwMOwOer4dLQdsEaJ0BU6p+esX/fMu1pC2Jp1pHN03hEy+UAfPXMFRGQhX7r6J9Q2ui0m/A5KlaA6Y6huMLjI0vsEurCyy7gGnrCS4BRsYLmYIWJUtF2Rjwixcv+gzo5cuXxpuS0gz4+fPnA8bmY8D878WfXWasoXgfPnyQbrDhv8MnBR2qv6StTQ1DCppXiJSxaEChNiXtnaRvEDPlidc+zeRMb2D44/LhTa9Ih4Rz/6N+wf8coj10a8ku7ZulAT/ePu55qEldYOkM+O7m6ZWloOnOVjUgbAOMiiduMgk1o6HdrWI6xnYGfC5swvKdYdJMutVqBTHgo6OjPsPzPb6jo6PesdEOcN/zVZm5rQHT5hpq0/X39puSxP5Cm0NcA8xlG7Dv+BADdaud8FwDqrgJy3eGSeNVN9sy5T18FR8j3bD5Hh+/cY14qjSv7Q1RiBkw30dCZCR0sd/1fPMyA55a6pinoK/du+hbMB5fYFdiwLSGwn9M7ipVDaLi+T5mIWtUYsm2z9saMD3iw5jdY0gq3vPnz6Vrya68zc3N3hrw0dGR95otzfoZC7MGHNKAKTjQY0gUZH36i+zj2/9cxoeKF+IxJDoePlD7BFT+EZ8Qj6mMzclvln14y83k+HxvOGi5g7Ewa8Am/cS2PaiPyPYx2PJ0sd/1fLMyYNrITD8/3j7WLuUqN2Fdu6efPocwYFfZdsCseHl/McWo8fLeX8ADD7yr44WWuAnr5iNDA159fcQmF7tX/hhS3hoEBjzcvLz3F/DAA+/qeKH1wy8nbo8hXZXy3iAw4OHm5b2/gAceeFfHy1ow4Evm5d2QRo2X9/4CHnjgXR0vaxXWgNffHBaCF8pAPn78CF4AXt77C3jggXd1vKx15Qbc+rXNpn78wm5Uu866/fSsMLx//OMfrF6vs42NDWdtb2+DF4iX9/4CHnjgXR0va125AUMQBEEQBAOGIAiCoEwEA4YgCIKgDAQDhiAIgqAMBAOGIAiCoAwEA4YgCIKgDPT/Ns2M16H0S+YAAAAASUVORK5CYII=;" vertex="1" parent="K1axlJIXEC6P-MiM49ua-52">
          <mxGeometry x="35.47727272727273" y="178.75894736842108" width="476.6905263157895" height="171.8072105263158" as="geometry" />
        </mxCell>
        <mxCell id="K1axlJIXEC6P-MiM49ua-48" value="" style="line;strokeWidth=2;html=1;fillColor=none;align=left;verticalAlign=top;" vertex="1" parent="K1axlJIXEC6P-MiM49ua-52">
          <mxGeometry x="96.29545454545455" y="148.96578947368423" width="364.90909090909093" height="9.931052631578948" as="geometry" />
        </mxCell>
        <mxCell id="K1axlJIXEC6P-MiM49ua-49" value="Leinwand" style="text;html=1;strokeColor=none;fillColor=none;align=center;verticalAlign=middle;whiteSpace=wrap;rounded=0;" vertex="1" parent="K1axlJIXEC6P-MiM49ua-52">
          <mxGeometry x="258.47727272727275" y="129.10368421052632" width="40.54545454545455" height="19.862105263157897" as="geometry" />
        </mxCell>
        <mxCell id="K1axlJIXEC6P-MiM49ua-50" value="&lt;div style=&quot;font-size: 15px&quot;&gt;&lt;b&gt;Shrek&lt;/b&gt;&lt;/div&gt;&lt;div&gt;12:00&lt;span style=&quot;white-space: pre&quot;&gt;&lt;/span&gt;&lt;span style=&quot;white-space: pre&quot;&gt;	&lt;/span&gt;Kino 3&lt;span style=&quot;white-space: pre&quot;&gt;	&lt;/span&gt;2D&lt;/div&gt;&lt;div&gt;&lt;br&gt;&lt;/div&gt;&lt;div style=&quot;font-size: 20px&quot;&gt;&lt;b&gt;2 Sitze&lt;span style=&quot;white-space: pre&quot;&gt;	&lt;/span&gt;16 €&lt;/b&gt;&lt;br&gt;&lt;/div&gt;" style="text;html=1;strokeColor=none;fillColor=none;align=left;verticalAlign=top;whiteSpace=wrap;rounded=0;" vertex="1" parent="K1axlJIXEC6P-MiM49ua-52">
          <mxGeometry x="30.409090909090907" y="39.724210526315794" width="293.95454545454544" height="99.31052631578949" as="geometry" />
        </mxCell>
        <mxCell id="K1axlJIXEC6P-MiM49ua-51" value="&lt;font style=&quot;font-size: 18px&quot;&gt;Buchen&lt;/font&gt;" style="rounded=1;html=1;shadow=0;dashed=0;whiteSpace=wrap;fontSize=10;fillColor=#cce5ff;align=center;strokeColor=#36393d;" vertex="1" parent="K1axlJIXEC6P-MiM49ua-52">
          <mxGeometry x="367.4431818181818" y="59.58631578947369" width="154.57954545454547" height="49.655263157894744" as="geometry" />
        </mxCell>
        <mxCell id="Lpt5Mu2my_b8LAYJmYxF-1" value="" style="strokeWidth=1;shadow=0;dashed=0;align=center;html=1;shape=mxgraph.mockup.containers.browserWindow;rSize=0;strokeColor=#666666;strokeColor2=#008cff;strokeColor3=#c4c4c4;mainText=,;recursiveResize=0;" parent="1" vertex="1">
          <mxGeometry x="40" y="120" width="1080" height="760" as="geometry" />
        </mxCell>
        <mxCell id="Lpt5Mu2my_b8LAYJmYxF-2" value="mycinema" style="strokeWidth=1;shadow=0;dashed=0;align=center;html=1;shape=mxgraph.mockup.containers.anchor;fontSize=17;fontColor=#666666;align=left;" parent="Lpt5Mu2my_b8LAYJmYxF-1" vertex="1">
          <mxGeometry x="60" y="12" width="110" height="26" as="geometry" />
        </mxCell>
        <mxCell id="Lpt5Mu2my_b8LAYJmYxF-3" value="https://www.mycinema.de" style="strokeWidth=1;shadow=0;dashed=0;align=center;html=1;shape=mxgraph.mockup.containers.anchor;rSize=0;fontSize=17;fontColor=#666666;align=left;" parent="Lpt5Mu2my_b8LAYJmYxF-1" vertex="1">
          <mxGeometry x="130" y="60" width="250" height="26" as="geometry" />
        </mxCell>
        <mxCell id="Lpt5Mu2my_b8LAYJmYxF-5" value="Suche Filme" style="strokeWidth=1;shadow=0;dashed=0;align=center;html=1;shape=mxgraph.mockup.forms.searchBox;strokeColor=#999999;mainText=;strokeColor2=#008cff;fontColor=#666666;fontSize=17;align=left;spacingLeft=3;" parent="Lpt5Mu2my_b8LAYJmYxF-1" vertex="1">
          <mxGeometry x="375" y="200" width="330" height="30" as="geometry" />
        </mxCell>
        <mxCell id="Lpt5Mu2my_b8LAYJmYxF-17" value="" style="shape=image;verticalLabelPosition=bottom;labelBackgroundColor=#ffffff;verticalAlign=top;imageAspect=0;image=https://images-na.ssl-images-amazon.com/images/I/51TXaigVBHL._AC_.jpg;" parent="Lpt5Mu2my_b8LAYJmYxF-1" vertex="1">
          <mxGeometry x="140" y="257.5" width="170" height="245" as="geometry" />
        </mxCell>
        <mxCell id="Lpt5Mu2my_b8LAYJmYxF-20" value="" style="verticalLabelPosition=bottom;shadow=0;dashed=0;align=center;html=1;verticalAlign=top;strokeWidth=1;shape=mxgraph.mockup.navigation.scrollBar;strokeColor=#999999;barPos=100;fillColor2=#99ddff;strokeColor2=none;direction=north;" parent="Lpt5Mu2my_b8LAYJmYxF-1" vertex="1">
          <mxGeometry x="1060" y="230" width="20" height="470" as="geometry" />
        </mxCell>
        <mxCell id="Lpt5Mu2my_b8LAYJmYxF-19" value="" style="shape=image;verticalLabelPosition=bottom;labelBackgroundColor=#ffffff;verticalAlign=top;imageAspect=0;image=https://static.posters.cz/image/750/poster/shrek-2-one-sheet-i653.jpg;" parent="Lpt5Mu2my_b8LAYJmYxF-1" vertex="1">
          <mxGeometry x="350" y="257.5" width="170" height="245" as="geometry" />
        </mxCell>
        <mxCell id="Lpt5Mu2my_b8LAYJmYxF-21" value="" style="shape=image;verticalLabelPosition=bottom;labelBackgroundColor=#ffffff;verticalAlign=top;imageAspect=0;image=https://m.media-amazon.com/images/M/MV5BOTgyMjc3ODk2MV5BMl5BanBnXkFtZTcwMjY0MjEzMw@@._V1_.jpg;" parent="Lpt5Mu2my_b8LAYJmYxF-1" vertex="1">
          <mxGeometry x="560" y="257.5" width="170" height="245" as="geometry" />
        </mxCell>
        <mxCell id="Lpt5Mu2my_b8LAYJmYxF-22" value="" style="shape=image;verticalLabelPosition=bottom;labelBackgroundColor=#ffffff;verticalAlign=top;imageAspect=0;image=https://images-na.ssl-images-amazon.com/images/I/81nmtQ6sufL._SL1500_.jpg;" parent="Lpt5Mu2my_b8LAYJmYxF-1" vertex="1">
          <mxGeometry x="770" y="257.5" width="170" height="245" as="geometry" />
        </mxCell>
        <mxCell id="Lpt5Mu2my_b8LAYJmYxF-23" value="Impressum/Kontakt" style="rounded=0;whiteSpace=wrap;html=1;" parent="Lpt5Mu2my_b8LAYJmYxF-1" vertex="1">
          <mxGeometry y="700" width="1080" height="60" as="geometry" />
        </mxCell>
        <mxCell id="Lpt5Mu2my_b8LAYJmYxF-24" value="&lt;div&gt;&lt;b&gt;&lt;font style=&quot;font-size: 15px&quot;&gt;Shrek&lt;/font&gt;&lt;/b&gt;&lt;/div&gt;&lt;div&gt;90 min&lt;span style=&quot;white-space: pre&quot;&gt;	&lt;/span&gt;FSK 6&lt;br&gt;&lt;/div&gt;" style="text;html=1;strokeColor=none;fillColor=none;align=center;verticalAlign=middle;whiteSpace=wrap;rounded=0;" parent="Lpt5Mu2my_b8LAYJmYxF-1" vertex="1">
          <mxGeometry x="140" y="502.5" width="170" height="37.5" as="geometry" />
        </mxCell>
        <mxCell id="Lpt5Mu2my_b8LAYJmYxF-25" value="&lt;div&gt;&lt;font style=&quot;font-size: 15px&quot;&gt;&lt;b&gt;Shrek 2&lt;/b&gt;&lt;br&gt;&lt;/font&gt;&lt;/div&gt;&lt;div&gt;90 min&lt;span style=&quot;white-space: pre&quot;&gt;	&lt;/span&gt;FSK 6&lt;br&gt;&lt;/div&gt;" style="text;html=1;strokeColor=none;fillColor=none;align=center;verticalAlign=middle;whiteSpace=wrap;rounded=0;" parent="Lpt5Mu2my_b8LAYJmYxF-1" vertex="1">
          <mxGeometry x="350" y="502.5" width="170" height="37.5" as="geometry" />
        </mxCell>
        <mxCell id="Lpt5Mu2my_b8LAYJmYxF-26" value="&lt;div&gt;&lt;font style=&quot;font-size: 15px&quot;&gt;&lt;b&gt;Shrek 3&lt;/b&gt;&lt;br&gt;&lt;/font&gt;&lt;/div&gt;&lt;div&gt;90 min&lt;span style=&quot;white-space: pre&quot;&gt;	&lt;/span&gt;FSK 6&lt;br&gt;&lt;/div&gt;" style="text;html=1;strokeColor=none;fillColor=none;align=center;verticalAlign=middle;whiteSpace=wrap;rounded=0;" parent="Lpt5Mu2my_b8LAYJmYxF-1" vertex="1">
          <mxGeometry x="560" y="502.5" width="170" height="37.5" as="geometry" />
        </mxCell>
        <mxCell id="Lpt5Mu2my_b8LAYJmYxF-27" value="&lt;div&gt;&lt;font style=&quot;font-size: 15px&quot;&gt;&lt;b&gt;Shrek 4&lt;/b&gt;&lt;br&gt;&lt;/font&gt;&lt;/div&gt;&lt;div&gt;90 min&lt;span style=&quot;white-space: pre&quot;&gt;	&lt;/span&gt;FSK 6&lt;br&gt;&lt;/div&gt;" style="text;html=1;strokeColor=none;fillColor=none;align=center;verticalAlign=middle;whiteSpace=wrap;rounded=0;" parent="Lpt5Mu2my_b8LAYJmYxF-1" vertex="1">
          <mxGeometry x="770" y="502.5" width="170" height="37.5" as="geometry" />
        </mxCell>
        <mxCell id="Lpt5Mu2my_b8LAYJmYxF-29" value="" style="rounded=0;whiteSpace=wrap;html=1;fillColor=none;" parent="Lpt5Mu2my_b8LAYJmYxF-1" vertex="1">
          <mxGeometry y="110" width="1080" height="60" as="geometry" />
        </mxCell>
        <mxCell id="Lpt5Mu2my_b8LAYJmYxF-4" value="" style="verticalLabelPosition=bottom;shadow=0;dashed=0;align=center;html=1;verticalAlign=top;strokeWidth=1;shape=mxgraph.mockup.containers.userMale;strokeColor=#666666;strokeColor2=#008cff;" parent="Lpt5Mu2my_b8LAYJmYxF-1" vertex="1">
          <mxGeometry x="899.74" y="119.87" width="40.26" height="40.26" as="geometry" />
        </mxCell>
        <mxCell id="Lpt5Mu2my_b8LAYJmYxF-53" value="Mannheim" style="strokeWidth=1;shadow=0;dashed=0;align=center;html=1;shape=mxgraph.mockup.forms.comboBox;strokeColor=#999999;fillColor=#ddeeff;align=left;fillColor2=#aaddff;mainText=;fontColor=#666666;fontSize=17;spacingLeft=3;" parent="Lpt5Mu2my_b8LAYJmYxF-1" vertex="1">
          <mxGeometry x="140" y="200" width="150" height="30" as="geometry" />
        </mxCell>
        <mxCell id="Lpt5Mu2my_b8LAYJmYxF-54" value="" style="aspect=fixed;pointerEvents=1;shadow=0;dashed=0;html=1;strokeColor=#36393d;labelPosition=center;verticalLabelPosition=bottom;verticalAlign=top;align=center;fillColor=#cce5ff;shape=mxgraph.mscae.enterprise.filter" parent="Lpt5Mu2my_b8LAYJmYxF-1" vertex="1">
          <mxGeometry x="840" y="200" width="33.33" height="30" as="geometry" />
        </mxCell>
        <mxCell id="Lpt5Mu2my_b8LAYJmYxF-55" value="" style="shape=image;html=1;verticalAlign=top;verticalLabelPosition=bottom;labelBackgroundColor=#ffffff;imageAspect=0;aspect=fixed;image=https://cdn1.iconfinder.com/data/icons/material-core/18/sort-128.png;fillColor=none;" parent="Lpt5Mu2my_b8LAYJmYxF-1" vertex="1">
          <mxGeometry x="910" y="200" width="30" height="30" as="geometry" />
        </mxCell>
        <mxCell id="Lpt5Mu2my_b8LAYJmYxF-28" value="Programm" style="rounded=1;html=1;shadow=0;dashed=0;whiteSpace=wrap;fontSize=10;fillColor=#cce5ff;align=center;strokeColor=#36393d;" parent="Lpt5Mu2my_b8LAYJmYxF-1" vertex="1">
          <mxGeometry x="297.5" y="119.87" width="110" height="40" as="geometry" />
        </mxCell>
        <mxCell id="Lpt5Mu2my_b8LAYJmYxF-30" value="Events" style="rounded=1;html=1;shadow=0;dashed=0;whiteSpace=wrap;fontSize=10;fillColor=#cce5ff;align=center;strokeColor=#36393d;" parent="Lpt5Mu2my_b8LAYJmYxF-1" vertex="1">
          <mxGeometry x="421" y="119.87" width="110" height="40" as="geometry" />
        </mxCell>
        <mxCell id="Lpt5Mu2my_b8LAYJmYxF-31" value="Preisübersicht" style="rounded=1;html=1;shadow=0;dashed=0;whiteSpace=wrap;fontSize=10;fillColor=#cce5ff;align=center;strokeColor=#36393d;" parent="Lpt5Mu2my_b8LAYJmYxF-1" vertex="1">
          <mxGeometry x="547.5" y="120" width="110" height="40" as="geometry" />
        </mxCell>
        <mxCell id="Lpt5Mu2my_b8LAYJmYxF-32" value="News" style="rounded=1;html=1;shadow=0;dashed=0;whiteSpace=wrap;fontSize=10;fillColor=#cce5ff;align=center;strokeColor=#36393d;" parent="Lpt5Mu2my_b8LAYJmYxF-1" vertex="1">
          <mxGeometry x="672.5" y="120" width="110" height="40" as="geometry" />
        </mxCell>
        <mxCell id="Lpt5Mu2my_b8LAYJmYxF-56" value="" style="html=1;verticalLabelPosition=bottom;align=center;labelBackgroundColor=#ffffff;verticalAlign=top;strokeWidth=2;strokeColor=#0080F0;shadow=0;dashed=0;shape=mxgraph.ios7.icons.home;fillColor=none;" parent="Lpt5Mu2my_b8LAYJmYxF-1" vertex="1">
          <mxGeometry x="140" y="119.87" width="40" height="40" as="geometry" />
        </mxCell>
        <mxCell id="Lpt5Mu2my_b8LAYJmYxF-33" value="" style="strokeWidth=1;shadow=0;dashed=0;align=center;html=1;shape=mxgraph.mockup.containers.browserWindow;rSize=0;strokeColor=#666666;strokeColor2=#008cff;strokeColor3=#c4c4c4;mainText=,;recursiveResize=0;" parent="1" vertex="1">
          <mxGeometry x="40" y="920" width="1080" height="760" as="geometry" />
        </mxCell>
        <mxCell id="Lpt5Mu2my_b8LAYJmYxF-61" value="&lt;div style=&quot;font-size: 14px&quot;&gt;12:00&lt;/div&gt;&lt;div style=&quot;font-size: 14px&quot;&gt;&lt;font style=&quot;font-size: 14px&quot;&gt;2D&lt;br&gt;&lt;/font&gt;&lt;/div&gt;" style="rounded=1;html=1;shadow=0;dashed=0;whiteSpace=wrap;fontSize=10;fillColor=#cce5ff;align=center;strokeColor=#36393d;" parent="Lpt5Mu2my_b8LAYJmYxF-33" vertex="1">
          <mxGeometry x="472.5" y="420" width="152.5" height="60" as="geometry" />
        </mxCell>
        <mxCell id="Lpt5Mu2my_b8LAYJmYxF-62" value="&lt;div style=&quot;font-size: 14px&quot;&gt;13:00&lt;/div&gt;&lt;div style=&quot;font-size: 14px&quot;&gt;&lt;font style=&quot;font-size: 14px&quot;&gt;3D&lt;br&gt;&lt;/font&gt;&lt;/div&gt;" style="rounded=1;html=1;shadow=0;dashed=0;whiteSpace=wrap;fontSize=10;fillColor=#cce5ff;align=center;strokeColor=#36393d;" parent="Lpt5Mu2my_b8LAYJmYxF-33" vertex="1">
          <mxGeometry x="642.5" y="420" width="152.5" height="60" as="geometry" />
        </mxCell>
        <mxCell id="Lpt5Mu2my_b8LAYJmYxF-63" value="&lt;div style=&quot;font-size: 14px&quot;&gt;14:30&lt;/div&gt;&lt;div style=&quot;font-size: 14px&quot;&gt;&lt;font style=&quot;font-size: 14px&quot;&gt;2D&lt;br&gt;&lt;/font&gt;&lt;/div&gt;" style="rounded=1;html=1;shadow=0;dashed=0;whiteSpace=wrap;fontSize=10;fillColor=#cce5ff;align=center;strokeColor=#36393d;" parent="Lpt5Mu2my_b8LAYJmYxF-33" vertex="1">
          <mxGeometry x="815" y="420" width="152.5" height="60" as="geometry" />
        </mxCell>
        <mxCell id="Lpt5Mu2my_b8LAYJmYxF-64" value="&lt;div style=&quot;font-size: 14px&quot;&gt;14:30&lt;/div&gt;&lt;div style=&quot;font-size: 14px&quot;&gt;&lt;font style=&quot;font-size: 14px&quot;&gt;3D&lt;/font&gt;&lt;/div&gt;&lt;div style=&quot;font-size: 14px&quot;&gt;&lt;font style=&quot;font-size: 14px&quot;&gt;50 FPS&lt;br&gt;&lt;/font&gt;&lt;/div&gt;" style="rounded=1;html=1;shadow=0;dashed=0;whiteSpace=wrap;fontSize=10;fillColor=#cce5ff;align=center;strokeColor=#36393d;" parent="Lpt5Mu2my_b8LAYJmYxF-33" vertex="1">
          <mxGeometry x="472.5" y="500" width="152.5" height="60" as="geometry" />
        </mxCell>
        <mxCell id="Lpt5Mu2my_b8LAYJmYxF-65" value="&lt;div style=&quot;font-size: 14px&quot;&gt;17:00&lt;/div&gt;&lt;div style=&quot;font-size: 14px&quot;&gt;&lt;font style=&quot;font-size: 14px&quot;&gt;2D&lt;br&gt;&lt;/font&gt;&lt;/div&gt;" style="rounded=1;html=1;shadow=0;dashed=0;whiteSpace=wrap;fontSize=10;fillColor=#cce5ff;align=center;strokeColor=#36393d;" parent="Lpt5Mu2my_b8LAYJmYxF-33" vertex="1">
          <mxGeometry x="642.5" y="500" width="152.5" height="60" as="geometry" />
        </mxCell>
        <mxCell id="Lpt5Mu2my_b8LAYJmYxF-67" value="&lt;div style=&quot;font-size: 14px&quot;&gt;19:00&lt;/div&gt;&lt;div style=&quot;font-size: 14px&quot;&gt;&lt;font style=&quot;font-size: 14px&quot;&gt;2D&lt;br&gt;&lt;/font&gt;&lt;/div&gt;" style="rounded=1;html=1;shadow=0;dashed=0;whiteSpace=wrap;fontSize=10;fillColor=#cce5ff;align=center;strokeColor=#36393d;" parent="Lpt5Mu2my_b8LAYJmYxF-33" vertex="1">
          <mxGeometry x="472.5" y="580" width="152.5" height="60" as="geometry" />
        </mxCell>
        <mxCell id="Lpt5Mu2my_b8LAYJmYxF-34" value="mycinema" style="strokeWidth=1;shadow=0;dashed=0;align=center;html=1;shape=mxgraph.mockup.containers.anchor;fontSize=17;fontColor=#666666;align=left;" parent="Lpt5Mu2my_b8LAYJmYxF-33" vertex="1">
          <mxGeometry x="60" y="12" width="110" height="26" as="geometry" />
        </mxCell>
        <mxCell id="Lpt5Mu2my_b8LAYJmYxF-35" value="https://www.mycinema.de" style="strokeWidth=1;shadow=0;dashed=0;align=center;html=1;shape=mxgraph.mockup.containers.anchor;rSize=0;fontSize=17;fontColor=#666666;align=left;" parent="Lpt5Mu2my_b8LAYJmYxF-33" vertex="1">
          <mxGeometry x="130" y="60" width="250" height="26" as="geometry" />
        </mxCell>
        <mxCell id="Lpt5Mu2my_b8LAYJmYxF-37" value="" style="shape=image;verticalLabelPosition=bottom;labelBackgroundColor=#ffffff;verticalAlign=top;imageAspect=0;image=https://images-na.ssl-images-amazon.com/images/I/51TXaigVBHL._AC_.jpg;" parent="Lpt5Mu2my_b8LAYJmYxF-33" vertex="1">
          <mxGeometry x="112.5" y="200" width="326.12" height="470" as="geometry" />
        </mxCell>
        <mxCell id="Lpt5Mu2my_b8LAYJmYxF-38" value="" style="verticalLabelPosition=bottom;shadow=0;dashed=0;align=center;html=1;verticalAlign=top;strokeWidth=1;shape=mxgraph.mockup.navigation.scrollBar;strokeColor=#999999;barPos=100;fillColor2=#99ddff;strokeColor2=none;direction=north;" parent="Lpt5Mu2my_b8LAYJmYxF-33" vertex="1">
          <mxGeometry x="1060" y="230" width="20" height="470" as="geometry" />
        </mxCell>
        <mxCell id="Lpt5Mu2my_b8LAYJmYxF-42" value="Impressum/Kontakt" style="rounded=0;whiteSpace=wrap;html=1;" parent="Lpt5Mu2my_b8LAYJmYxF-33" vertex="1">
          <mxGeometry y="700" width="1080" height="60" as="geometry" />
        </mxCell>
        <mxCell id="Lpt5Mu2my_b8LAYJmYxF-43" value="&lt;div&gt;&lt;font size=&quot;1&quot;&gt;&lt;b&gt;&lt;font style=&quot;font-size: 26px&quot;&gt;Shrek&lt;/font&gt;&lt;/b&gt;&lt;/font&gt;&lt;/div&gt;&lt;div style=&quot;font-size: 14px&quot;&gt;90 min&lt;span style=&quot;white-space: pre&quot;&gt;	&lt;/span&gt;FSK 6&lt;/div&gt;&lt;div&gt;&lt;br&gt;&lt;/div&gt;&lt;div&gt;Das ist ein sehr toller Film und so. Die ganze Familie hat Spaß.&lt;br&gt;&lt;/div&gt;" style="text;html=1;strokeColor=none;fillColor=none;align=left;verticalAlign=top;whiteSpace=wrap;rounded=0;horizontal=1;" parent="Lpt5Mu2my_b8LAYJmYxF-33" vertex="1">
          <mxGeometry x="480" y="200" width="482.5" height="90" as="geometry" />
        </mxCell>
        <mxCell id="Lpt5Mu2my_b8LAYJmYxF-47" value="" style="rounded=0;whiteSpace=wrap;html=1;fillColor=none;" parent="Lpt5Mu2my_b8LAYJmYxF-33" vertex="1">
          <mxGeometry y="110" width="1080" height="60" as="geometry" />
        </mxCell>
        <mxCell id="Lpt5Mu2my_b8LAYJmYxF-48" value="" style="verticalLabelPosition=bottom;shadow=0;dashed=0;align=center;html=1;verticalAlign=top;strokeWidth=1;shape=mxgraph.mockup.containers.userMale;strokeColor=#666666;strokeColor2=#008cff;" parent="Lpt5Mu2my_b8LAYJmYxF-33" vertex="1">
          <mxGeometry x="899.74" y="119.87" width="40.26" height="40.26" as="geometry" />
        </mxCell>
        <mxCell id="Lpt5Mu2my_b8LAYJmYxF-49" value="Programm" style="rounded=1;html=1;shadow=0;dashed=0;whiteSpace=wrap;fontSize=10;fillColor=#cce5ff;align=center;strokeColor=#36393d;" parent="Lpt5Mu2my_b8LAYJmYxF-33" vertex="1">
          <mxGeometry x="297.5" y="120" width="110" height="40" as="geometry" />
        </mxCell>
        <mxCell id="Lpt5Mu2my_b8LAYJmYxF-50" value="Events" style="rounded=1;html=1;shadow=0;dashed=0;whiteSpace=wrap;fontSize=10;fillColor=#cce5ff;align=center;strokeColor=#36393d;" parent="Lpt5Mu2my_b8LAYJmYxF-33" vertex="1">
          <mxGeometry x="421" y="120" width="110" height="40" as="geometry" />
        </mxCell>
        <mxCell id="Lpt5Mu2my_b8LAYJmYxF-51" value="Preisübersicht" style="rounded=1;html=1;shadow=0;dashed=0;whiteSpace=wrap;fontSize=10;fillColor=#cce5ff;align=center;strokeColor=#36393d;" parent="Lpt5Mu2my_b8LAYJmYxF-33" vertex="1">
          <mxGeometry x="547.5" y="120.13000000000011" width="110" height="40" as="geometry" />
        </mxCell>
        <mxCell id="Lpt5Mu2my_b8LAYJmYxF-52" value="News" style="rounded=1;html=1;shadow=0;dashed=0;whiteSpace=wrap;fontSize=10;fillColor=#cce5ff;align=center;strokeColor=#36393d;" parent="Lpt5Mu2my_b8LAYJmYxF-33" vertex="1">
          <mxGeometry x="672.5" y="120.13000000000011" width="110" height="40" as="geometry" />
        </mxCell>
        <mxCell id="Lpt5Mu2my_b8LAYJmYxF-57" value="" style="html=1;verticalLabelPosition=bottom;align=center;labelBackgroundColor=#ffffff;verticalAlign=top;strokeWidth=2;strokeColor=#0080F0;shadow=0;dashed=0;shape=mxgraph.ios7.icons.home;fillColor=none;" parent="Lpt5Mu2my_b8LAYJmYxF-33" vertex="1">
          <mxGeometry x="140" y="120" width="40" height="40" as="geometry" />
        </mxCell>
        <mxCell id="Lpt5Mu2my_b8LAYJmYxF-58" value="&lt;div&gt;&lt;font size=&quot;1&quot;&gt;&lt;b style=&quot;font-size: 15px&quot;&gt;Besetzung&lt;/b&gt;&lt;/font&gt;&lt;/div&gt;&lt;div&gt;&lt;b&gt;&lt;br&gt;&lt;/b&gt;&lt;/div&gt;&lt;div&gt;Sven Schauspieler&lt;br&gt;&lt;/div&gt;&lt;div&gt;Alice Actress&lt;br&gt;&lt;/div&gt;&lt;div&gt;Monika Model&lt;br&gt;&lt;b&gt;&lt;/b&gt;&lt;/div&gt;" style="text;html=1;strokeColor=none;fillColor=none;align=center;verticalAlign=top;whiteSpace=wrap;rounded=0;" parent="Lpt5Mu2my_b8LAYJmYxF-33" vertex="1">
          <mxGeometry x="837.5" y="200" width="130" height="90" as="geometry" />
        </mxCell>
        <mxCell id="Lpt5Mu2my_b8LAYJmYxF-59" value="&lt;div style=&quot;font-size: 20px&quot; align=&quot;left&quot;&gt;&lt;font style=&quot;font-size: 20px&quot;&gt;&lt;b&gt;Vorstellungen:&lt;/b&gt;&lt;/font&gt;&lt;/div&gt;" style="text;html=1;strokeColor=none;fillColor=none;align=left;verticalAlign=middle;whiteSpace=wrap;rounded=0;" parent="Lpt5Mu2my_b8LAYJmYxF-33" vertex="1">
          <mxGeometry x="472.5" y="360" width="82.5" height="20" as="geometry" />
        </mxCell>
        <mxCell id="Lpt5Mu2my_b8LAYJmYxF-60" value="Heute 07.07.2021" style="text;html=1;strokeColor=none;fillColor=none;align=left;verticalAlign=middle;whiteSpace=wrap;rounded=0;" parent="Lpt5Mu2my_b8LAYJmYxF-33" vertex="1">
          <mxGeometry x="472.5" y="390" width="100" height="20" as="geometry" />
        </mxCell>
        <mxCell id="Lpt5Mu2my_b8LAYJmYxF-94" value="Sitzplan" style="strokeWidth=1;shadow=0;dashed=0;align=center;html=1;shape=mxgraph.mockup.containers.window;align=left;verticalAlign=top;spacingLeft=8;strokeColor2=#008cff;strokeColor3=#c4c4c4;fontColor=#666666;mainText=;fontSize=17;labelBackgroundColor=none;fillColor=none;" parent="1" vertex="1">
          <mxGeometry x="1241" y="1910" width="550" height="380" as="geometry" />
        </mxCell>
        <mxCell id="Lpt5Mu2my_b8LAYJmYxF-266" value="" style="shape=image;verticalLabelPosition=bottom;labelBackgroundColor=#ffffff;verticalAlign=top;aspect=fixed;imageAspect=0;image=data:image/png,iVBORw0KGgoAAAANSUhEUgAAAeAAAACtCAYAAABoZayTAAAgAElEQVR4nO2dzWscSZrGG/0BO33ScX0X7PbJUIf1QeddMHXoywjmKPq8ixFj5ugVe1thRA8CX6qNh0KwxqZaDGrUWEbCA9JB5WYoS9jYZcrGRm5p5Cx9ukqKPWS/lVFRERmfUmZWPQUPtFryrzIzIt4n443IfL+KoohBEARBEHS1+irrA4AgCIKgURQMGIIgCIIyEAwYgiAIgjIQDBiCIAiCMhAMGIIgCIIyEAwYgiAIgjIQDBiCIAiCMhAMGIIgCIIyEAy4YFp/c8i+/v6Cjc0xZ31z/xw88MDLgAdBvGDABdPtp2dewYC0tHMEHnjgXTEPgnjBgAumvAcY8MADT82DIF4w4IIp7wEGPPDAU/MgiBcMuGASA0Kpyth8nbGtXcYevkr+/3ydsb0TxhhjbGc//juTAKPilWuMVRqMtdqMzayZBywVb3rF7fh46RguvFY75u2dxD/78GQfFdM04E+vxOfKWBgDET8hDKlcY+y4I+8nru0boj1Ct6+qb6fxIIgXDLhgEgNCpcHY+vtYFAQoAFKA2dqNf28SYGS8sbnkZ1sDVvH2Thib3UiOb7lpHwB39uMAODYXs8VztOXxgXR2Iz7XEIZEbbJ34sejdq009N9nakg7+3qW7fnu7Icx4FY7ad/5evqxmvD2ThJepeHfHqq+ncaDIF49A377qc3ubp6ym4+67NaTs8wPDJJLFRAevuo3YAo0ZCamBizjicHVxoBVvONO8t8za4PB1XSGyf/MM10CKh9IZzf8Az6v5WZ/m7jwlpv6QG/Dk1133/Odr8fHqeontsdH/11pxDdIPjz+2pWq/gbMc2HAUBRFrP7ukN15dsauPzhnj7ePtX/fM+A7z87Y1FKHTS11YMA5lq1hlqrxTEJMt2VpwOVaf+B3NWB+hlRp+KdQaZZKn3ItTIDWBXtT3s5+kn4+7vgb+sxazCH58qivlaphDJj6DZ1vqPYYm4tvttIyCTBgyEXkn9YGTLr15AwGnGPZGubWrjywZmnAYurT1YD5NcLlZtgZ8Hw9XAraJkDrDJhS9dMr/udbriVtSTzVOrppCp94oQyYv4ahMhKUOvZtD5f2hUZDk4tdGPAwysYw09amhiEFzStEylg0oFCbkvZO0jeImfLEa59mcqY3MPxx+fCmV+Sbzlz7H/UL/ucQ7aFbS3ZpXxgwJAoGPKQyNTjaHOIaYC7bgMVNWOJ32QTAmbV4tko814AqbsLynWFSwNfNtkx5D1/Fx1iqhpkB8xvXiKdK89reEIWYAfN9JERGghi6myHb84UBQ6JgwEMqU4OTfWwCzGUbcIjHkOh4+EDtE1D5R3xCPKZCJpK2dmnLW24mx+d7w1GqxoYeak3ZpJ/Ytgf1Edk+BlsetS3/8ckgqPp2Gg8aDcGAh1R5f9EAeOCBp+ZBoyEY8JAq7wEGPPDAU/Og0ZCzAUP5Vt4DDHjggafmQRAvGHDBlPcAAx544Kl5EMQLBlwwhQoI628OwQMPvCvmQRAvGHDB1Pq1zaZ+/MJuVLvOuv30DDzwwMuAB0G8YMAQBEEQlIFgwBAEQRCUgQpvwOtvDtnX3194rc98c/8cPPDAA+/SeRDEq/AGnPddj+CBBx542AUNyQQDLtgABg888IrLgyBeMOCCDWDwwAOvuDwI4jV0Blyqxi+VFyvszKz1v4TdtPydikea3ZCXSbPlzdfjF+LbFidI47kUO1DxyrW4jmqrbVeMQcULUYxBx3DhtdrhijHIPiqmacDnC0aEMJC0gh0uPOorx52wxRhCtEfo9tXFBhkPgngNnQFTsW2xFm6lkT5IVANOxaMBSAHCh1eqxgGLAoLsu2x4FACJt7U7WBLP9nzpZ1sDVvHEcoRUaN4mAO7sJxV8+NJ6rgFVLEfoW/6OV7kWn7MPj9q10tB/n031J5Pjtznfnf0wBtxqJ+2rq+Nrwts7SXiVhn97pMUGFQ+CePUMePX1Ebv+4JyNLzA2Ublgq6+L0WFUA0QsEaYrGaYbcKqC97YzYBmP6rvS77Z2B4OsDa9c6y8tN7thbsC66xWqHCFfy3ZmzTwjwUu87r71cflAOrvhH/B5LTf9y/0tN/WB3oYnu+6+5ztfj48zRDlC/t9XGvG48OHx145unkO0L8oRQqS7m6dsonLBxhcYm1zssref2ql/3zPgicoFu7t5yqIoYneenbGJykXmJ2MiGwNOS2fZGsjMWhIQfA2YRKlF2czL1TBLVXkt1SwNuFzrD/yuBszPkCoN/xQqzVLpk1bH1yZA64K9KW9nP+kjIer3zqzFHJIvj/paqRrGgKnf0PmGao+xufhmKy2TAAOGbFV/d8iu3UsmrzcfddnUUif13/QMmC9B+PZTe+gMeHolMaH5+qDJ2c5YKdCMzYUzYGLL1pRceVu78sCapQGLqU9XA+bXCJebYWfAsj5yFQFaZ8CUqp9e8T/fci1pS+Kp1tFNU/jEC2XA/DUMlZGg1LFve7i0LzS8qr877E1ioyhiP/xyYm7AvKaWOuzOs2K8v9Rmxsr/XjRNGwOh2Zb44b/DJwXtYkiqFLkqMAxDCppXiJSxaEChNiXtnaRvEDPlidc+zeRMb2D44/LhTa/Ix4Rr/6N+wf8coj10a8ku7QsDhkS9/dRm1x+ca5dyBwz4zrMzrWvnSaYBn9+wQzuEbQZc2iDznQHT5hpKsa2/t9+UJB4fbQ5xDTCXbcDiJizbGb8YqFvthOcaUMVNWL4zTOprutmWKe/hq/gY6YbN9/j4jWvEU6V5bW+IQsyA+T4SIiNBDN3NkO35woAhUTcfdftmwyr1GfDdzVM2udjN/OBtZJOCTnsEIUsDpuBAjyFRkPXhyT4hzjeUAYd4DImOhw/UPgGVf8QnxGMqY3MxJ23t0pa33EyOz/eGg5Y7Qq0pm/QT2/agPiLbx2DLo7ZVZa1czxcGDPGaWur0LemmqWfAdzdP2fUH59pdW3lT3h+8Bw888MCDAY+GppY6VhnkngFPLnbZ+ALr0+Pt48xPSKe8DzjwwAMPPBjwaEj00PEFlvr3Q/cijrwNOPDAAw88GDAkEwy4YAMYPPDAKy4PgnjBgH/T+ptD8MADD7xL5UEQr8IbcOvXNpv68Qu7Ue066/bTM/DAAw+8S+dBEK/CGzAEQRAEFVEwYAiCIAjKQIU34PU3h+zr7y+81me+uX8OHnhOPKVW/8I+z/4H+/ztV+zzt1+xgz/8jn2em2Lt13936+uOvLxfv1HjQRCvwhtw3nc9gjfcPJk+/+/ve0Yp6uAPv2PRX/9s1cd9eHm/fqPGgyBeMOCCDWDw8sUb0P0/Ks2SV/T3dbM+7snL+/UbNR4E8YIBF2wAg5cvHq/2678bmeXnb79in/90Q9u3Q/Dyfv1GjQdBvIbOgEvV+KXyYoWdmbX+l7Cblr9T8UizG3bFGFQ8vhiDTXGCNJ5LsQMVr1yLyzC22nbFGFS8EMUYdAwXXlrBDm1A/b//MTfMb79i7Y+t9P4dgKczkLSCHa6GRNW9QhZjCFEcw6V903i62KDtL9DIa+gMmIpti7VwK430QaIacCoeDUAKED68UjUOWBQQZN9lw6MASLyt3cGSeLbnSz/bGrCKJ5YjtC2/ODbXX2KSL63nGlDFcoQm5e/6ZJgu7qWNN5bS+3cAns6QTGrjml4/vl1CGHCr3V9C1Lfe895Jwqs0BkuS2vLSYoNRf4FGXj0DXn19xCYqF2x8gbGJyoW2kHBepBogYokwXckw3YBTFby3nQHLeFTflTeCSsOdV671l5ab3TA3YN31ClWOkK9lO7NmnpHgJV533/q4fCCd3TAL+H0qmAHLrrvP9Rubi/vdcjNMOUL+31ca8bjw4fH9j26efc83baxo+ws0dLq7ecqu3Yt9dHKxq60u2DPg6w/OewWEi1QX2MaA09JZtgYys5YEBF8DJlG9UtnMy9UwS1V5LdUsDbhc6w/8rgbMz5AqDf8UarmW9BHG0uv4SgPqX/8cNgUdgKczuONOIt96wNTXStUwBkz9huoVm7SH6Zrt+vvBm1xXHgwYiqKIvf3UZtfuJZNXk7rAPQPmSw/eeXbGbj4aLgOeXklMaL4+aHK2M1YKNGNz4QyY2LI1JVfe1q48sGZpwGLq09WA+TXC5WbYGbCsj+gCavtjix384Z/MDPN/f6/t2yF4uhsOasvplfj6qdbRTVP4xAtlwHz/8U1Bkyh1nPY3MGDIVm8/tfsyxzcfddmdZ4YGHEURu/XkjI0vMHbt3gWrvyvGy8NtZqz870XTtDEQmm2JH/47fFLQLoakSpGrAsMwpKB5maaM03iiAZnMqAdkMGs9+MM/6We/gXi6Gxj+fNNMU3f9plfkY8K1/5mMWZf+oltLdul/MGCI1+Ril40vMHb9gf4FLNJNWLeenA1dCprfsEM7hH0MRBcYbFOyfIpt/b39piTx+GhziGuAuWwDFjdh2c74xUDdaic814AqbsIymVFL9dc/q2eu//kv5s8AB+Dp1kSpj9AMWJXmtb0hCjED5vuIaUYijUeMtN3yLucLA4ZEvf3UZjcfdd1S0FEUsfEFlvlJmMgmBZ32CEKWBkzBgR5D2tq1fyxH5Mk+Ic43lAGHeAyJjocP1D4BlVLjqj5iE1Dbr/8eb6L607/F+u9/t34DVgiebs12azdZY/VdAzbpJ7btQX1Eto/Blkdtq8pauZ4vDBiKosEU9OPtY+1EtmfAE5UL9sMvJyyK4k1YJtPnPCjvD96DN9w8qTaW1O9o3liynwF78PJ+/UaNBw2v6u8O+5Zvp5Y67LufvqT+G+ljSNcfnBf+MaS8DDjwhpvXp9W/xEUSKD38X//KPs9Nsc/3/8g+z/4HO/jun5Pf/emGvjBDAF7er9+o8aDhFv8Y0s1HFo8hFVV5H3DgDTevJ8tnduPNU79Tz14D8fJ+/UaNB0G8YMAFG8Dg5YsXRRGLNpaszZKf1Q7064C8vF+/UeNBEC8Y8G9af3MIHnjWvCiK2Of//nd3w/z2q4HNVCF5eb9+o8aDIF6FN+DWr2029eMXdqPaddbtp2fggefEa39sJTuTHRXd/+Ol8fJ+/UaNB0G8Cm/AEARBEFREwYAhCIIgKAMV3oDX3xyyr7+/8Fqf+eb+OXjggQfepfMgiFfhDTjvux7BAw888LALGpIJBlywAQweeOAVlwdBvGDABRvA4IEHXnF5EMRr6Ay4VI1fKi9W2JlZ638Ju2n5OxWPNLthV4xBxeOLMdgUJ0jjuRQ7UPHKtbgMY6ttV4xBxQtRjEHHcOGlFeyw5ck+KqZpwOcLRoQwkLSCHS486ivHnbDFGEK0R+j21cUGGQ+CeA2dAVOxbbEWbqWRPkhUA07FowFIAcKHV6rGAYsCguy7bHgUAIm3tTtYmtD2fOlnWwNW8cRyhLblF8fm+ktM8qX1XAOqWI7Qt/wdr3JtsASmLY/atdLQf59N9SeT47c53539MAbcaveXEPWt97x3kvAqDf/2SIsNKh4E8RowYKroIJYnzKtUA0QsEaYrGaYbcKqC97YzYBmvVO2/G9/aHQyyNrxyrb+03OyGuQHrrleocoR8rd2ZNfOMBC/xupvU703j8YF0dsM/4PNabvqX+1tu6gO9DU923X3Pd74eH2eIcoT8v6804nHhw+OvHd08h2hflCOERP3wy4lRSd8BA55c7A6tAaels2wNZGYtCQi+Bkyi1KJs5uVqmKWqvJZqlgZcrvUHflcD5mdIlYZ/CpVmqfRRFae3DdC6YG/K29lP+kiI+r0zazGH5MujvlaqhjFg6jd0vqHaY2wuvtlKyyTAgCFXvf3U7lUW1P1tnwHf3Txl3/30hU0udofOgKdXEhOarw+anO2MlQLN2Fw4Aya2bE3Jlbe1Kw+sWRqwmPp0NWB+jXC5GXYGLOsjVxGgdQZMqfrpFf/zLdeStiSeah3dNIVPvFAGzF/DUBkJSh37todL+0LDr6mljv0M+O2nNrv+4Jy9/dQeSgMWg4FomjYGQrMt8cN/h08K2sWQVClyVWAYhhQ0rxApY9GAQm1K2jtJ3yBmyhOvfZrJmd7A8Mflw5tekY8J1/5H/YL/OUR76NaSXdoXBgyRHm8fs5uPuiyKIjsDvvkoMd1hNGB+ww7tELYZcGmDzHcGTJtrKMW2/t5+U5J4fLQ5xDXAXLYBi5uwbGf8YqButROea0AVN2H5zjCpr+lmW6a8h6/iY6QbNt/j4zeuEU+V5rW9IQoxA+b7SIiMBDF0N0O25wsDhqKofxIbRRYGvPr6iI0vsAHdepL/Kh42Kei0RxCyNGAKDvQYEgVZH57sE+J8QxlwiMeQ6Hj4QO0TUPlHfEI8pjI2F3PS1i5tecvN5Ph8bzhouSPUmrJJP7FtD+ojsn0MtjxqW1XWyvV8YcBQFEXszrMzqY+mTWaljyENwwzYVkV5kB888MArLg8aHTntgo4iGDB44IEH3mXwoNGRswEXSXkfcOCBBx54MGBIJhhwwQYweOCBV1weBPGCAf+m9TeH4IEHHniXyoMgXoU34NavbTb14xd2o9p11u2nZ+CBBx54l86DIF6FN2AIgiAIKqJgwBAEQRCUgQpvwOtvDtnX3194rc98c/8cPPDAA+/SeRDEq/AGnPddj+CBBx542AUNyQQDLtgABg888IrLgyBeMOCCDWDwwAOvuDwI4jV0Blyqxi+VFyvszKz1v4TdtPydikea3bArxqDi8cUYbIoTpPFcih2oeOVaXIax1bYrxqDihSjGoGO48NIKdtjyZB8V0zTg8wUjQhhIWsEOFx71leNO2GIMIdojdPvqYoOMB0G8hs6Aqdi2WAu30kgfJKoBp+LRAKQA4cMrVeOARQFB9l02PAqAxNvaHSyJZ3u+9LOtAat4YjlC2/KLY3P9JSb50nquAVUsR+hb/o5XuTZYAtOWR+1aaei/z9SQTGrj2p7vzn4YA261+0uI+tZ73jtJeJWGf3ukxQYVD4J49RmwWEYp64MzkWqAiCXCdCXDdANOVfDedgYs41F9V/rd1u5gkLXhlWv9peVmN8wNWHe9QpUj5GvZzqyZZyR4idfdtz4uH0hnN/wDPq/lpn+5v+WmPtDb8GTX3fd85+vxcYYoR8j/+0ojHhc+PP7a0c1ziPZFOUKI9Hj7uM9DJxe7qX/fM+DV10faP86jbAw4LZ1layAza0lA8DVgEqUWZTMvV8MsVeW1VLM04HKtP/C7GjA/Q6o0/FOoNEulT1odX5sArQv2pryd/aSPhKjfO7MWc0i+POprpWoYA6Z+Q+cbqj3G5uKbrbRMAgwYctGdZ2fs1hPzN5/1DPjx9vFQG/D0SmJC8/VBk7OdsVKgGZsLZ8DElq0pufK2duWBNUsDFlOfrgbMrxEuN8POgGV95CoCtM6AKVU/veJ/vuVa0pbEU62jm6bwiRfKgPlrGCojQalj3/ZwaV9ouHXriYcBX7t30dPdzdPMT8ZENjNW/veiadoYCM22xA//HT4paBdDUqXIVYFhGFLQvEKkjEUDCrUpae8kfYOYKU+89mkmZ3oDwx+XD296RT4mXPsf9Qv+5xDtoVtLdmlfGDBEuvXkjE1ULtj4AmMTlQu2+jq93XsGXH93yB5vH7MoitPR1+5dsLef2pmfkE6mAZ/fsEM7hG0GXNog850B0+YaSrGtv7fflCQeH20OcQ0wl23A4iYs2xm/GKhb7YTnGlDFTVi+M0zqa7rZlinv4av4GOmGzff4+I1rxFOleW1viELMgPk+EiIjQQzdzZDt+cKAIdLq66Oe6d7dPGXXH6S/Ba1vDZg33MnFbs+Q8yybFHTaIwhZGjAFB3oMiYKsD0/2CXG+oQw4xGNIdDx8oPYJqPwjPiEeUxmbizlpa5e2vOVmcny+Nxy03BFqTdmkn9i2B/UR2T4GWx61rSpr5Xq+MGCIJHqmbjNzz4BvPTljU0sdFkXJDLj+Lv81LPP+4D144IEHHgx4NDS52O0t397dPGUTlYvUv+8Z8NtPbXbzUZeNL7ChWAPOy4ADDzzwwIMBj4ZWXx+x6w/O7deAi6q8DzjwwAMPPBgwJBMMuGADGDzwwCsuD4J4wYB/0/qbQ/DAAw+8S+VBEK/CG3Dr1zab+vELu1HtOuv20zPwwAMPvEvnQRCvwhswBEEQBBVRMGAIgiAIykCFN+D1N4fs6+8vvNZnvrl/Dh544IF36TwI4lV4A877rkfwwAMPPOyChmSCARdsAIMHHnjF5UEQLxhwwQYweOCBV1weBPEaOgMuVeOXyosVdmbW+l/Cblr+TsUjzW7YFWNQ8fhiDDbFCdJ4LsUOVLxyLS7D2GrbFWNQ8UIUY9AxXHhpBTtsebKPimka8PmCESEMJK1ghwuP+spxJ2wxhhDtEbp9dbFBxoMgXkNnwFRsW6yFW2mkDxLVgFPxaABSgPDhlapxwKKAIPsuGx4FQOJt7Q6WxLM9X/rZ1oBVPLEcoW35xbG5/hKTfGk914AqliP0LX/Hq1wbLIFpy6N2rTT032dqSCa1cW3Pd2c/jAG32v0lRH3rPe+dJLxKw7890mKDigdBvPoMePX1EZtc7GpLKOVJqgEilgjTlQzTDThVwXvbGbCMR/Vd6Xdbu4NB1oZXrvWXlpvdMDdg3fUKVY6Qr2U7s2aekeAlXnff+rh8IJ3d8A/4vJab/uX+lpv6QG/Dk1133/Odr8fHGaIcIf/vK414XPjw+GtHN88h2hflCCFeP/xywiYqF2xysav9254B198dsmv3LtidZ8V6a4uNAaels2wNZGYtCQi+Bkyi1KJs5uVqmKWqvJZqlgZcrvUHflcD5mdIlYZ/CpVmqfRJq+NrE6B1wd6Ut7Of9JEQ9Xtn1mIOyZdHfa1UDWPA1G/ofEO1x9hcfLOVlkmAAUMu+uGXE3bt3sVAXWCVegb83U9f2K0nxTLfKDI3kOmVxITm64MmZztjpUAzNhfOgIktW1Ny5W3tygNrlgYspj5dDZhfI1xuhp0By/rIVQRonQFTqn56xf98y7WkLYmnWkc3TeETL5QB89cwVEaCUse+7eHSvtBw6/qDc2PzjSLOgCcXu7308zDUA5bNWPnfi6ZpYyA02xI//Hf4pKBdDEmVIlcFhmFIQfMKkTIWDSjUpqS9k/QNYqY88dqnmZzpDQx/XD686RX5mHDtf9Qv+J9DtIduLdmlfWHAEGl8gfV81Koe8ORil3330xcWRfFa8LV7F5mfjIlMAz6/YYd2CNsMuLRB5jsDps01lGJbf2+/KUk8Ptoc4hpgLtuAxU1YtjN+MVC32gnPNaCKm7B8Z5jU13SzLVPew1fxMdINm+/x8RvXiKdK89reEIWYAfN9JERGghi6myHb84UBQ6TxBcZ++OWERVHE7jw7Yzcfpa8D9xkwP3UWf86rbFLQaY8gZGnAFBzoMSQKsj482SfE+YYy4BCPIdHx8IHaJ6Dyj/iEeExlbC7mpK1d2vKWm8nx+d5w0HJHqDVlk35i2x7UR2T7GGx51LaqrJXr+cKAIZK4gVm3oblnwLeexG799lN7KGbAtirKg/zggQdecXnQcGtysdvbS2U1A46ieCMW5a5pGp135X3AgQceeODBgEdDbz+1e2vAk4td8zXgoirvAw488MADDwYMyQQDLtgABg888IrLgyBeMODftP7mEDzwwAPvUnkQxKvwBtz6tc2mfvzCblS7zrr99Aw88MAD79J5EMSr8AYMQRAEQUUUDBiCIAiCMhAMWND6m0P29fcXXus939w/Bw888MAbeR6ULhiwoLzvogQPPPDAKwoPShcMWFDeOzR44IEHXlF4ULpgwILy3qHBAw888IrCg9IFAxYkdsBSNX5JPV8pZ2Zt8KXuYmUaVYeW8UizG/HL52Xl0mx54jGalvtLOz46RpviEyoeX3zCphhDGs+luIOKV67FZSdbbbviEypeiOITOoYLL61AiS1P9lExTQM+XyDDJODreGkFSlx41FeOO2GLT4Roj9Dtq4sNMh6ULhiwILEDUvHutNq6spJzqg6t4lH5O9vqLCpepZE+SGx5NAApQPjwStX4XCkgyL7LhkcBkHhbu/7tQT/bGrCKJ5ZftC03OTbXX1KTLyXoGlDF8ou+5f54lWuDJT9tedSulYb++0wNyaQWsO357uyHMeBWu79kqm99672ThFdp+LeHSSwUeVC6egY8vsAGpHuR9DBK1QHTSo612oMl53QdWuSpAr0rT1cizZY3NhcPPNsZsIxH9Wzpd1u7g0HWhleu9ZfSm90wN2Dd9QpVfpHPkMysmWckeInX3bceMB9IZzf8Az6v5aZ/ecPlpj7Q2/Bk1933fOfr8XGGKL/I//tKIx4XPjz+2tHNc4j2RflFuR5vHw94qK6qoHQGXH93yCYqxShHGFq2AXpmTT5QbAM0pRVV6SIXA05LZ9ny+PP0NWASna9s5uVqmKWqvHZslgZcrvUHflcD5mdIlYZ/CpVmqfRJq1tsE6B1wd6Ut7Of9JEQ9Ypn1mIOyZdHfa1UDWPA1G/ofEO1x9hcfLOVlkmAAYfX3c1TNrXUSf0bqQF/99MXdnfzNPMTyEJZzZAYS1KUsrtfW970SmJC8/VBk7OdsVKgoWP1PV8+iMnWlFx5W7vywJqlAYupT1cD5tcIl5thZ8CyPmLL011LW97OfpKqn17xP99yLWlL4qnW0U1T+MQLZcD8NQyVkaDUsW97uLTvKOv6g3NWf5f+DvABA377qT2ys98osgvQ5Zo6aLkYMP978WeXGWsoHs22xA//HT4paBdDUqXIVYFhGFLQvEKkjEUDCrUpae8kfYOYKU+89mkmZ3oDwx+XD296RT4mXPsf9Qv+5xDtoVtLdmlfGLBej7eP2c1HXe3fDRjwrSdn7NaT0X15uG3AV6WxbAP0zn6/4fnOgPkNO7RD2IenCwy2KVk+xbb+3n5Tknh8tDnENcBctgGLm7BsZ/y8ZtbiGz/iuQZUcROW7wyT+pputmXKe/gqPka6YfM9Pn7jGoxbv4YAAAgHSURBVPFUaV7bG6IQM2C+j4TISBBDdzNke74wYL0mF7vs8fax9u8GDHiicsHefmpnfgJZyTSg+u7yFHm0jkRrwb5rmLpHELI0YAoO9BgSBVkfnuwT4nxDGXCIx5DoePhA7RNQ+Ud8QjymMjYXc9LWLm15y83k+HxvOGi5g9ZYfdeATfqJbXtQH5HtY7DlUduqslau5wsDTlf93SG7/sDsdZx9BmyyaDzsMh1woQIMeOCBB96w8kZRU0sd4z1UfQY8UbnQLhoPu/LeocEDDzzwisIbNdk+QYQXcQjKe4cGDzzwwCsKD0oXDFhQ3js0eOCBB15ReFC6YMCCQnXA9TeH4IEHHngjzYPSBQMW1Pq1zaZ+/MJuVLvOuv30DDzwwANv5HlQumDAEARBEJSBYMAQBEEQlIGu3IDX3xyyr7+/8Fpf+Ob+eWF4Hz9+ZKurq+znn3921t/+9jfwAvHy3l/AAw+8q+NlrSs34Lzv2gvN297e9jIP0rt378ALwMt7fwEPPPCujpe1YMCXzMu7IY0aL+/9BTzwwLs6XtaCAV8yL++GNGq8vPcX8MAD7+p4WStzA1YVDSjX4qpArbbdy/BVPNeX4Zeq8UvbxQo2fDEBsZIPzxMNZHNzk7VaLdZut9nu7m7v/7daLdbpxMCjoyO2ublpZEgy3suXLwdewn5+fu7MIzWbTdbpdNjR0ZGxYap44jGKTJfjo2NkjBkbsEn7huovIfuf6/hQ8UIUi9AxXHhpBUVsebKPimka8PmCFiEMRPz48qivHHfCFosI0R6h21fVt9N4WStzA947SaqSVBpJhSGq7WobYFQ8sRycafk7KmbN15otVZMOQxVWxMoqKgP+8OEDOzg4YAcHB30Gcn5+zl6+fMl+/vlntre3x/b29owMScXj1Wq12MHBgRev2Wz2HaOpAat4Hz58UB6v6/lubm72bmJMDVjVvsedJCDI6gzb9BcKgMTb2h0s2WfD8xkfKp7r+ODFl8DkS/+5BlSxXKJveT5evtXM+HatNPTfZ2pIJrV7bc93Zz+MAbfa/SVOfetRq2K1K0/Vt9N4WatnwKuvj9j1B+dsfIGxicoFW319OQcoXkCxJJ/YCLbl4FQ834LofAku8d/PrKnr96pSqLu7u30G0ul0+gxYNBddSlbk8To9PWXPnz/34p2enirN14WXdryu53twcGA9A5a1L9Wfpd9t7Q4GWZv+Uq7136DNbpgbsIznMz5UPN/xMTY3OGPzrd/LB9LZDf+Az2u56V+OcLmpD/Q2PNl19z3f+Xp8nCHKJfL/Xlaz3Jani/2u7ZtlucS7m6dsonLBxhcYm1zsakv79gz45qMuu/UkfoPJD7+cGNcz9DVgccCJgc41wPC8cm3QMH0MmJ8hlarx96h4pgbCp2Q7nU4QQyJuu9325lGamI7vxYsX3gZMs9UQPP48fQ2Y73uMyWderoZZqsprvWZpwCHGx9hc/wyp0vBPodIslT5pdYZtArQu2JvydvaTPhKivvDMWswh+fKor1GtcV8Dpn5D5xuqPcbm5LHflZelAV+7d8Eebx+zKIrYdz99Yd/99MXMgKeWOn0GPLnYvVIDpvSBrJO7BBieJ6Z2fA14bC5ZIzzuxN8TcgZ8cHBgnILWGfDR0ZF05upiwM1mk/38c5wGFk3dlvfixYue6bZaLXZ6eurM29zcZKenp71181AGTEFMtqbkapiy5QofXggDDjE+iEOGudwMOwOer4dLQdsEaJ0BU6p+esX/fMu1pC2Jp1pHN03hEy+UAfPXMFRGQhX7r6J9Q2ui0m/A5KlaA6Y6huMLjI0vsEurCyy7gGnrCS4BRsYLmYIWJUtF2Rjwixcv+gzo5cuXxpuS0gz4+fPnA8bmY8D878WfXWasoXgfPnyQbrDhv8MnBR2qv6StTQ1DCppXiJSxaEChNiXtnaRvEDPlidc+zeRMb2D44/LhTa9Ih4Rz/6N+wf8coj10a8ku7ZulAT/ePu55qEldYOkM+O7m6ZWloOnOVjUgbAOMiiduMgk1o6HdrWI6xnYGfC5swvKdYdJMutVqBTHgo6OjPsPzPb6jo6PesdEOcN/zVZm5rQHT5hpq0/X39puSxP5Cm0NcA8xlG7Dv+BADdaud8FwDqrgJy3eGSeNVN9sy5T18FR8j3bD5Hh+/cY14qjSv7Q1RiBkw30dCZCR0sd/1fPMyA55a6pinoK/du+hbMB5fYFdiwLSGwn9M7ipVDaLi+T5mIWtUYsm2z9saMD3iw5jdY0gq3vPnz6Vrya68zc3N3hrw0dGR95otzfoZC7MGHNKAKTjQY0gUZH36i+zj2/9cxoeKF+IxJDoePlD7BFT+EZ8Qj6mMzclvln14y83k+HxvOGi5g7Ewa8Am/cS2PaiPyPYx2PJ0sd/1fLMyYNrITD8/3j7WLuUqN2Fdu6efPocwYFfZdsCseHl/McWo8fLeX8ADD7yr44WWuAnr5iNDA159fcQmF7tX/hhS3hoEBjzcvLz3F/DAA+/qeKH1wy8nbo8hXZXy3iAw4OHm5b2/gAceeFfHy1ow4Evm5d2QRo2X9/4CHnjgXR0vaxXWgNffHBaCF8pAPn78CF4AXt77C3jggXd1vKx15Qbc+rXNpn78wm5Uu866/fSsMLx//OMfrF6vs42NDWdtb2+DF4iX9/4CHnjgXR0va125AUMQBEEQBAOGIAiCoEwEA4YgCIKgDAQDhiAIgqAMBAOGIAiCoAwEA4YgCIKgDPT/Ns2M16H0S+YAAAAASUVORK5CYII=;" parent="1" vertex="1">
          <mxGeometry x="1276" y="2090" width="480" height="173" as="geometry" />
        </mxCell>
        <mxCell id="Lpt5Mu2my_b8LAYJmYxF-267" value="" style="line;strokeWidth=2;html=1;fillColor=none;align=left;verticalAlign=top;" parent="1" vertex="1">
          <mxGeometry x="1336" y="2060" width="360" height="10" as="geometry" />
        </mxCell>
        <mxCell id="Lpt5Mu2my_b8LAYJmYxF-268" value="Leinwand" style="text;html=1;strokeColor=none;fillColor=none;align=center;verticalAlign=middle;whiteSpace=wrap;rounded=0;" parent="1" vertex="1">
          <mxGeometry x="1496" y="2040" width="40" height="20" as="geometry" />
        </mxCell>
        <mxCell id="Lpt5Mu2my_b8LAYJmYxF-66" value="&lt;div style=&quot;font-size: 14px&quot;&gt;17:30&lt;/div&gt;&lt;div style=&quot;font-size: 14px&quot;&gt;&lt;font style=&quot;font-size: 14px&quot;&gt;3D&lt;br&gt;&lt;/font&gt;&lt;/div&gt;" style="rounded=1;html=1;shadow=0;dashed=0;whiteSpace=wrap;fontSize=10;fillColor=#cce5ff;align=center;strokeColor=#36393d;" parent="1" vertex="1">
          <mxGeometry x="855" y="1420" width="152.5" height="60" as="geometry" />
        </mxCell>
        <mxCell id="Lpt5Mu2my_b8LAYJmYxF-68" value="&lt;div style=&quot;font-size: 14px&quot;&gt;21:00&lt;/div&gt;&lt;div style=&quot;font-size: 14px&quot;&gt;&lt;font style=&quot;font-size: 14px&quot;&gt;3D&lt;/font&gt;&lt;/div&gt;&lt;div style=&quot;font-size: 14px&quot;&gt;&lt;font style=&quot;font-size: 14px&quot;&gt;Originalvertonung&lt;br&gt;&lt;/font&gt;&lt;/div&gt;" style="rounded=1;html=1;shadow=0;dashed=0;whiteSpace=wrap;fontSize=10;fillColor=#cce5ff;align=center;strokeColor=#36393d;" parent="1" vertex="1">
          <mxGeometry x="685" y="1500" width="152.5" height="60" as="geometry" />
        </mxCell>
        <mxCell id="Lpt5Mu2my_b8LAYJmYxF-272" value="&lt;div style=&quot;font-size: 15px&quot;&gt;&lt;b&gt;Shrek&lt;/b&gt;&lt;/div&gt;&lt;div&gt;12:00&lt;span style=&quot;white-space: pre&quot;&gt;&lt;/span&gt;&lt;span style=&quot;white-space: pre&quot;&gt;	&lt;/span&gt;Kino 3&lt;span style=&quot;white-space: pre&quot;&gt;	&lt;/span&gt;2D&lt;/div&gt;&lt;div&gt;&lt;br&gt;&lt;/div&gt;&lt;div style=&quot;font-size: 20px&quot;&gt;&lt;b&gt;2 Sitze&lt;span style=&quot;white-space: pre&quot;&gt;	&lt;/span&gt;16 €&lt;/b&gt;&lt;br&gt;&lt;/div&gt;" style="text;html=1;strokeColor=none;fillColor=none;align=left;verticalAlign=top;whiteSpace=wrap;rounded=0;" parent="1" vertex="1">
          <mxGeometry x="1271" y="1950" width="290" height="100" as="geometry" />
        </mxCell>
        <mxCell id="Lpt5Mu2my_b8LAYJmYxF-274" value="&lt;font style=&quot;font-size: 18px&quot;&gt;Buchen&lt;/font&gt;" style="rounded=1;html=1;shadow=0;dashed=0;whiteSpace=wrap;fontSize=10;fillColor=#cce5ff;align=center;strokeColor=#36393d;" parent="1" vertex="1">
          <mxGeometry x="1603.5" y="1970" width="152.5" height="50" as="geometry" />
        </mxCell>
        <mxCell id="K1axlJIXEC6P-MiM49ua-30" value="&lt;div style=&quot;font-size: 14px&quot;&gt;17:30&lt;/div&gt;&lt;div style=&quot;font-size: 14px&quot;&gt;&lt;font style=&quot;font-size: 14px&quot;&gt;3D&lt;br&gt;&lt;/font&gt;&lt;/div&gt;" style="rounded=1;html=1;shadow=0;dashed=0;whiteSpace=wrap;fontSize=10;fillColor=#cce5ff;align=center;strokeColor=#36393d;" vertex="1" parent="1">
          <mxGeometry x="855" y="2220" width="152.5" height="60" as="geometry" />
        </mxCell>
        <mxCell id="K1axlJIXEC6P-MiM49ua-53" value="" style="strokeWidth=1;shadow=0;dashed=0;align=center;html=1;shape=mxgraph.mockup.containers.browserWindow;rSize=0;strokeColor=#666666;strokeColor2=#008cff;strokeColor3=#c4c4c4;mainText=,;recursiveResize=0;" vertex="1" parent="1">
          <mxGeometry x="40" y="2520" width="1080" height="760" as="geometry" />
        </mxCell>
        <mxCell id="K1axlJIXEC6P-MiM49ua-54" value="&lt;div style=&quot;font-size: 14px&quot;&gt;12:00&lt;/div&gt;&lt;div style=&quot;font-size: 14px&quot;&gt;&lt;font style=&quot;font-size: 14px&quot;&gt;2D&lt;br&gt;&lt;/font&gt;&lt;/div&gt;" style="rounded=1;html=1;shadow=0;dashed=0;whiteSpace=wrap;fontSize=10;fillColor=#cce5ff;align=center;strokeColor=#36393d;" vertex="1" parent="K1axlJIXEC6P-MiM49ua-53">
          <mxGeometry x="472.5" y="420" width="152.5" height="60" as="geometry" />
        </mxCell>
        <mxCell id="K1axlJIXEC6P-MiM49ua-55" value="&lt;div style=&quot;font-size: 14px&quot;&gt;13:00&lt;/div&gt;&lt;div style=&quot;font-size: 14px&quot;&gt;&lt;font style=&quot;font-size: 14px&quot;&gt;3D&lt;br&gt;&lt;/font&gt;&lt;/div&gt;" style="rounded=1;html=1;shadow=0;dashed=0;whiteSpace=wrap;fontSize=10;fillColor=#cce5ff;align=center;strokeColor=#36393d;" vertex="1" parent="K1axlJIXEC6P-MiM49ua-53">
          <mxGeometry x="642.5" y="420" width="152.5" height="60" as="geometry" />
        </mxCell>
        <mxCell id="K1axlJIXEC6P-MiM49ua-56" value="&lt;div style=&quot;font-size: 14px&quot;&gt;14:30&lt;/div&gt;&lt;div style=&quot;font-size: 14px&quot;&gt;&lt;font style=&quot;font-size: 14px&quot;&gt;2D&lt;br&gt;&lt;/font&gt;&lt;/div&gt;" style="rounded=1;html=1;shadow=0;dashed=0;whiteSpace=wrap;fontSize=10;fillColor=#cce5ff;align=center;strokeColor=#36393d;" vertex="1" parent="K1axlJIXEC6P-MiM49ua-53">
          <mxGeometry x="815" y="420" width="152.5" height="60" as="geometry" />
        </mxCell>
        <mxCell id="K1axlJIXEC6P-MiM49ua-57" value="&lt;div style=&quot;font-size: 14px&quot;&gt;14:30&lt;/div&gt;&lt;div style=&quot;font-size: 14px&quot;&gt;&lt;font style=&quot;font-size: 14px&quot;&gt;3D&lt;/font&gt;&lt;/div&gt;&lt;div style=&quot;font-size: 14px&quot;&gt;&lt;font style=&quot;font-size: 14px&quot;&gt;50 FPS&lt;br&gt;&lt;/font&gt;&lt;/div&gt;" style="rounded=1;html=1;shadow=0;dashed=0;whiteSpace=wrap;fontSize=10;fillColor=#cce5ff;align=center;strokeColor=#36393d;" vertex="1" parent="K1axlJIXEC6P-MiM49ua-53">
          <mxGeometry x="472.5" y="500" width="152.5" height="60" as="geometry" />
        </mxCell>
        <mxCell id="K1axlJIXEC6P-MiM49ua-58" value="&lt;div style=&quot;font-size: 14px&quot;&gt;17:00&lt;/div&gt;&lt;div style=&quot;font-size: 14px&quot;&gt;&lt;font style=&quot;font-size: 14px&quot;&gt;2D&lt;br&gt;&lt;/font&gt;&lt;/div&gt;" style="rounded=1;html=1;shadow=0;dashed=0;whiteSpace=wrap;fontSize=10;fillColor=#cce5ff;align=center;strokeColor=#36393d;" vertex="1" parent="K1axlJIXEC6P-MiM49ua-53">
          <mxGeometry x="642.5" y="500" width="152.5" height="60" as="geometry" />
        </mxCell>
        <mxCell id="K1axlJIXEC6P-MiM49ua-59" value="&lt;div style=&quot;font-size: 14px&quot;&gt;19:00&lt;/div&gt;&lt;div style=&quot;font-size: 14px&quot;&gt;&lt;font style=&quot;font-size: 14px&quot;&gt;2D&lt;br&gt;&lt;/font&gt;&lt;/div&gt;" style="rounded=1;html=1;shadow=0;dashed=0;whiteSpace=wrap;fontSize=10;fillColor=#cce5ff;align=center;strokeColor=#36393d;" vertex="1" parent="K1axlJIXEC6P-MiM49ua-53">
          <mxGeometry x="472.5" y="580" width="152.5" height="60" as="geometry" />
        </mxCell>
        <mxCell id="K1axlJIXEC6P-MiM49ua-60" value="mycinema" style="strokeWidth=1;shadow=0;dashed=0;align=center;html=1;shape=mxgraph.mockup.containers.anchor;fontSize=17;fontColor=#666666;align=left;" vertex="1" parent="K1axlJIXEC6P-MiM49ua-53">
          <mxGeometry x="60" y="12" width="110" height="26" as="geometry" />
        </mxCell>
        <mxCell id="K1axlJIXEC6P-MiM49ua-61" value="https://www.mycinema.de" style="strokeWidth=1;shadow=0;dashed=0;align=center;html=1;shape=mxgraph.mockup.containers.anchor;rSize=0;fontSize=17;fontColor=#666666;align=left;" vertex="1" parent="K1axlJIXEC6P-MiM49ua-53">
          <mxGeometry x="130" y="60" width="250" height="26" as="geometry" />
        </mxCell>
        <mxCell id="K1axlJIXEC6P-MiM49ua-62" value="" style="shape=image;verticalLabelPosition=bottom;labelBackgroundColor=#ffffff;verticalAlign=top;imageAspect=0;image=https://images-na.ssl-images-amazon.com/images/I/51TXaigVBHL._AC_.jpg;" vertex="1" parent="K1axlJIXEC6P-MiM49ua-53">
          <mxGeometry x="112.5" y="200" width="326.12" height="470" as="geometry" />
        </mxCell>
        <mxCell id="K1axlJIXEC6P-MiM49ua-63" value="" style="verticalLabelPosition=bottom;shadow=0;dashed=0;align=center;html=1;verticalAlign=top;strokeWidth=1;shape=mxgraph.mockup.navigation.scrollBar;strokeColor=#999999;barPos=100;fillColor2=#99ddff;strokeColor2=none;direction=north;" vertex="1" parent="K1axlJIXEC6P-MiM49ua-53">
          <mxGeometry x="1060" y="230" width="20" height="470" as="geometry" />
        </mxCell>
        <mxCell id="K1axlJIXEC6P-MiM49ua-64" value="Impressum/Kontakt" style="rounded=0;whiteSpace=wrap;html=1;" vertex="1" parent="K1axlJIXEC6P-MiM49ua-53">
          <mxGeometry y="700" width="1080" height="60" as="geometry" />
        </mxCell>
        <mxCell id="K1axlJIXEC6P-MiM49ua-65" value="&lt;div&gt;&lt;font size=&quot;1&quot;&gt;&lt;b&gt;&lt;font style=&quot;font-size: 26px&quot;&gt;Shrek&lt;/font&gt;&lt;/b&gt;&lt;/font&gt;&lt;/div&gt;&lt;div style=&quot;font-size: 14px&quot;&gt;90 min&lt;span style=&quot;white-space: pre&quot;&gt;	&lt;/span&gt;FSK 6&lt;/div&gt;&lt;div&gt;&lt;br&gt;&lt;/div&gt;&lt;div&gt;Das ist ein sehr toller Film und so. Die ganze Familie hat Spaß.&lt;br&gt;&lt;/div&gt;" style="text;html=1;strokeColor=none;fillColor=none;align=left;verticalAlign=top;whiteSpace=wrap;rounded=0;horizontal=1;" vertex="1" parent="K1axlJIXEC6P-MiM49ua-53">
          <mxGeometry x="480" y="200" width="482.5" height="90" as="geometry" />
        </mxCell>
        <mxCell id="K1axlJIXEC6P-MiM49ua-66" value="" style="rounded=0;whiteSpace=wrap;html=1;fillColor=none;" vertex="1" parent="K1axlJIXEC6P-MiM49ua-53">
          <mxGeometry y="110" width="1080" height="60" as="geometry" />
        </mxCell>
        <mxCell id="K1axlJIXEC6P-MiM49ua-67" value="" style="verticalLabelPosition=bottom;shadow=0;dashed=0;align=center;html=1;verticalAlign=top;strokeWidth=1;shape=mxgraph.mockup.containers.userMale;strokeColor=#666666;strokeColor2=#008cff;" vertex="1" parent="K1axlJIXEC6P-MiM49ua-53">
          <mxGeometry x="899.74" y="119.87" width="40.26" height="40.26" as="geometry" />
        </mxCell>
        <mxCell id="K1axlJIXEC6P-MiM49ua-68" value="Programm" style="rounded=1;html=1;shadow=0;dashed=0;whiteSpace=wrap;fontSize=10;fillColor=#cce5ff;align=center;strokeColor=#36393d;" vertex="1" parent="K1axlJIXEC6P-MiM49ua-53">
          <mxGeometry x="297.5" y="120" width="110" height="40" as="geometry" />
        </mxCell>
        <mxCell id="K1axlJIXEC6P-MiM49ua-69" value="Events" style="rounded=1;html=1;shadow=0;dashed=0;whiteSpace=wrap;fontSize=10;fillColor=#cce5ff;align=center;strokeColor=#36393d;" vertex="1" parent="K1axlJIXEC6P-MiM49ua-53">
          <mxGeometry x="421" y="120" width="110" height="40" as="geometry" />
        </mxCell>
        <mxCell id="K1axlJIXEC6P-MiM49ua-70" value="Preisübersicht" style="rounded=1;html=1;shadow=0;dashed=0;whiteSpace=wrap;fontSize=10;fillColor=#cce5ff;align=center;strokeColor=#36393d;" vertex="1" parent="K1axlJIXEC6P-MiM49ua-53">
          <mxGeometry x="547.5" y="120.13000000000011" width="110" height="40" as="geometry" />
        </mxCell>
        <mxCell id="K1axlJIXEC6P-MiM49ua-71" value="News" style="rounded=1;html=1;shadow=0;dashed=0;whiteSpace=wrap;fontSize=10;fillColor=#cce5ff;align=center;strokeColor=#36393d;" vertex="1" parent="K1axlJIXEC6P-MiM49ua-53">
          <mxGeometry x="672.5" y="120.13000000000011" width="110" height="40" as="geometry" />
        </mxCell>
        <mxCell id="K1axlJIXEC6P-MiM49ua-72" value="" style="html=1;verticalLabelPosition=bottom;align=center;labelBackgroundColor=#ffffff;verticalAlign=top;strokeWidth=2;strokeColor=#0080F0;shadow=0;dashed=0;shape=mxgraph.ios7.icons.home;fillColor=none;" vertex="1" parent="K1axlJIXEC6P-MiM49ua-53">
          <mxGeometry x="140" y="120" width="40" height="40" as="geometry" />
        </mxCell>
        <mxCell id="K1axlJIXEC6P-MiM49ua-73" value="&lt;div&gt;&lt;font size=&quot;1&quot;&gt;&lt;b style=&quot;font-size: 15px&quot;&gt;Besetzung&lt;/b&gt;&lt;/font&gt;&lt;/div&gt;&lt;div&gt;&lt;b&gt;&lt;br&gt;&lt;/b&gt;&lt;/div&gt;&lt;div&gt;Sven Schauspieler&lt;br&gt;&lt;/div&gt;&lt;div&gt;Alice Actress&lt;br&gt;&lt;/div&gt;&lt;div&gt;Monika Model&lt;br&gt;&lt;b&gt;&lt;/b&gt;&lt;/div&gt;" style="text;html=1;strokeColor=none;fillColor=none;align=center;verticalAlign=top;whiteSpace=wrap;rounded=0;" vertex="1" parent="K1axlJIXEC6P-MiM49ua-53">
          <mxGeometry x="837.5" y="200" width="130" height="90" as="geometry" />
        </mxCell>
        <mxCell id="K1axlJIXEC6P-MiM49ua-74" value="&lt;div style=&quot;font-size: 20px&quot; align=&quot;left&quot;&gt;&lt;font style=&quot;font-size: 20px&quot;&gt;&lt;b&gt;Vorstellungen:&lt;/b&gt;&lt;/font&gt;&lt;/div&gt;" style="text;html=1;strokeColor=none;fillColor=none;align=left;verticalAlign=middle;whiteSpace=wrap;rounded=0;" vertex="1" parent="K1axlJIXEC6P-MiM49ua-53">
          <mxGeometry x="472.5" y="360" width="82.5" height="20" as="geometry" />
        </mxCell>
        <mxCell id="K1axlJIXEC6P-MiM49ua-75" value="Heute 07.07.2021" style="text;html=1;strokeColor=none;fillColor=none;align=left;verticalAlign=middle;whiteSpace=wrap;rounded=0;" vertex="1" parent="K1axlJIXEC6P-MiM49ua-53">
          <mxGeometry x="472.5" y="390" width="100" height="20" as="geometry" />
        </mxCell>
        <mxCell id="K1axlJIXEC6P-MiM49ua-76" value="&lt;div style=&quot;font-size: 14px&quot;&gt;17:30&lt;/div&gt;&lt;div style=&quot;font-size: 14px&quot;&gt;&lt;font style=&quot;font-size: 14px&quot;&gt;3D&lt;br&gt;&lt;/font&gt;&lt;/div&gt;" style="rounded=1;html=1;shadow=0;dashed=0;whiteSpace=wrap;fontSize=10;fillColor=#cce5ff;align=center;strokeColor=#36393d;" vertex="1" parent="1">
          <mxGeometry x="855" y="3020" width="152.5" height="60" as="geometry" />
        </mxCell>
        <mxCell id="K1axlJIXEC6P-MiM49ua-77" value="&lt;div style=&quot;font-size: 14px&quot;&gt;21:00&lt;/div&gt;&lt;div style=&quot;font-size: 14px&quot;&gt;&lt;font style=&quot;font-size: 14px&quot;&gt;3D&lt;/font&gt;&lt;/div&gt;&lt;div style=&quot;font-size: 14px&quot;&gt;&lt;font style=&quot;font-size: 14px&quot;&gt;Originalvertonung&lt;br&gt;&lt;/font&gt;&lt;/div&gt;" style="rounded=1;html=1;shadow=0;dashed=0;whiteSpace=wrap;fontSize=10;fillColor=#cce5ff;align=center;strokeColor=#36393d;" vertex="1" parent="1">
          <mxGeometry x="685" y="3100" width="152.5" height="60" as="geometry" />
        </mxCell>
        <mxCell id="K1axlJIXEC6P-MiM49ua-85" value="Sitzplan" style="strokeWidth=1;shadow=0;dashed=0;align=center;html=1;shape=mxgraph.mockup.containers.window;align=left;verticalAlign=top;spacingLeft=8;strokeColor2=#008cff;strokeColor3=#c4c4c4;fontColor=#666666;mainText=;fontSize=17;labelBackgroundColor=none;fillColor=none;" vertex="1" parent="1">
          <mxGeometry x="1240.5" y="2640" width="550" height="380" as="geometry" />
        </mxCell>
        <mxCell id="K1axlJIXEC6P-MiM49ua-89" value="&lt;div style=&quot;font-size: 15px&quot;&gt;&lt;b&gt;Shrek&lt;/b&gt;&lt;/div&gt;&lt;div&gt;12:00&lt;span style=&quot;white-space: pre&quot;&gt;&lt;/span&gt;&lt;span style=&quot;white-space: pre&quot;&gt;	&lt;/span&gt;Kino 3&lt;span style=&quot;white-space: pre&quot;&gt;	&lt;/span&gt;2D&lt;/div&gt;" style="text;html=1;strokeColor=none;fillColor=none;align=left;verticalAlign=top;whiteSpace=wrap;rounded=0;" vertex="1" parent="1">
          <mxGeometry x="1261" y="2680" width="290" height="50" as="geometry" />
        </mxCell>
        <mxCell id="K1axlJIXEC6P-MiM49ua-91" value="" style="whiteSpace=wrap;html=1;aspect=fixed;" vertex="1" parent="1">
          <mxGeometry x="1260" y="2800" width="150" height="150" as="geometry" />
        </mxCell>
        <mxCell id="K1axlJIXEC6P-MiM49ua-92" value="2 Sitzplätze&lt;br&gt;1 Nachos (groß)&lt;br&gt;1 Coca Cola (0,5)&lt;br&gt;&lt;br&gt;&lt;br&gt;&lt;br&gt;&lt;br&gt;&lt;br&gt;&lt;br&gt;&lt;br&gt;&lt;br&gt;&lt;br&gt;Gesamt" style="text;html=1;strokeColor=none;fillColor=none;align=left;verticalAlign=top;whiteSpace=wrap;rounded=0;" vertex="1" parent="1">
          <mxGeometry x="1260" y="2800" width="121" height="210" as="geometry" />
        </mxCell>
        <mxCell id="K1axlJIXEC6P-MiM49ua-94" value="&lt;font style=&quot;font-size: 12px&quot;&gt;Verpflegung hinzufügen&lt;/font&gt;" style="rounded=1;html=1;shadow=0;dashed=0;whiteSpace=wrap;fontSize=10;fillColor=#cce5ff;align=center;strokeColor=#36393d;" vertex="1" parent="1">
          <mxGeometry x="1261" y="2740" width="149" height="40" as="geometry" />
        </mxCell>
        <mxCell id="K1axlJIXEC6P-MiM49ua-95" value="16€&lt;br&gt;5€&lt;br&gt;4€&lt;br&gt;&lt;br&gt;&lt;br&gt;&lt;br&gt;&lt;br&gt;&lt;br&gt;&lt;br&gt;&lt;br&gt;&lt;br&gt;&lt;br&gt;25€" style="text;html=1;strokeColor=none;fillColor=none;align=left;verticalAlign=top;whiteSpace=wrap;rounded=0;" vertex="1" parent="1">
          <mxGeometry x="1381" y="2800" width="50" height="210" as="geometry" />
        </mxCell>
        <mxCell id="K1axlJIXEC6P-MiM49ua-99" value="" style="endArrow=none;html=1;exitX=0.345;exitY=0.08;exitDx=0;exitDy=0;exitPerimeter=0;entryX=0.345;entryY=1;entryDx=0;entryDy=0;entryPerimeter=0;" edge="1" parent="1" source="K1axlJIXEC6P-MiM49ua-85" target="K1axlJIXEC6P-MiM49ua-85">
          <mxGeometry width="50" height="50" relative="1" as="geometry">
            <mxPoint x="1496" y="2669.9999999999995" as="sourcePoint" />
            <mxPoint x="1433" y="3030" as="targetPoint" />
          </mxGeometry>
        </mxCell>
        <mxCell id="K1axlJIXEC6P-MiM49ua-100" value="&lt;h1&gt;Sollte der Kunde angemeldet sein, fehlen diese Knöpfe und werden durch die Kundeninformationen (Name, Adresse) ersetzt (falls diese gespeichert wurden). Dann sind auch die Zahlungsarten vorausgewählt.&lt;/h1&gt;" style="text;html=1;strokeColor=none;fillColor=none;spacing=5;spacingTop=-20;whiteSpace=wrap;overflow=hidden;rounded=0;align=left;verticalAlign=top;" vertex="1" parent="1">
          <mxGeometry x="1880" y="2730" width="450" height="230" as="geometry" />
        </mxCell>
        <mxCell id="K1axlJIXEC6P-MiM49ua-101" value="" style="shape=image;verticalLabelPosition=bottom;labelBackgroundColor=#ffffff;verticalAlign=top;aspect=fixed;imageAspect=0;image=data:image/png,iVBORw0KGgoAAAANSUhEUgAAAjgAAAFmCAYAAABgGeDsAAAgAElEQVR4Ae29DZxVV3nvP2lrbW+rbb3eW61tbfXWW6v2Rk/Ujm0sGpt/Y0v/ttD2ym1s0GrjGxpjNFdM1USNBONIYiRKhrwQSMibkJhOJEGFoBKIksGQAEkGBhgYyMDA8DIMTHju57dnnsOaPXvOy95n5rzMd30+e/Y+a6+XZ333s9f+nbXWPtN06tQpI0AAAhCAAAQgAIFGISBt09QojaEdEIAABCAAAQhAwAkgcJwEewhAAAIQgAAEGoYAAqdhLiUNgQAEIAABCEDACSBwnAR7CEAAAhCAAAQahgACp2EuJQ2BAAQgAAEIQMAJIHCcBHsIQAACEIAABBqGAAKnYS4lDYEABCAAAQhAwAkgcJwEewhAAAIQgAAEGoYAAqdhLiUNgQAEIAABCEDACSBwnAR7CEAAAhCAAAQahgACp2EuJQ2BAAQgAAEIQMAJIHCcBHsIQAACEIAABBqGAAKnYS4lDYEABCBQGQIDAwN28OBBO3DgQFU32SBbxgrYWd71aRSeY/lDPB6BEyfCZwhAAAKTmIBEw6FDh2xwcLDqFE6ePBnZkiRysLP8y1OM58NP7rVXXfG4NX1sQ1W3s+Y+YbIl6bqX0+qKC5wHnthnH1660d40Z7X97mdWRJuOFadzBAhAAAIQqF0C+pZfC+LGCemhLJviATvjREr7XIhnLYgbF1cSOUnXvbRWDqWqmMBp33XI/v5b6+wll36v4KY0SkuAAAQgAIHaI6BpqVoLSTYlxVXb7iSbkuJq1U4XF7Wyz8quIgJHIzMarSkmbvy80jKaU20Xp34IQAACowlkfaiMLjF7TJJNSXHZa8pWQpJNSXHZasmeO8kmxdWKsHE7kuwsp/WZBY5GY8oRN6HIYSSnnEtFWghAAALjTyDrQ2U8LEyyKSlurLoHO3fZkU990Xpf+3Z79nkvjzYdK07nOo8M2qd+eshee+8+e96tu6NNx4rTuVJDkk1JcWOVV8zOU4d32Yn1X7SB77zd+m96ebTpWHE6V2pIsklxLixqZZ9kZ6ltVLrMAqeUaSkXNfG98pYXemzZR3OW++gy6/GMR9utZVrOchcstY7S/dBzJ+/3LrNZuZzNWj5Uy8CGVrvwQy22pjc5uWLb5+Usl2ux9rGTcAYCEIBAzRPI+lAZjwYm2ZQUl1R3/4IlQ6Km6WX2bML2pX9ssddd85Q13dKVuD3v1i5b8NTRpKJHxSXZlBQ3KqOZFbPz6N+82E5c+SLrX/iy5O2ml9vgliVJRY+KS7JJcbUibNyOJDtHNaZARCaBo2mmuGgp93N5U1VxgdNnKz/TbLmzZ9myrgKtLPdUTOD03D/Lms+eZW17hwvqa7fWT86w2ffnZdY4CJwua7vsQpu+AMlU7uUjPQQgkJ5A1odK+prHzplkU1JcvIRINCSIGhc6X/qHr9nFl2yIttfNeyZR4LjwKUXkJNmUFFeunUfP+y2zf22KthNf/q1kgTMsfEoROUk2Kc6FRa3sk+yMsyv0OZPA0ZtR5QqaeHqVUXoYKXC6ls+y5tx0a9kw9u8klF52kDImcIIzQ4cJ5ys/gtNuLbmc5eYhcEbxJwICEBg3AkkPlTnXPGznf/Bue/GrvhJt19+0Pl//mkc6o7jXT/mmde46GB2/ItcSnb//wa32yrNa8vl0fPDQ8Xxe5VGZn/niQ/m4pIMkm5Liwrya7ommo8YQOGtfNsU++ukhcSORc9GnHrMX3rBjTJGjkZxi01VJNiXFlWPngZe+1Ox9Z+QFjoTO8W++ZGyRc9PLi05XJdmkuLGEzcH+wtMjU659yj7ftidsVsFjpT3zqs3We2xkuTc9sn+EDUl2Fiw4djKTwNHr33HB4p8/fufjtv/oiWjTscfH9yqj9HBa4HRsvM6m55pt1vKRQzc9y2dZLjfLFj2wyC4857RA6FnfapdMm2K5XM6mTLvEFm0KRFHPOmu96FxrzuWs+byhvOEUlZe5TCM4G1qiMlTO0DbLFD9C4Ax22bKLmi03rcXaNbLZ226LLptp5549lGfKBXNspZvtYmlxmy36kOxrsfbhuNN15KxlwxClgu0oHSQpIQABCCQSKPRQ+fkTeyNBMuX/X5jP+5FPfzeKk+iRoJFgkRhyseMCxkWSZ1xy98Yorc7/3b8s9ujEfZJNSXFhZq2v8ZGapP3HP3BnfvTGR3HOvmrLmAJHIzlak1MoJNmUFBeWUczO4zNeMELcSOCc/OwLxhY4C18WrckJ64gfJ9mkuCSBc8HiTtu+fyB/TscKnlZiRcJEIkhCR/Ha//Cpw/k0nlaiRpvSStyo7N+8dKNt2HUsKsPT+T7JznhbCn3OJHAKLS6WuPGg47iw8c8qo/QwLHDOn2WzpuVs6tXrLJApUTFDYiRnzRcts65hcTiwoWVIDN2+2Xp6u2zNVdMtd/ZsW6k1NYObrVVreKZdbks3dFnPtjV23fuaI/Hia3BGCJzBAevbstQuzOXswts3W19vnw0MhgJnwNrnqfxg2mzjIrv8znbr6u2znk1LbZaEjq8jcjGj9DuGSaiO3jU2RyLqqjX5Ogq2o3SIpIQABCAwJoFiDxUfdVEBGo2RQNGIjY4lYvRZYsdHdjRqI2EUDxI1KkujN8pTKCTZlBQXlhEtKB5j9EaC598ufXSUwDn/sp8XFDhaeFwoJNmUFBeWUczO5z7wvFEC57kPP6+gwNHC40IhySbFubAI94/tOhYJkT/4wqZIjEiUKHgaCRQFpVOcPocCR0LnB8ObhIzOS+SE4mbZxoP58rxc7ZPsjCor8U99Cpx/b7GWcIQkaOyQGJlqrVs8ssfaLspZ7tNt1udRfSttthYRaw3NxuusOddsc9YGUmnbUpsRLDIeIXBUho+6DC9CVpSP4KxZ32JTi0ybedpo8mm4rKkLN7t1w/v4FFWRdsRy8xECEIBAGgLFHiouSCRgJGQkTjSKoyDRos86J8Hzl3+3MPqsuNlfOj0N5SNByu8jOcozVkiyKSkuzF9oekoC5+PDa2989GZommpDQYGjN6wKhSSbkuLCMorZaReMnJ6K1uJccEZBgaM3rAqFJJsUF4oLHftoi46//sN90TSUBIpGYBQnkaK9RnB0rPQSN6HA8c/aK0jkKI/nkzBSmR4X7pPsLNSu+LlMAqeaU1Q9e9uikZBwpEaNGyVGbFgo5KeUfGpp6C0pLSDWlFY0/eR0YgJmVJmx88o2JFpm2Ix35yx32crTYkon+zZb281z7JLzZ9iM84ZGh/JvXCWUNWRGXOAUboebzh4CEIBAFgLFHio+DaXRGh/N0XSUgoSMNg8SOT6FpXjlUfA45fORHomdsUKSTUlxYf5iwuGiT51ef+MiR3G+qDhpP9kEjoSLpqAkOiRetOlYYkd7nXvXDR2m0R19VnoJGcX5FJXSfG540/Xx8pReokhiyctVXLgVu8bh9U46ziRwqr3IeGjKJmfT57Xnp6pGiREbHvm4rC2aItKUUn7ToM16ralpzq9xiSBtarWpaUdwhqfDZi7cPGxTly29QFNSrda+o8/6+gZsXfhKeckCp0g7kq4ucRCAAATKJFDsoeLTUr542NfP+KiMRm3iwUd9lNbzuxjyvY8CxfPqc5JNSXFh3mJTP++/9KdMUQXAxDMUFxpVUZB4kWhxkSIx4oJGYkXTT8qnOAWlVbwLHH32TQJIaSWQbgyOtR4naRSn2DWOKizwJ5PAqf5r4gPWPn96JFCi6abEERyz6DXv3PT8Opi+He227OqlQ79ZM7DO5mhNzLQ5tmxTl3VtWmZz3je1sMDpaYt+J2fqlW3WsWmdtff4CM7Q7+AMvd3lC6Db7bpozc0i27y3z7o2tA6twfHfzCkgcIbytVr7tnXW/nSRdhS4yJyCAAQgUCqBUh4q4dSTRnQUfKrJ34jS6M57PnS3feTS+/NvUmmUxtfp6LwEj09rvf5t88c0McmmpLiwgGKLdz/+gbtHCRwWGZ8eQZFI2bZ/IBI22kucaK2Mpphc7EjcKLT8cJ99Z+PQKJ6Ei+I9r6f1vdJq1EZTU8qjeAkcX58Tiqxi1zi83knHmQSOCqz6D/35G0vDi3pHj+DIygHrWD7HZvr00DnT7ZJ5a/I/Fjjw9DKbc4HeYGq2cy9qtXUbR/7Q3+gyB2zzzRfaFE17nTPbVsYEjuqLFhoPr8XpenCOzdQbXbkpNnPeGmu7WsfDPwo4psAx63rwcpshcXT2udYaienC7Ui6wMRBAAIQKIdAKQ8VH5GRSPHg004SPJp60ptULmC0lwBS8GmtcOGxixyN7iSFJJuS4sK8xV4T//HvnWMfq4fXxH/nJWYzR67DmYjXxCVoNArjm0ZYtPnnLHsfBYqX4VNfLnKKXePweicdZxY4/KuGJKzEQQACEKhPAlkfKuPR6iSbkuLidRf9ob9pX8+P4rzu608XXH9TzR/6O/bO4If+vvSbBRcY80N/p70gs8BRUZqqKvTKuL8S7nulLe8XjE8bzBEEIAABCIwfgVKEw/jVnlxykk1JcUm5i/0LhC/949fr4181/O1/5V81JF3gAnEVETgqXyM5pUxXKQ3/ZLPAFeEUBCAAgSoSKFU4TKSJSTYlxY1lU7F/Ysk/2xxayO1TQ7WyL+caJ137igkcL1wjM3q7Sq+Qa6RGm44Vx6iNU2IPAQhAoDYJZH2ojEerkmxKihuPusspM8mmpLhyyhyPtEk2Ka5WhI3bkWRnOTwqLnDKqZy0EIAABCBQWwSyPlTGozVJNiXFjUfd5ZSZZFNSXDlljkfaJJsU58KiVvZJdpbDA4FTDi3SQgACEGhwAgcPHrTBwZH/BLGaTT558qTJpnjAzjiR0j4X4vmqKx6vGZFz1twnEq97aa0cSoXAKYcWaSEAAQg0OIGBgQE7dOhQTYgcPYxli2yKB+yMEyn+uRjPh5/ca7UgciRuZEvSdS/eytMpEDinWXAEAQhAAAL65bCBgejbs6YIqrlplKbQQw47y7s+jcKz1JsUgVMqKdJBAAIQgAAEIFA3BBA4dXOpMBQCEIAABCAAgVIJIHBKJUU6CEAAAhCAAATqhgACp24uFYZCAAIQgAAEIFAqAQROqaRIBwEIQAACEIBA3RBA4NTNpcJQCEAAAhCAAARKJYDAKZUU6SAAAQhAAAIQqBsCCJy6uVQYCgEIQAACEIBAqQQQOKWSIh0EIAABCEAAAnVDAIFTN5cKQyEAAQhAAAIQKJUAAqdUUqSDAAQgAAEIQKBuCCBw6uZSYSgEIAABCEAAAqUSQOCUSop0EIAABCAAAQjUDQEETt1cKgyFAAQgAAEIQKBUAk1btmwxNhjgA/gAPoAP4AP4QCP5QNOJEyeMDQb4AD6AD+AD+AA+0Eg+gMBB4CFw8QF8AB/AB/CBhvMBBA5O3XBO3UjfQGgL36jxAXwAH0jnAwgcBA4CBx/AB/ABfAAfaDgfQODg1A3n1HzbSfdtB25wwwfwgUbyAQQOAgeBgw/gA/gAPoAPNJwPIHBw6oZz6kb6BkJb+EaND+AD+EA6H0DgIHAQOPgAPoAP4AP4QMP5AAIHp244p+bbTrpvO3CDGz6ADzSSDyBwEDgIHHwAH8AH8AF8oOF8AIGDUzecUzfSNxDawjdqfAAfwAfS+QACB4GDwMEH8AF8AB/ABxrOBxA4OHXDOTXfdtJ924Eb3PABfKCRfACBg8BB4OAD+AA+gA/gAw3nAwgcnLrhnLqRvoHQFr5R4wP4AD6QzgcQOAgcBA4+gA/gA/gAPtBwPlARgXPgwAHr7Oy0rVu32pYtW9hggA/gA/gAPoAP4ANl+YA0hLSENEUlRq0yC5zu7m7bvn279fX12alTp4wAAQhAAAIQgAAEyiUgDSEtIU0hbZFV5GQSOFJZMgRhU+5lJD0EIAABCEAAAkkEpCmkLbKO5GQSOBpKktoiQAACEIAABCAAgUoRkLaQxsgyipNJ4Gi+jNGbSl1OyoEABCAAAQhAQASkLaQxqiZwtKCYAAEIQAACEIAABCpNQBoDgVNpqpQHAQhAAAIQgEBVCSBwqoqfyiEAAQhAAAIQGA8CCJzxoEqZEIAABCAAAQhUlQACp6r4qRwCEIAABCAAgfEggMAZD6qUCQEIQAACEIBAVQkgcKqKn8ohAAEIQAACEBgPAgic8aBKmRCAAAQgAAEIVJUAAqeq+KkcAhCAAAQgAIHxIIDAGQ+qlAkBCEAAAhCAQFUJIHCqip/KIQABCEAAApOPwM6dO+2+++6zefPmRZuOFVfJgMCpJE3KggAEIAABCECgIIEnnngiL2xc4Phe5yoVEDiVIkk5EIAABCAAAQgUJHDo0CG7/vrrI4GzePFik6DRtnDhwihO544fP16wjFJPInBKJUU6CEAAAhCAAAQyEdiwYUMkZObPnz9CyEjUKE4jOUpTiVB3Aqe9vd2uvfZa6+/vz7d/0aJFdsUVV9jBgwfzcRxAAAIQgAAEIFBbBNauXRuJmLvuumuUYYqTwFGaSoS6FzgrVqwYJXjKAdPZ2Wlz585FHJUDjbQQgAAEIACBFAQQOAWghSM4Os46coPAKQCbUxCAAAQgAIEKEdi3b59pUEKjNEuWLLFdu3aN2BSnc0qjtFlD3Y7gyPCkkRdNU0n0XHzxxdEWTme5OFqwYEF07t57782nU3pNdSlo+kv5vAyP1zmB12dtfl5xHoqdV74wvexVOyS0ksp3Aac8pdRXLL3X4WV5esXH+egzAQIQgAAEIJCVgJ5hEi/lbKtWrcpUbV0KHD2UtbkoCAnooewPZhc7/ll7Pdj9s/LFR3Bc3LgI8c+ex4WGf9Z+9uzZeVuKnS9F4IQ2upBye1RfKEri9ZWSPhR9yq88Cio7rDvkyjEEIAABCEAgLQFfX1OOwElap1NO/XUpcCQo9JD3h36hBoeCQg/w8OGufHGBE/+sNMrnIiAUBDqXJIA8bdL50B6dH2sER+cU4oImS/q4rSpf5YmJ9kl8hqzgLwQgAAEIQCA9AQROCez8Idzd3Z0ocvwh7lMw2rsQ8rxK4yEuaJQmzOvHLowmWuDIPk2puc3FBE6h9MorYeht8r2PQCXxcU7sIQABCEAAAmkJIHBKIBc+hPUw18NZcQoubvyz4sIRkzCvVxUXOHGB4Ol8X88CR3wkltTGpJDEJykdcRCAAAQgAIFyCCBwSqAVfwjrs49AxEc3fMSinBEcF0meJ25SVoGj/D4apLIlwNx+fY6XHxdc8TamSR/WH7YvzjY8xzEEIAABCEAgLQEETgnkkh7CeshrukXn/FifNR2jh7niFJLyKl4iQ+m1V3Bh5FM4XrbOxQWFCyKVXcp5T+9lr169OvEtqqiw4TVClZqi8jK9vW6Dt3ssPp6PPQQgAAEIQCANAQROGmrkgQAEIAABCECgpgkgcGr68mAcBCAAAQhAAAJpCOg3bcp5RVxpJ93v4KQBSx4IQAACEIAABCYXgbr7HZzJdXloLQQgAAEIQAACaQggcNJQIw8EIAABCEAAAjVNAIFT05cH4yAAAQhAAAIQSEMAgZOGGnkgAAEIQAACEKhpAgicmr48GAcBCEAAAhCAQBoCCJw01MgDAQhAAAIQgEBNE0Dg1PTlwTgIQAACEIAABNIQQOCkoUYeCEAAAhCAAARqmgACp6YvD8ZBAAIQgAAEIJCGAAInDTXyQAACEIAABCBQ0wSqKnC2bt1qp06dqmlAGAcBCEAAAhCAQH0RkLaQxjhx4kTqrSlL5s7OTuvr66svalgLAQhAAAIQgEBNE5C2kMbIolEyCZwDBw7Y9u3bGcWpaTfBOAhAAAIQgED9ENDojbSFNEbVBI4q7u7ujgyR2mK6qn4cCEshAAEIQAACtURAGkJaQuJG2iKLuFHeTCM4XrlUloaSNF+mRUFsMMAH8AF8AB/AB/CBcnxAGkJaIuvIjWuTiggcL4x9+sVQsIMdPoAP4AP4AD5QOR9A4GRYoY0jVs4RYQlLfAAfwAfwgUr6AAIHgZN5nrOSDklZdHD4AD6AD+ADlfABBA4CB4GDD+AD+AA+gA80nA8gcHDqhnPqSih/yuAbJD6AD+AD9e0DCBwEDgIHH8AH8AF8AB9oOB9A4ODUDefUfOuq729dXD+uHz6AD1TCBxA4CBwEDj6AD+AD+AA+0HA+gMDBqRvOqSuh/CmDb5D4AD6AD9S3DyBwEDgIHHwAH8AH8AF8oOF8AIGDUzecU/Otq76/dXH9uH74AD5QCR9A4CBwEDj4AD6AD+AD+EDD+UBFBA7/bJN/qFbOP1QjLf6CD+AD+AA+EPeBmvtnm/qX5vrX5voX5/pX5wQIQAACEIAABCBQLgFpCGkJaQppi6zTVJlGcDRyI0MQNuVeRtJDAAIQgAAEIJBEQJpC2kIaI4vIySRwOjs7I7WVZCBxEIAABCAAAQhAIA0BjeRIY1RN4Gi+jNGbNJeOPBCAAAQgAAEIjEVA2kIao2oCRwuECBCAAAQgAAEIQKDSBKQxEDiVpkp5EIAABCAAAQhUlQACp6r4qRwCEIAABCAAgfEggMAZD6qUCQEIQAACEIBAVQkgcKqKn8ohAAEIQAACEBgPAgic8aBKmRCAAAQgAAEIVJUAAqeq+KkcAhCAAAQgAIHxIIDAGQ+qlAkBCEAAAhCAQFUJIHCqip/KIQABCEAAAhAYDwIInPGgSpkQgAAEIAABCFSVAAKnqvipHAIQgAAEIACB8SCAwBkPqpQJAQhAAAIQgEBVCSBwqoqfyiEAAQhAAAIQGA8CCJzxoEqZEIAABCAAAQhUlUDdCZz29na7+OKLbcWKFaPALVq0KDF+VMIJjjh48KDNnTvXOjs7K1azOFx77bXW39+fL1Ptv+KKK0z1VTvo+sTtG8umLHyy5B3LHuIhAAEIQKD+CdSlwNFDXIIh/iCfzAKnHEGR5LbVFApZ6s6SN4kDcRCAAAQg0BgE6lLgaGRgwYIFJkEThskqcDSak3XkpppCIUvdWfKGvsMxBCAAAQg0FoG6FTjd3d3RQ10Pdw9xgaNRDU1n+eZp/aG4evVqmz17dn7KS/ESCkofFwzhubGmyNwOTRtJhHm9d9xxx6gpqtC2sK5S6/EpKl3ApNGsuA1hHZ5XIlE2rly5Ms9Bn8OppbHs9DLuvffefDtDwennZUcS79CeYufFNbRDNqp8Bc+rzypT53RNw+nAOIvQTpUrDmqz51Ne94uwLr++7CEAAQhAoPYJ1K3A0UPLH2p6yCmEAkfn9fDVXkEPMn9wK70ehv7ZH2j+0PUHovIoePr4QzV8iEYJzaL6VK7nVbzs8oenPoe2+Gd/6MbboAuUFLztsjnJDsVJwCnE26O88Qe3C4WwrEJ2ehneTuVTG52R9s7X+flnt8fbXOy80he7ln7t1F7V7Z+9LrfTP7udig+vTfy8bAuZJF0L4iAAAQhAoPYI1LXAEc5QEITHcdR6SPlIR/xh7g81fwgqr479ARw+rL1cnQ/Te3xYj8eF9Xld/oBVGp3Xw1971en1ev6kvfLrwawHeZId8TzF2hPaqLzF7ExiEvIPz8fLVvnlnI+3JWScVHZoe5jWy1HdzjjkEra7FKZeHnsIQAACEKg9AnUvcPQA81GM8AEr1HqQaaTCN/9Wn/RQVF6l9xA++HTsZYR7f0h6Hq/TRyo8PqxPx7IjLEfH4SiCylVcvBwvL6zHp+qSHshejtfl9obiwssMbVRcMTuTylD5bkd4Pl52aL/ESLHznt7boX2ha6n0skU2aAvz+bGzDa+z8im4QFJaZzZ8ih0EIAABCNQJgboXOOKsh5QeWFpLkfSAVZrwm3zSA9UfiH7dwgefHpKlPujCerysUITp4Sk7FVcseLuUJx5CAaGywukhpZW9zkKf4+3xB7yXG2dSzM6wfi8jrDM8Hy9b6cs5H6ZV3pBxUtkuUJRPacU7iaHKCrl4O8K92lTqtQ/zcQwBCEAAAtUl0BACxx9o+sbtD/X4g0ufC33r10NMD0QPYX49RJU3PO/p4ntP63bovMoOR2h0Li4wlE7tCNeaxB/sYV3xc/rsdTgPt9c/+4M6nlflJgmFsexU+qQyVL63OzyfVHY551Wm26669Tm8ljqOn3e+3na3K2ToZYV5Zet9992XTxavO3+CAwhAAAIQqGkCDSFwRNhHMfxB5kLDpyT0LX6sNTjKr4ecHroe4g82L9/LczHh6cN9vG4t9lXdKsOD6vOytPeHbBjvD3HPE+5DgeDxslll6Zw2L1+2qv1eR1JeleH5XRwoLrQntDOpDKV1/uH5rAInzjPpWoZvc8W5xfM7I2+zc9FnF0TOLmSh8wQIQAACEKgPAnUncOoDK1ZCAAIQgAAEIFBNAgicatKnbghAAAIQgAAExoUAAmdcsFIoBCAAAQhAAALVJIDAqSZ96oYABCAAAQhAYFwIIHDGBSuFQgACEIAABCBQTQIInGrSp24IQAACEIAABMaFAAJnXLBSKAQgAAEIQAAC1SSAwKkmfeqGAAQgAAEIQGBcCCBwxgUrhUIAAhCAAAQgUE0CCJxq0qduCEAAAhCAAATGhQACZ1ywUigEIAABCEAAAtUkgMCpJn3qhgAEIAABCEBgXAggcMYFK4VCAAIQgAAEIFBNAlUVOFu3brVTp05Vs/3UDQEIQAACEIBAgxGQtpDGOHHiROqtKUvmzs5O6+vrazCsNAcCEIAABCAAgWoSkLaQxsiiUTIJnAMHDtj27dsZxammF1A3BCAAAQhAoIEIaPRG2kIao2oCRxV3d3dHhkhtMV3VQB5GUyAAAQhAAAITSEAaQlpC4kbaIou4Ud5MIzheuVSWhpI0X6ZFQWwwwAfwAXwAH8AH8IFyfEAaQloi68iNa5OKCBwvjH36xVCwgx0+gA/gA/gAPlA5H0DgZFihjSNWzhFhCUt8AB/AB/CBSvoAAgeBk3mes5IOSVl0cPgAPoAP4AOV8AEEDgIHgYMP4AP4AD6ADzScDyBwcOqGc+pKKH/K4BskPoAP4AP17QMIHAQOAgcfwBn6XSIAACAASURBVAfwAXwAH2g4H0Dg4NQN59R866rvb11cP64fPoAPVMIHEDgIHAQOPoAP4AP4AD7QcD6AwMGpG86pK6H8KYNvkPgAPoAP1LcPIHAQOAgcfAAfwAfwAXyg4XwAgYNTN5xT862rvr91cf24fvgAPlAJH0DgIHAQOPgAPoAP4AP4QMP5QEUEDv9sk3+oVs4/VCNtY/lLJf9BHn1JY/kG9zrXsxwfqGRfohGgzAJH/9Jc/9pc/+Jc/+qcAAEITC4Cuu91/6sfUH+QdmiZvmRy+Q2thUCcQKX6Eu+DMgkcfdtSp4awiV8mPkNg8hFQP6D+QP2CdzCl7ulLJp+/0GIIjEUgS18S9jmZBE5nZ2f0zW0sI4mHAAQmFwGN5KhfCDuZUo7pSyaXn9BaCBQjkLYvCfubTAJH82WM3hS7TJyHwOQhoP5A/ULYyZRyTF8yeXyElkKgFAJp+5Kwv8kkcLR4iAABCEAgJKB+IexkSjmmLwkJcgwBCIhAmr4k7G8QOPgRBCBQUQJpOiUETkUvAYVBoCEIpOlLEDgNcelpBARqk0CaTgmBU5vXEqsgUE0CafoSBE41rxh1Q6DBCaTplBA4De4UNA8CKQik6UsQOClAkwUCECiNQJpOCYFTGltSQWAyEUjTlyBwJpOH0FYITDCBNJ0SAmeCLxLVQaAOCKTpSxA4dXBhMREC9UogTaeEwKnXq43dEBg/Amn6EgTO+F0PSobApCeQplNC4Ex6twEABEYRSNOXIHBGYSQCAhCoFIE0nRICp1L0KQcCjUMgTV+CwGmc609LIFBzBNJ0SgicmruMGASBqhNI05cgcKp+2TAAAo1LIE2nhMBpXH+gZY1H4NChQ7Zq1SpbsmSJzZs3L9p0rDidq1RI05cgcCpFn3IgAIFRBNJ0SgicURiJgEBNEpCIcVEz1l5pKhHS9CUInEqQpwwIQCCRQJpOCYGTiJJICNQUgcWLFxcVNy567r777sy2p+lLEDiZsVMABCAwFoE0nRICZyyaxEOgNgjER27uuusu27dvX964nTt3WlwAZR3JSdOX1ITAaW9vt4svvnjEtmjRojysQgcHDx60uXPnWmdnZ2IyxV9xxRVjnk/MFESuWLHCCtmi89dee6319/cHuUo7DPOqDtmp9iQFZ6S9gto1e/ZsUxlJQfbIrrFsU31elqf1zypPx55XaQsxSKqfOAiIQJpOKa3A0b0Q9iN+b5TaB4Q+X4mrl6W8Um2uhJ2FyhBD7v1ChCbfOa2r8ZEZ7W+88cYIwvHjx+2JJ56wDRs2mI7j6ZQ2y5qcNH1J1QWObp74g10PecW7aNBnpVGHoS1MHxc4lb4hK12e3w7qwCTMXNCovfrsnbKn094FiDpvtV/B84dlhHmUTuldpITnPK/X7eV72UqrY8+bdD4sj2MIjEUgTaeURuDo/tHmQT67evVq/1jSPvT5kjIUSVTJ8uL3bJGqK3Z6vPq/ihlIQRNOID56I+Fy3333RULHhY8/xzSy43HaZxnFSdOXVFXgVKIDqFeBo87YnUAe6gLHRUXoteIkIaNNxwrq8CT0XPiF6V2QqMyk8lRvWLen97JVVvzaKH34AAnr4xgCYxFI0ymVK3CS/HcsewrFx32+UNpSzlWyPAROKcRJMxEE4lNPoYDxY43kKMTT6u2qtCFNX1I1gVNqp5R0Y4cP21Dg6AEcDlGrgwnPO1jl93TKoy184Hs67b2ueB5PE+/EwnThSJOn1z7JJtlw7733RoJEZYZB59atWzfinHPRt9S4iNG5BQsW5POItQcd65zSeEi6FvF2eX2ynQCBUgmk6ZTKFTiyxe/jJLvGut+8D/D71H1e96GfU7lhUBo/pyliv4+8Ds+rfJUoT+WHdaput6lQX6M0bqe3T+0YqyxvY3he+e644458fUqjdirey5YNhMlFwEVM0v7pp5/OT0NpHU5SmrS00vQlVRM43iF4BzFWo5MerLqp/CaPlxOeU5lJ50NB4Df0WDeq4nUz+3kXA/5Z+b28uK36rPrjIZ5O59UelRmWp3hP293dnShw4vGFytK5ePmK8zbpnId4ujhHT8ceAoUIpOmU0ggc92Hdq6Efy7a47+pe8/5D5/XlQWmUL7zXde9JxHh52sfFgt/7yq9zYblZy9OIrWxQ8H5A9Yz12c8Val8oypxZ2JeF7fP2e5u8jc5Dn0MbI8P40/AEkkSLx2mNjRYbJ01jeZq0gNL0JTUlcLxDUCfjN1r8xhYc3ZDhTRfeZOE5pQ1vQr+h/QZ10CrLb3KP8328PMUrv3ds4bFsld3aFwo6r1EU2ePBbQjt1TmPj9secgltDOND28J64u2Pl6208bxJabxM9hAYi0CaTimNwPH6/SHs/Yfiw3sqvD88j+/jPq94v//ix/qse8JHQ8M6xqO8uN36nNTXxNO5LUn2Ky5sc9hWzxf2LWHa8PxYfaenYd9YBOLTTi5ctNcCY/lDGBceK2/akKYvqZrAKfTADG/S8NjBhDddvGMJzyl9eD489rK0T7qx/Xy8PMXLJhco8Zte5/QtKembpJcZ5ve40AavM7Q3zivkEqbzvCo3bpvSSZhpH4awo/Z45ZVNHuL1ezx7CBQikKZTyiJw3BbdB/4lJLw/4veEp9c+6Zzfl+7/uq/jm/KFdXiZlSwvvN+9/KS+JqlOpXf7dT4MXm7SSLDShf2JjuNt1+ewnwjL5rgxCRQanQnFTNLxpFpkHN48oSv4TadOIzz2NGG+eMcSnlP68LyO9a0nvMn9xle+pBAvT2nCTiQ8DvMn1eXnk9rkHanSKK8653D+2+102+NlyE6lD0ez4rYltcXrC/MpLp5W9fu3VW8HewgUI1AtgRPeH2EfEMbHbY/fLzof3pc69vsvnjesw89VsrxCdod9TaF0YVvcRqX3L2tJ5xWnTUHt8WPPz37yEUh6/VtiRm9MKYy19kZpJtVr4v7Q9m9a7irhTRrevDqvcxoh8Rst3rHEH8zx88oX1qebVt9ClC8pKD6ct47bE3ZiOtam4G3zz2HZcZt0TnaFNuhzWG+8vJCR8se5KC60rZBACdMpX7wuL18iSLYTIFAqgYkQOPJXLe7V3oPuJb/Pw/vNfdv7D6UP1+B4Hi8nvC91n4RTX55G+7AOj4/fV4pPW178flfZ2hS8Tfrsx2O1L6lP8X5H+7B98T5FbYx/QfS2sp9cBJJGcYoJnCyjN6Kbpi+p2hRV6A66GeNDn37zKp2O/bw6IHVmfgPHOxa/CZVe+eLnvQPw8lSONr/JQ7t0rHh9w1G9nidMqzq8U/QOISldvNx4nfHPKsu/WSmv2+1c4h2e0qgMP6/PcdvC8vy8bPVOzetQXNhGT6vyCRAoh0CaTkl5yg3yTb/vtPd7UuUU6wM8bXi/eP3x+1L3RVI98TqUv9LleRu1L9TXhPdxnIVsCu2P3+dh+8Ql7GvVpni9oWByZuwnB4FCa3Hi01P6nZysIU1fUhMCJ2vDs+T3zkA3/kSGJIEynvXHO+py6qoWo3JsJG1tEkjTKaUROLXZeqyCQGMTSBrJiYubrCM3TjBNXzLpBY6+sfgIhoOcqL3q9m+P41mnvl2qHu3TBIkjbQQIlEsgTaeEwCmXMukhUD0CWlcjEROO6OhYcVnW3MRblKYvmXQCJxyC1VBttcRN/OLxGQKNSCBNp4TAaURPoE0QyEYgTV8y6QRONsTkhgAEyiGQplNC4JRDmLQQmBwE0vQlCJzJ4Ru0EgJVIZCmU0LgVOVSUSkEappAmr4EgVPTlxTjIFDfBNJ0Sgic+r7mWA+B8SCQpi9B4IzHlaBMCEAgIpCmU0Lg4DwQgECcQJq+BIETp8hnCECgYgTSdEoInIrhpyAINAyBNH0JAqdhLj8NgUDtEUjTKSFwau86YhEEqk0gTV+CwKn2VaN+CDQwgTSdEgKngR2CpkEgJYE0fQkCJyVsskEAAsUJpOmUEDjFuZICApONQJq+BIEz2byE9kJgAgmk6ZQQOBN4gagKAnVCIE1fgsCpk4uLmRCoRwJpOiUETj1eaWyGwPgSSNOXVEzgbN261U6dOjW+LaR0CECgbgioP1C/EHYypRzTl9TNJcZQCEwIgbR9SdjfNIUfyj3Wf8fu6+ubkMZSCQQgUPsE1B+oX6Avqf1rhYUQqGUCafuSsO/JJHAOHDhg27dvZxSnlr0E2yAwQQT0jUv9gfqFsJMp5Zi+ZIIuEtVAoA4IZOlLwv4mk8BRQd3d3VGnJrUlowgQgMDkIqD7Xve/xI36g7CDKeeYvmRy+Q2thUCcQKX6Eu93MgscFaRvXxqW1jy6FgWxwQAfmDw+oPte93+akRvviHxPXzJ5/IY+gmsd94FK9iXqUyoicLxzYn8i9bdX2MEOH8AH8AF8AB+onA8gcE5UDiaOCUt8AB/AB/ABfKA2fACBg8Bh1AkfwAfwAXwAH2g4H0Dg4NQN59R8e6qNb09cB64DPoAPVNMHEDgIHAQOPoAP4AP4AD7QcD6AwMGpG86pq/mNgbr5xooP4AP4QG34AAIHgYPAwQfwAXwAH8AHGs4HEDg4dcM5Nd+eauPbE9eB64AP4APV9AEEDgIHgYMP4AP4AD6ADzScDyBwcOqGc+pqfmOgbr6x4gP4AD5QGz6AwEHgIHDwAXwAH8AH8IGG8wEEDk7dcE7Nt6fa+PbEdeA64AP4QDV9AIGDwEHg4AP4AD6AD+ADDecDCBycuuGcuprfGKibb6z4AD6AD9SGDyBwEDgIHHwAH8AH8AF8oOF8AIGDUzecU/PtqTa+PXEduA74AD5QTR9A4CBwEDj4AD6AD+AD+EDD+QACB6duOKeu5jcG6uYbKz6AD+ADteEDCBwEDgIHH8AH8AF8AB9oOB9A4ODUDefUfHuqjW9PXAeuAz6AD1TTBxA4CBwEDj6AD+AD+AA+0HA+gMDBqRvOqav5jYG6+caKD+AD+EBt+EDTli1bjA0G+AA+gA/gA/gAPtBIPtBkBAhAAAIQgAAEINBgBBA4DXZBaQ4EIAABCEAAAmYIHLwAAhCAAAQgAIGGI4DAabhLSoMgAAEIQAACEEDg4AMQgAAEIAABCDQcAQROw11SGgQBCEAAAhCAAAIHH4AABCAAAQhAoOEIIHAa7pLSIAhAAAIQgAAEEDj4AAQgAAEIQAACDUcAgdNwl5QGQQACEIAABCCAwMEHIAABCEAAAhBoOAIInIa7pDQIAhCAAAQgAAEEDj4AAQhAAAIQgEDDEUDgNNwlpUEQgAAEIAABCNSlwOnef8TuXrnZrrntUZu3ZL1do+22R0ftr739Ubv+7p/ZivXb7dCRAa42BCAAAQhAAAKThEBdCpzvrHrKXvtPN9jLzv2G/c5fXZvf9Nk3j//d/+8b9sf/8G2betGdtvqxndY/MDhJLi3NhAAEIAABCExeAhUXOEeOHLE9e/ZYR0eHbd26Ndp0rDidq0T4+pL19vw3X2VNZ15Z8vbrb7na3jnrDnv0ye5KmEAZEIAABCAAAQjUMIGKCZz+/n7bsWNHtPX29trAwOkpIR0rzs8rbdow+Nwpu3Lhj+2M15cublwI/dZbW+y9V7SlrZp8EIAABCAAAQjUCYGKCByNzGi0RiKmWFAapU07mtN3bMAubvn+GCM3X7amMwtvb3v/rcVMHHH+1KlTJlF14uRzo7aTg89F506dGpFlQj4MnjI7Ibue0z7cTtnJ507ZcxltUv6T+ToyFjYhRKgEAhCAAAQgcJpAZoGj0ZhyBYsLojQjOVt2HrB3fvyu0QLnT6+wptf8hzW95rLk7bWfs6Y/vcLe9m/lCZy+IwO26qc7bEnbJrvtgSds8X8+Hh3r8z0rt0TnunuOmMTORIYf7+23u7YdsSXPHLHbnjlii58+bEueOWx3dBy2h7r67alDJ00iKG3Yfvik3b/jWFT2HR2VmVpMawv5IAABCEAAAuUSyCxwNO1UyshN3DCfsorHF/v86JN77Kx/uWmkwPlfX7KmP77UznjlRwtss+yMV3/SXjfzRvvJvuM2UOIQx8+e7LbzPnyH/f5fXzdie/l537RX/M18e+30G+zcC2+35T/cagcOpZ96K9ZuP6/RopPPmZ3btsf+4PYd9vux7Q+X7rBX37XT3vrd3XblY72251i6RdU3be2z3LJdpvJed/cur549BCAAAQhAoC4IZBI4GomRwEkblLfcqao1j+2010xfMFLgaPTmVRfbGX/4wcLb6y6x3/jgnTZ1RbdphEJTMMXCsh9stVf+7fyoPq37+dU3z7Vfa/6q/fIbr7IzXv+VKP4X3zDH3vKvt9iaDTuLFZf5vKafuo4O2h8s3WFNN3TYGTd02PMWbrMX3LzdfuXGbfaLrdui+F9s7YjEz72dR+2oFFGZ4aM/7rHfumWozNcicMqkR3IIQAACEKg2gUwCR29GpRm98UYrr8ooJyz+3hP2h8OCwxcPN73uC3bG//h4YXEj8fNnn7emz6+xF96y3RY/fcT6tHilSPjaonXRa+iq61fePNfe/v4l9u5Ll1vze26xF0/5el5oaQGz0o536B88ZT/a228vu60zEjK/etM2kwD5Pz/Ya+/8Xrf9zpJO+6WFQyJHAuiitT1lj+JI9533QHckmH7jlu329w/tHe9mUT4EIAABCECgogQyCRy9/h2+LVWuZcqrMsoJH/zqg/bCt7bkhUUkcl77H3bGK2cVFjiv+JA1/fNCa/rGE/ZrN223z/2s1/b1F5++ufCLD5jEi+r57XOusZ8/tc8GTgzazu5DdtHch/J2PP9NV9kXvvVw1BQtTH5OC32fO2WDwwuR/XO4V2JNOSmNx8dZhGUpjUSZxNlvLx4SOL972w5bsLkvWnA8eOqUfe3nB+03b9keiR8JnAtWP2vb+k5E9TynBdOqT/adsmiTmPFjndexRnw0LaX8/+3WTrvkkf1xs/gMAQhAAAIQqGkCmQSOFhdnDeWW8bez7rRfOmtOXlhEAudPPju09qbQFNXZX7Smzz1sTd9+xn7tpm32hZ/12rP9xUdw3vHvt9mvvGlu9Fr67/31N6y3rz8SC1pYLEET1X/mlfait37d5i1eb/3HT9rmbfvt6kWP2PRP3pMf8fn23Y/Zd76/xT43/2H7xFcfsitbfxwJpW/c/lO7+OqVdum8H9ji+zdF+Z3psf4TtnHrPrvsutWRmPrKwp/Yjzfvsy9u6LUXLRoSMX981y5r23ksenNK+eY/echetGhI/EigfGrdftt1dNB2HjlpC7f02fk/3GfvaNtj73qwOypn9Z5+m/3oAfv42v121caDtqn3hG0+eMJedefOSOD83u077PonD7lJ7CEAAQhAAAJ1QaCuBI7eVHrb+xeP/g2cV3/aznjFh0eP4Cju1RdZ01991ZouW2VN1z0ZPbS1XkWLaA8VmKLSaMmRYyfsf77rW/YLb/hKtObmrBk3Wefug7azu8/uf/jpaJrKBc6r//7btui7P48WG7/t/Uuiaa0X/PnV0ZqdF/751aZFya+bfoO99B3XRiNBmuKSGHrv5+6Pzv33t8+z1//vhda173D06vngc89Zx65em3bxPfbSd1xjv/32ayLBtL7jgL3/4Z5omk0C5k/v2WXf23UsWpfTfmDAZvxgnz3/xm3R2pzn39hhN209bA/sOmbTHuqOFiVryulXb9xmv37TNnvJkh2WW9YV7f/rrZ32F/fttlV7+u3BrmNRWpUvofPdHUfrwpkxEgIQgAAEIOAEMgmciZ6i2t59yN50fuwNKv3uzf/6rJ1x5qftjNdfOrTlZtsZzV+wM/5qrjWdv8iavvyINc3fEokbLb7VOpUNPXqTyjGM3ut3b7Z2HojenJKIed5Zc+yVf3u9zZrzoH3oy9+zN/3LTfbCP/9atND4l984x97z2fvs23dviESKC6KXn3ddtPj4zeffbP/tbfPsl3JDI0//5c++aud9eKkdHxi01mXt+TokhO5d9VQkrPY8e9iuumlttKBZ5emNrW/dtcGeOXDc/qptTyRSJEBetqTT3rNqn2lRsN6s+u+3Do3ePG9hh715eZct7Thi/7hyr/2Xm7bZL7Rus5cu6bQ3Lu+yP79vt/3h0p1RnMrR1nzvbntk33G7cevhiJHizvzOLtvQc/pHG0eTIgYCEIAABCBQewQyCZyJXmT83Z902Kve9e38tNDQ6MmXrGn6jdb0iTZr+tSKoe3/ft+avvAja2ppt6YFz0QPb3+Iv+DmbTb9oe6Coze6TEf7T9iKn2yLRlx8lCbc6w2q5511VSRyzvznVlv2gy3RaMwvvuEr0YjP/5h6fSRI9Jr5usd328fnPmS/8Rdfi2x/0V9+3T5y5Ypoikpreqb82+IoXsJH6bbvPmR3Pvik/dHfXR8JKMXP/sYq27W3zzoPn7Q/umNn9OaUtyncS8BpjdHv37bDbn7qsM36SU+0XkdvV73w5m32Hz/ttbX7jtuG/QPRlJVGdPzNKwmkpw6diKbvXnzrdjujtcPecm+X7U35qnntuTsWQQACEIDAZCGQSeBM9GviC5Y9Zr/319eNFDhv/Io1fXb1kJCRmPFteFQifPjr+DV37TStO9GvABcKh44cN62b0chLKGz8WKMxf/DOb9p7P3+/ScQ89Mj2aPRG5/UK+bW3/dR6eo+ZFglrUfIzO3vzIzX6R6BfX7w++mVkTYN9+MrvRaJIo0Rnz1wU/YDg33/i7kjcSDDpza3Htuw1Wbz10In8FFS8bfqsERy99fSd7Uet+9hgNO2kV8kl7Gb8YK892z8YlaPFzXrd/G9WdA+N7tzQYf+0Uuefs5mr9tmQ8Omwd35vT5S+ECvOQQACEIAABGqNQCaBo8ZM5A/9XXPb+vwr25HQ0O/QTLnGmq5YO2KUJunBr3Upb753ty3brt+FOVX0ob3/YL995tpV+Teo9F/Jv7jgR/bg2m32g/WdkaiRaNFiY0013fLdx+0Vw6+va1Hyo0/sieLFSOc3bN5rKkN263d19Ps6WlOktT433PNYNFKkqagXvbXFNKX14ilDU1ovecc19v11ndG0lV4Rf6jrWLS+Rm184c3b7Z+/v9ce3HXMvr/7WDS9JAHUdfSk9Q48Z4/3Dtjrv9MVsdHbUHPae+1QMC+nhcdvuW93JJi0LkmvlOvNsr/87u5oCkzlf/jHPbXms9gDAQhAAAIQKEogs8CZyH/V8P4vP2Ca3vFRlCYJnKmt1jR3wwiBo4e1foH3zHt2RWtN3v2DfdEbQmu6++3A8eKvhouahIt+70b/hVz1ac3No5v22LHjJ6MRGb3aHYab7/t5XuBoBEejP7ufPWz6Vw9bO/fbx656MD9FpSmtH7fvssHh/6WwftOeaK2O6vmFaOprTrReRwuPJap6+45Hb27J9vlP9uXbqmmohVsO2/HBU9F6IhXn41L6QUC9ESUGkRi6Zbu9d/W+6AcOD584ZTuOnLRvbe6LXinXFJXW5rQ8fsh2Hz1pL7996Ld0Xrq4067+OW9QhdeZYwhAAAIQqA8CmQWOmun/W6qUH/1TmnL/d5WjfO2MG00/tpcXOG/4ijX9063W1PLz/ENfD/OzlnXZrU8dtkf2HrfH9g/Y9sODJY3aeD3aa73LW/51UfSKuOo794O32979RyOhEabz49U/25mfotK00pn/vNAu/9Yau/7ODfa+z/9nNBLki4zf+t5b7ekdvdHojfJrQfH/veaHI94O0wLmd37kDtu5ty//f640MvOJR/bn2/q6u3faD3cfcxNG7DUD133spL3t/t32ywu3RWt2NH316XX77VtPHrJPrN2ffxVczP7ozp2m/zn1ZO9A9Bq91t9orY+muggQgAAEIACBeiNQEYGjRmskR9NVPmUV/gCgjiVs/Hyaf7KpOn797K9Fa1VOC5w51nTBHdY0b1P+oa+H9aXrD5T9673xC7d990H7/b/+pukH/DQi878vXW4nC/zLgz09R+wjX1kRjfhoqkk26l87aF2NFglr2koCR9vffewu0xofrc9R0BTWfaueMr2NpcXLEkgaMdJUWBie6TsR/X6NFhJre8d/7rbHD4z9hpPK//KG3uhNK/07B7HRpl861i8gazGyl/Wm5V3RK+JtO45Ga3IUr7ew1j97PDSBYwhAAAIQgEBdEKiYwPHWajRHb1fpFXKN1GjTseLK/b9TXqbvz3j9l0+P3px5pTXpteuPteV/38Yf4K1b+uxgsNbE85ez15tMr5x6fbSo+U/+4ds258afFMyutTQbn9pnH7iiLVqYLJHz/DfNtT/9x9botfJ3XXR3tPZGb1dptMbFjQqV2Flwz2P2/DfqBwW/EuVvuXWdDcR+p0c/wKeFwHo1XL9gfPHa/bb7aOEpN62p+dJjvfY/79xpvzD8v6v0Tzrf/f299uEfPZsv6wMPP2uP956IRnE0vafy37d6X/TWVsGGcxICEIAABCBQgwQqLnDGs41/9p6b7az/c5O94d032uvffaO9dsZN9vyvbrCmbz2dH52QyNFbUqX+t/Cx7NWP8D3R0WObnnnWtmzfb/sOFJ+q6R84aRrJ0avfP2nvsvWbdkd59eN927oO2pMdPdGmKSkPEkb/ueYZe820BdHolEZ49Ds7GkEKRZDSHxs8Ff0isdbWbOodiEapiuk4/UPRnuPPRb9OrCm7tXuPR2tztAZHU15e1u5jg3b4xHORMHxiuHyd18JmAgQgAAEIQKDeCNSVwGnfus/Wbdpjax/fbQ9v7LJbfrzDfvPG079z8wutHdEv/D516KTp/ypVM0i4xAVKkj0ST//0qWXRNJams/5i5qLod3M0bVXpICLVpVLpFlEeBCAAAQhAIJlAXQmcsAkaWdBIjX7XRr9MrO3lt++wt92/J3oTKExby8fXLHnU9C8g9Ar5n/zDArv9e0/YwcOse6nla4ZtEIAABCBQ+wTqVuDoh/p2HD4Z/SftazYdMm167XnFrmN2RPMydRL0P63m3/kz++YdP7M7Vjw54p9t1kkTMBMCRpy90wAADcBJREFUEIAABCBQcwTqVuDUHEkMggAEIAABCECgZgggcGrmUmAIBCAAAQhAAAKVIoDAqRRJyoEABCAAAQhAoGYIIHBq5lJgCAQgAAEIQAAClSKAwKkUScqBAAQgAAEIQKBmCCBwauZSYAgEIAABCEAAApUigMCpFEnKgQAEIAABCECgZgggcGrmUmAIBCAAAQhAAAKVIoDAqRRJyoEABCAAAQhAoGYIIHBq5lJgCAQgAAEIQAAClSKAwKkUScqBAAQgAAEIQKBmCCBwauZSYAgEIAABCEAAApUigMCpFEnKgQAEIAABCECgZgggcGrmUmAIBCAAAQhAAAKVIoDAqRRJyoEABCAAAQhAoGYIIHBq5lJgCAQgAAEIQAAClSLQtGXLFmODAT6AD+AD+AA+gA80kg8wglMpqUg5EIAABCAAAQjUDAEETs1cCgyBAAQgAAEIQKBSBBA4lSJJORCAAAQgAAEI1AwBBE7NXAoMgQAEIAABCECgUgQQOJUiSTkQgAAEIAABCNQMAQROzVwKDIEABCAAAQhAoFIEEDiVIkk5EIAABCAAAQjUDAEETs1cCgyBAAQgAAEIQKBSBBA4lSJJORCAAAQgAAEI1AwBBE7NXAoMgQAEIAABCECgUgQQOJUiSTkQgAAEIAABCNQMAQROzVwKDIEABCAAAQhAoFIEEDiVIkk5EIAABCAAAQjUDAEETs1cCgyBAAQgAAEIQKBSBBA4lSJJORCAAAQgAIE6JnD8Z1tt/2UL7dmPXVvVTTbIlqwBgZOVIPkhAAEIQAACdU5AgiKrsOm59NumLSznwBduHvE5PFfsOKvIqbjAOXLkiO3Zs8c6Ojps69at0aZjxekcAQIQgAAEIACB2iKQdeRGwub4I09Gm4ucgY0dduSe1Xbw2ntSiRzZlCVUTOD09/fbjh07oq23t9cGBgbydulYcX5eaQkQgAAEIAABCNQGgWKjKcXO9151mx1e/JBpf+iG+/N7jeAovlj+sc5noVMRgaORGY3WSMQUC0qjtIzmFCPFeQhAAAIQgMDEEBhLYJQTf7TtkUjIaK9NIzkudsopJ0ybpfWZBY5GY8oVLC6IGMnJcunICwEIQAACEKgMgVBUpD0+9sPHIoGjvR+76ElbZpbWZRY4mnYqZeQmbqRPWcXji37u22zLrrzQpp+Ts1wuZ7lzptucVX1Fs+UTHO2wZVfOtCnK+9Fl1pM/UZmDgfUtNuWcFls3YNZz/yxrnrbIOrzovctsVi5ns5ZXulavINu+6/7ZNuOTS61jMFs55IYABCAAgfoikFaAhPlczGivtTc653FhunKOs1DMJHA0EiOBkzYob1lTVYObrXWaRM2F1vrAOlu3dp2tWd5iLQ+ULhg2L5xquZxEUZf1HU1rufJ1WdtlF9r0Be0jCqlfgTNg7fOnW27addZ+evnUiLbxAQIQgAAEGpNAOaIjnlYiRtvJXc9GokbrbvztqboVOHozKs3ojbuH8qqMksPwCMicH6V/ArfP08hPi42UJSVbECRstxaNAs0ro6QaH8EJGschBCAAAQhMIgJx0VLOZ70tpfU2GrVxsaMpKn3OssBYNmQJmUZw9Pp3+LZUuYYor8ooOfSttNm5nDVftMy6xphG6Vm/yGa/71xrlvg4+1ybeeUy64hGanps2UeHp7V0LpgqGjuPLBsWMlcvs5VfnGHNuVm2bNPQVFM0RTZcVssGs9HiKSaCXODcs9nab55l556t0aiZNmd5h52WbAPWsXyOzTyv2XK5Zjv3fXNsZdcQoZ7lsyyXm2WLHlhkF2qKbl67DfxojuVyM2zptmGKzigvvHqs7aKcNfvnnnXW+snpQ1N050y3S27enK87bn/XA25HzprPm2lLnzYzb0MwzeZ2Lds7ZIOXs+bppTY7ascUm3nlytPXbLDH1i0Ybv/Z59qsm9tska7NOEwZDlNhBwEIQAACBQiUI2jCtBIw2nykRq+K+3m9Hi6Ro4XGHlfuvoDJRU9lEjhaXJw1lFtG14OX2wwJg7Nn2Oyb11lPIHQGNrTY9FyzzZzfZpt39FjHquts5tkSRG3RWpuBvj5bc5XEzRxb09tnfQNmxfLkBU5uurWsH17rMzhgfb1rbI7EzVVrrK+3zwYGSxc4U6ddaJff2W5dezus7arplstNtZYNQxKna/ksa/YptL2bbelFzZab1mqbB82GhERM4A0LGl/XMyR4cpab2mqbdXEGhuyMRr2OtlvLNOVfapv39lnXqjkRr9kPDrXLhUk0JrWl1aZKBC7ebD29PbZ5+eW2aEM5AqfZZnxxmW3e22XtC9WmnHk9mxeqzdPzDNbMnzkkSBE4WW8n8kMAAhBIRaBc4eHpJWAkZCRidHziqV2R2NFxJaapUjVmOFPdCZzI7r3tttQXCk+7fHiEY2ikInfBUhse8IiS9j1wyYgRjhEPcSslz/AozGdW2silzLHRGY31jJr+iqUZHv2YuiCSHkOXYFiANM+XrGi3687O2YjzkdBotus2usCZaq1bhq/eUAut7dM5y125JhqJaZ/XbJcsXmSzNdKkEZWN11lzbrat7Bta9JzLXWJt+bf5+2zlZ3KWGxaAI+wPBY4PL0lMljyCE9QzuC6YzhtqY/NV6/IjR2YdtvR8RnDCq8oxBCAAgYkk4IIlzV6jNvr9Gxc6Ejsa0VGcyvM3qtKUnYVBJoEz4VNU8ZbuXWlzpuYsF4mPoQfnqDUxG1qi6ShNISmMeIgPC4rCeWIiJW/D6PiRZUe1BQ/2ZHGQHyHSFNKweAinvvxY9sengtyUKP7sFmvXIuypEjZdtuzfh0ZMOm6fMczH2z5ymi4qf3jkZKT9w1Nl0dtqmmJqG5piKlnghOucAlY9bQlvkg1PHzKC45eUPQQgAIEJJZBGfHgeTVFJ5EjIaC1OKGgkerKsw8kCIZPAmfBFxgktXXe1pquus/aCozHDoxmjBE6hERzPEzycR9Q/Or59vtbNzLE1+RGPcOTitMCZcXuw7qi3zS7J5WzqQo3qDIm06Qvbo2kvTX35pimwsQSObVtqM3JTrXX5Uptx/tLotXS9LdY8b6W1feb0a+l6bT2Xm21tXafLjcrXXN0oNsONHRwYnsrK2cw7u8yGBUrYhq57LozWBsXX4Jxefh2wGh7Nya8JUjWRMGMEZ5g4OwhAAAITTsDFSpp9XNR4GWPF+/lS9llAZBI4E/6a+MZWm3XlUmtbO/yK+J2X2/RczqbPb4+mO/oenG3N4Rqcta02S2twgumlkaMUZsXzBA/nEaSHR4w+2mrt29ZZ+9NDZWlh8Mz564L1NcGbVsOjH83nXGjXreqwnh3ttujTUyyXm2lLo7fth1/VPnvm0PnePuvZtsYWzV8ZrSEaU+AMT/FMOWfKsFAysw0t1nz+DJuRL1sCqy3iMf0LS619h0ROl7Uvb7GlG4caNoLNxkXW8kCH9ciGTYuiUZdI4JhGiXKWm3a5LdvUY10bhhhr8XNJAscGbN1VEoLTbc7yzda1Y7Mtu2qGNWtdFSM4IzyMDxCAAAQmikApYqNQGq230SjO0KLi70ZTVPrs63AK5S10Lkv7MwkcVTyhP/S3o81mf2jG0NtHepvqvJmjFhr3rG21S6ZJNAz9COAlC0YuRB7xEB8mVzjPWALH7PSC53OtVSJhsMtW+tqgc2Zay4/akqeo7llnbZ8ZetOr+bxZ1ro++B2f6A2jS/I/ZBi18c6hN53GFjhmQ7/vM9VaNw03anhtT254RMedZODpZTbH3zLLTbHpn2yxNbG3n6KRlx3LxuQ4IMHjb3l9ZqmtWTz0dldpAsfMgh9bHGp/+9AbbsNrgdxW9hCAAAQgMDEEComMcs5p1EbTUuXkKZQ2S+szCxz+VUMW/OSNCBxdY5dLsEYLrWECAQhAAAITTaCQyKjmuSwcMgscVe7/W6qUH/1TmnL/d1WWBpK39gj0PNBirQ+0W4deVd/UZte9T1NWM0//lk/tmYxFEIAABBqaQKkiRlNO+sXigY3PjBql0WLicIFxWKZGddJMV2WBXhGBIwM0kqPpKp+yCn8AUMcSNn6ef7KZ5ZLVf96+tdfZhT6NqGmyD82xZVtGvoRf/62kBRCAAATqh0AoRgodS8T0P/JEXqxozY1eCdfU1Kn+gfzr4v6auISNp9Fv5BQqO+lcFoIVEzhuhEZz9HaVXiHXSI02HSuurP875QWyhwAEIAABCEBgXAkkiYukOAkZiZfn9vdFe43YSMBor6BjjfBI2HgaLTZWHm1JZRaKy9LoigucLMaQFwIQgAAEIACBiSdQSGSE5/xH/CRiJGY0KuMiR1YrrYSNCx2JGokdjfworfKX87s4WUggcLLQIy8EIAABCECgAQjsv2xhSaMrGsGRQJFokZhx8aJjH6HRWhsJHO21KY/O65eN9dl/4VhxhTbZlCUgcLLQIy8EIAABCECgAQgc/9nWgmKjkBAZr3OyKUtA4GShR14IQAACEIBAgxCQoCh1JGe8RI3KlQ1ZxY0uCQKnQRyTZkAAAhCAAAQgcJoAAuc0C44gAAEIQAACEGgQAgicBrmQNAMCEIAABCAAgdMEEDinWXAEAQhAAAIQgECDEEDgNMiFpBkQgAAEIAABCJwmgMA5zYIjCEAAAhCAAAQahAACp0EuJM2AAAQgAAEIQOA0AQTOaRYcQQACEIAABCDQIAQQOA1yIWkGBCAAAQhAAAKnCfw/TG4ppcDXHGgAAAAASUVORK5CYII=;" vertex="1" parent="1">
          <mxGeometry x="1450" y="2789.91" width="270" height="170.17" as="geometry" />
        </mxCell>
        <mxCell id="K1axlJIXEC6P-MiM49ua-103" value="Name" style="rounded=0;whiteSpace=wrap;html=1;align=left;verticalAlign=top;" vertex="1" parent="1">
          <mxGeometry x="1450" y="2700" width="270" height="20" as="geometry" />
        </mxCell>
        <mxCell id="K1axlJIXEC6P-MiM49ua-104" value="Adresse" style="rounded=0;whiteSpace=wrap;html=1;align=left;verticalAlign=top;" vertex="1" parent="1">
          <mxGeometry x="1450" y="2730" width="270" height="20" as="geometry" />
        </mxCell>
        <mxCell id="K1axlJIXEC6P-MiM49ua-106" value="Mail" style="rounded=0;whiteSpace=wrap;html=1;align=left;verticalAlign=top;" vertex="1" parent="1">
          <mxGeometry x="1450" y="2760" width="270" height="20" as="geometry" />
        </mxCell>
        <mxCell id="K1axlJIXEC6P-MiM49ua-107" value="" style="verticalLabelPosition=bottom;shadow=0;dashed=0;align=center;html=1;verticalAlign=top;strokeWidth=1;shape=mxgraph.mockup.containers.userMale;strokeColor=#666666;strokeColor2=#008cff;" vertex="1" parent="1">
          <mxGeometry x="1736" y="2699" width="40.26" height="40.26" as="geometry" />
        </mxCell>
        <mxCell id="K1axlJIXEC6P-MiM49ua-109" value="&lt;font style=&quot;font-size: 12px&quot;&gt;Bezahlen.....&lt;/font&gt;" style="rounded=1;html=1;shadow=0;dashed=0;whiteSpace=wrap;fontSize=10;fillColor=#cce5ff;align=center;strokeColor=#36393d;" vertex="1" parent="1">
          <mxGeometry x="1450" y="2970" width="270" height="20" as="geometry" />
        </mxCell>
        <mxCell id="K1axlJIXEC6P-MiM49ua-111" value="" style="endArrow=none;html=1;" edge="1" parent="1">
          <mxGeometry width="50" height="50" relative="1" as="geometry">
            <mxPoint x="1255.5" y="2990" as="sourcePoint" />
            <mxPoint x="1415.5" y="2990" as="targetPoint" />
          </mxGeometry>
        </mxCell>
        <mxCell id="K1axlJIXEC6P-MiM49ua-127" value="" style="group" vertex="1" connectable="0" parent="1">
          <mxGeometry x="290" y="2750" width="550" height="380" as="geometry" />
        </mxCell>
        <mxCell id="K1axlJIXEC6P-MiM49ua-113" value="Sitzplan" style="strokeWidth=1;shadow=0;dashed=0;align=center;html=1;shape=mxgraph.mockup.containers.window;align=left;verticalAlign=top;spacingLeft=8;strokeColor2=#008cff;strokeColor3=#c4c4c4;fontColor=#666666;mainText=;fontSize=17;labelBackgroundColor=none;fillColor=none;" vertex="1" parent="K1axlJIXEC6P-MiM49ua-127">
          <mxGeometry width="550" height="380" as="geometry" />
        </mxCell>
        <mxCell id="K1axlJIXEC6P-MiM49ua-114" value="&lt;div style=&quot;font-size: 15px&quot;&gt;&lt;b&gt;Shrek&lt;/b&gt;&lt;/div&gt;&lt;div&gt;12:00&lt;span style=&quot;white-space: pre&quot;&gt;&lt;/span&gt;&lt;span style=&quot;white-space: pre&quot;&gt;	&lt;/span&gt;Kino 3&lt;span style=&quot;white-space: pre&quot;&gt;	&lt;/span&gt;2D&lt;/div&gt;" style="text;html=1;strokeColor=none;fillColor=none;align=left;verticalAlign=top;whiteSpace=wrap;rounded=0;" vertex="1" parent="K1axlJIXEC6P-MiM49ua-127">
          <mxGeometry x="20.5" y="40" width="290" height="50" as="geometry" />
        </mxCell>
        <mxCell id="K1axlJIXEC6P-MiM49ua-115" value="" style="whiteSpace=wrap;html=1;aspect=fixed;" vertex="1" parent="K1axlJIXEC6P-MiM49ua-127">
          <mxGeometry x="19.5" y="160" width="150" height="150" as="geometry" />
        </mxCell>
        <mxCell id="K1axlJIXEC6P-MiM49ua-116" value="2 Sitzplätze&lt;br&gt;1 Nachos (groß)&lt;br&gt;1 Coca Cola (0,5)&lt;br&gt;&lt;br&gt;&lt;br&gt;&lt;br&gt;&lt;br&gt;&lt;br&gt;&lt;br&gt;&lt;br&gt;&lt;br&gt;&lt;br&gt;Gesamt" style="text;html=1;strokeColor=none;fillColor=none;align=left;verticalAlign=top;whiteSpace=wrap;rounded=0;" vertex="1" parent="K1axlJIXEC6P-MiM49ua-127">
          <mxGeometry x="19.5" y="160" width="121" height="210" as="geometry" />
        </mxCell>
        <mxCell id="K1axlJIXEC6P-MiM49ua-117" value="&lt;font style=&quot;font-size: 12px&quot;&gt;Verpflegung hinzufügen&lt;/font&gt;" style="rounded=1;html=1;shadow=0;dashed=0;whiteSpace=wrap;fontSize=10;fillColor=#cce5ff;align=center;strokeColor=#36393d;" vertex="1" parent="K1axlJIXEC6P-MiM49ua-127">
          <mxGeometry x="20.5" y="100" width="149" height="40" as="geometry" />
        </mxCell>
        <mxCell id="K1axlJIXEC6P-MiM49ua-118" value="16€&lt;br&gt;5€&lt;br&gt;4€&lt;br&gt;&lt;br&gt;&lt;br&gt;&lt;br&gt;&lt;br&gt;&lt;br&gt;&lt;br&gt;&lt;br&gt;&lt;br&gt;&lt;br&gt;25€" style="text;html=1;strokeColor=none;fillColor=none;align=left;verticalAlign=top;whiteSpace=wrap;rounded=0;" vertex="1" parent="K1axlJIXEC6P-MiM49ua-127">
          <mxGeometry x="140.5" y="160" width="50" height="210" as="geometry" />
        </mxCell>
        <mxCell id="K1axlJIXEC6P-MiM49ua-119" value="" style="endArrow=none;html=1;exitX=0.345;exitY=0.08;exitDx=0;exitDy=0;exitPerimeter=0;entryX=0.345;entryY=1;entryDx=0;entryDy=0;entryPerimeter=0;" edge="1" parent="K1axlJIXEC6P-MiM49ua-127" source="K1axlJIXEC6P-MiM49ua-113" target="K1axlJIXEC6P-MiM49ua-113">
          <mxGeometry width="50" height="50" relative="1" as="geometry">
            <mxPoint x="255.5" y="29.999999999999545" as="sourcePoint" />
            <mxPoint x="192.5" y="390" as="targetPoint" />
          </mxGeometry>
        </mxCell>
        <mxCell id="K1axlJIXEC6P-MiM49ua-120" value="" style="shape=image;verticalLabelPosition=bottom;labelBackgroundColor=#ffffff;verticalAlign=top;aspect=fixed;imageAspect=0;image=data:image/png,iVBORw0KGgoAAAANSUhEUgAAAjgAAAFmCAYAAABgGeDsAAAgAElEQVR4Ae29DZxVV3nvP2lrbW+rbb3eW61tbfXWW6v2Rk/Ujm0sGpt/Y0v/ttD2ym1s0GrjGxpjNFdM1USNBONIYiRKhrwQSMibkJhOJEGFoBKIksGQAEkGBhgYyMDA8DIMTHju57dnnsOaPXvOy95n5rzMd30+e/Y+a6+XZ333s9f+nbXWPtN06tQpI0AAAhCAAAQgAIFGISBt09QojaEdEIAABCAAAQhAwAkgcJwEewhAAAIQgAAEGoYAAqdhLiUNgQAEIAABCEDACSBwnAR7CEAAAhCAAAQahgACp2EuJQ2BAAQgAAEIQMAJIHCcBHsIQAACEIAABBqGAAKnYS4lDYEABCAAAQhAwAkgcJwEewhAAAIQgAAEGoYAAqdhLiUNgQAEIAABCEDACSBwnAR7CEAAAhCAAAQahgACp2EuJQ2BAAQgAAEIQMAJIHCcBHsIQAACEIAABBqGAAKnYS4lDYEABCBQGQIDAwN28OBBO3DgQFU32SBbxgrYWd71aRSeY/lDPB6BEyfCZwhAAAKTmIBEw6FDh2xwcLDqFE6ePBnZkiRysLP8y1OM58NP7rVXXfG4NX1sQ1W3s+Y+YbIl6bqX0+qKC5wHnthnH1660d40Z7X97mdWRJuOFadzBAhAAAIQqF0C+pZfC+LGCemhLJviATvjREr7XIhnLYgbF1cSOUnXvbRWDqWqmMBp33XI/v5b6+wll36v4KY0SkuAAAQgAIHaI6BpqVoLSTYlxVXb7iSbkuJq1U4XF7Wyz8quIgJHIzMarSkmbvy80jKaU20Xp34IQAACowlkfaiMLjF7TJJNSXHZa8pWQpJNSXHZasmeO8kmxdWKsHE7kuwsp/WZBY5GY8oRN6HIYSSnnEtFWghAAALjTyDrQ2U8LEyyKSlurLoHO3fZkU990Xpf+3Z79nkvjzYdK07nOo8M2qd+eshee+8+e96tu6NNx4rTuVJDkk1JcWOVV8zOU4d32Yn1X7SB77zd+m96ebTpWHE6V2pIsklxLixqZZ9kZ6ltVLrMAqeUaSkXNfG98pYXemzZR3OW++gy6/GMR9utZVrOchcstY7S/dBzJ+/3LrNZuZzNWj5Uy8CGVrvwQy22pjc5uWLb5+Usl2ux9rGTcAYCEIBAzRPI+lAZjwYm2ZQUl1R3/4IlQ6Km6WX2bML2pX9ssddd85Q13dKVuD3v1i5b8NTRpKJHxSXZlBQ3KqOZFbPz6N+82E5c+SLrX/iy5O2ml9vgliVJRY+KS7JJcbUibNyOJDtHNaZARCaBo2mmuGgp93N5U1VxgdNnKz/TbLmzZ9myrgKtLPdUTOD03D/Lms+eZW17hwvqa7fWT86w2ffnZdY4CJwua7vsQpu+AMlU7uUjPQQgkJ5A1odK+prHzplkU1JcvIRINCSIGhc6X/qHr9nFl2yIttfNeyZR4LjwKUXkJNmUFFeunUfP+y2zf22KthNf/q1kgTMsfEoROUk2Kc6FRa3sk+yMsyv0OZPA0ZtR5QqaeHqVUXoYKXC6ls+y5tx0a9kw9u8klF52kDImcIIzQ4cJ5ys/gtNuLbmc5eYhcEbxJwICEBg3AkkPlTnXPGznf/Bue/GrvhJt19+0Pl//mkc6o7jXT/mmde46GB2/ItcSnb//wa32yrNa8vl0fPDQ8Xxe5VGZn/niQ/m4pIMkm5Liwrya7ommo8YQOGtfNsU++ukhcSORc9GnHrMX3rBjTJGjkZxi01VJNiXFlWPngZe+1Ox9Z+QFjoTO8W++ZGyRc9PLi05XJdmkuLGEzcH+wtMjU659yj7ftidsVsFjpT3zqs3We2xkuTc9sn+EDUl2Fiw4djKTwNHr33HB4p8/fufjtv/oiWjTscfH9yqj9HBa4HRsvM6m55pt1vKRQzc9y2dZLjfLFj2wyC4857RA6FnfapdMm2K5XM6mTLvEFm0KRFHPOmu96FxrzuWs+byhvOEUlZe5TCM4G1qiMlTO0DbLFD9C4Ax22bKLmi03rcXaNbLZ226LLptp5549lGfKBXNspZvtYmlxmy36kOxrsfbhuNN15KxlwxClgu0oHSQpIQABCCQSKPRQ+fkTeyNBMuX/X5jP+5FPfzeKk+iRoJFgkRhyseMCxkWSZ1xy98Yorc7/3b8s9ujEfZJNSXFhZq2v8ZGapP3HP3BnfvTGR3HOvmrLmAJHIzlak1MoJNmUFBeWUczO4zNeMELcSOCc/OwLxhY4C18WrckJ64gfJ9mkuCSBc8HiTtu+fyB/TscKnlZiRcJEIkhCR/Ha//Cpw/k0nlaiRpvSStyo7N+8dKNt2HUsKsPT+T7JznhbCn3OJHAKLS6WuPGg47iw8c8qo/QwLHDOn2WzpuVs6tXrLJApUTFDYiRnzRcts65hcTiwoWVIDN2+2Xp6u2zNVdMtd/ZsW6k1NYObrVVreKZdbks3dFnPtjV23fuaI/Hia3BGCJzBAevbstQuzOXswts3W19vnw0MhgJnwNrnqfxg2mzjIrv8znbr6u2znk1LbZaEjq8jcjGj9DuGSaiO3jU2RyLqqjX5Ogq2o3SIpIQABCAwJoFiDxUfdVEBGo2RQNGIjY4lYvRZYsdHdjRqI2EUDxI1KkujN8pTKCTZlBQXlhEtKB5j9EaC598ufXSUwDn/sp8XFDhaeFwoJNmUFBeWUczO5z7wvFEC57kPP6+gwNHC40IhySbFubAI94/tOhYJkT/4wqZIjEiUKHgaCRQFpVOcPocCR0LnB8ObhIzOS+SE4mbZxoP58rxc7ZPsjCor8U99Cpx/b7GWcIQkaOyQGJlqrVs8ssfaLspZ7tNt1udRfSttthYRaw3NxuusOddsc9YGUmnbUpsRLDIeIXBUho+6DC9CVpSP4KxZ32JTi0ybedpo8mm4rKkLN7t1w/v4FFWRdsRy8xECEIBAGgLFHiouSCRgJGQkTjSKoyDRos86J8Hzl3+3MPqsuNlfOj0N5SNByu8jOcozVkiyKSkuzF9oekoC5+PDa2989GZommpDQYGjN6wKhSSbkuLCMorZaReMnJ6K1uJccEZBgaM3rAqFJJsUF4oLHftoi46//sN90TSUBIpGYBQnkaK9RnB0rPQSN6HA8c/aK0jkKI/nkzBSmR4X7pPsLNSu+LlMAqeaU1Q9e9uikZBwpEaNGyVGbFgo5KeUfGpp6C0pLSDWlFY0/eR0YgJmVJmx88o2JFpm2Ix35yx32crTYkon+zZb281z7JLzZ9iM84ZGh/JvXCWUNWRGXOAUboebzh4CEIBAFgLFHio+DaXRGh/N0XSUgoSMNg8SOT6FpXjlUfA45fORHomdsUKSTUlxYf5iwuGiT51ef+MiR3G+qDhpP9kEjoSLpqAkOiRetOlYYkd7nXvXDR2m0R19VnoJGcX5FJXSfG540/Xx8pReokhiyctVXLgVu8bh9U46ziRwqr3IeGjKJmfT57Xnp6pGiREbHvm4rC2aItKUUn7ToM16ralpzq9xiSBtarWpaUdwhqfDZi7cPGxTly29QFNSrda+o8/6+gZsXfhKeckCp0g7kq4ucRCAAATKJFDsoeLTUr542NfP+KiMRm3iwUd9lNbzuxjyvY8CxfPqc5JNSXFh3mJTP++/9KdMUQXAxDMUFxpVUZB4kWhxkSIx4oJGYkXTT8qnOAWlVbwLHH32TQJIaSWQbgyOtR4naRSn2DWOKizwJ5PAqf5r4gPWPn96JFCi6abEERyz6DXv3PT8Opi+He227OqlQ79ZM7DO5mhNzLQ5tmxTl3VtWmZz3je1sMDpaYt+J2fqlW3WsWmdtff4CM7Q7+AMvd3lC6Db7bpozc0i27y3z7o2tA6twfHfzCkgcIbytVr7tnXW/nSRdhS4yJyCAAQgUCqBUh4q4dSTRnQUfKrJ34jS6M57PnS3feTS+/NvUmmUxtfp6LwEj09rvf5t88c0McmmpLiwgGKLdz/+gbtHCRwWGZ8eQZFI2bZ/IBI22kucaK2Mpphc7EjcKLT8cJ99Z+PQKJ6Ei+I9r6f1vdJq1EZTU8qjeAkcX58Tiqxi1zi83knHmQSOCqz6D/35G0vDi3pHj+DIygHrWD7HZvr00DnT7ZJ5a/I/Fjjw9DKbc4HeYGq2cy9qtXUbR/7Q3+gyB2zzzRfaFE17nTPbVsYEjuqLFhoPr8XpenCOzdQbXbkpNnPeGmu7WsfDPwo4psAx63rwcpshcXT2udYaienC7Ui6wMRBAAIQKIdAKQ8VH5GRSPHg004SPJp60ptULmC0lwBS8GmtcOGxixyN7iSFJJuS4sK8xV4T//HvnWMfq4fXxH/nJWYzR67DmYjXxCVoNArjm0ZYtPnnLHsfBYqX4VNfLnKKXePweicdZxY4/KuGJKzEQQACEKhPAlkfKuPR6iSbkuLidRf9ob9pX8+P4rzu608XXH9TzR/6O/bO4If+vvSbBRcY80N/p70gs8BRUZqqKvTKuL8S7nulLe8XjE8bzBEEIAABCIwfgVKEw/jVnlxykk1JcUm5i/0LhC/949fr4181/O1/5V81JF3gAnEVETgqXyM5pUxXKQ3/ZLPAFeEUBCAAgSoSKFU4TKSJSTYlxY1lU7F/Ysk/2xxayO1TQ7WyL+caJ137igkcL1wjM3q7Sq+Qa6RGm44Vx6iNU2IPAQhAoDYJZH2ojEerkmxKihuPusspM8mmpLhyyhyPtEk2Ka5WhI3bkWRnOTwqLnDKqZy0EIAABCBQWwSyPlTGozVJNiXFjUfd5ZSZZFNSXDlljkfaJJsU58KiVvZJdpbDA4FTDi3SQgACEGhwAgcPHrTBwZH/BLGaTT558qTJpnjAzjiR0j4X4vmqKx6vGZFz1twnEq97aa0cSoXAKYcWaSEAAQg0OIGBgQE7dOhQTYgcPYxli2yKB+yMEyn+uRjPh5/ca7UgciRuZEvSdS/eytMpEDinWXAEAQhAAAL65bCBgejbs6YIqrlplKbQQw47y7s+jcKz1JsUgVMqKdJBAAIQgAAEIFA3BBA4dXOpMBQCEIAABCAAgVIJIHBKJUU6CEAAAhCAAATqhgACp24uFYZCAAIQgAAEIFAqAQROqaRIBwEIQAACEIBA3RBA4NTNpcJQCEAAAhCAAARKJYDAKZUU6SAAAQhAAAIQqBsCCJy6uVQYCgEIQAACEIBAqQQQOKWSIh0EIAABCEAAAnVDAIFTN5cKQyEAAQhAAAIQKJUAAqdUUqSDAAQgAAEIQKBuCCBw6uZSYSgEIAABCEAAAqUSQOCUSop0EIAABCAAAQjUDQEETt1cKgyFAAQgAAEIQKBUAk1btmwxNhjgA/gAPoAP4AP4QCP5QNOJEyeMDQb4AD6AD+AD+AA+0Eg+gMBB4CFw8QF8AB/AB/CBhvMBBA5O3XBO3UjfQGgL36jxAXwAH0jnAwgcBA4CBx/AB/ABfAAfaDgfQODg1A3n1HzbSfdtB25wwwfwgUbyAQQOAgeBgw/gA/gAPoAPNJwPIHBw6oZz6kb6BkJb+EaND+AD+EA6H0DgIHAQOPgAPoAP4AP4QMP5AAIHp244p+bbTrpvO3CDGz6ADzSSDyBwEDgIHHwAH8AH8AF8oOF8AIGDUzecUzfSNxDawjdqfAAfwAfS+QACB4GDwMEH8AF8AB/ABxrOBxA4OHXDOTXfdtJ924Eb3PABfKCRfACBg8BB4OAD+AA+gA/gAw3nAwgcnLrhnLqRvoHQFr5R4wP4AD6QzgcQOAgcBA4+gA/gA/gAPtBwPlARgXPgwAHr7Oy0rVu32pYtW9hggA/gA/gAPoAP4ANl+YA0hLSENEUlRq0yC5zu7m7bvn279fX12alTp4wAAQhAAAIQgAAEyiUgDSEtIU0hbZFV5GQSOFJZMgRhU+5lJD0EIAABCEAAAkkEpCmkLbKO5GQSOBpKktoiQAACEIAABCAAgUoRkLaQxsgyipNJ4Gi+jNGbSl1OyoEABCAAAQhAQASkLaQxqiZwtKCYAAEIQAACEIAABCpNQBoDgVNpqpQHAQhAAAIQgEBVCSBwqoqfyiEAAQhAAAIQGA8CCJzxoEqZEIAABCAAAQhUlQACp6r4qRwCEIAABCAAgfEggMAZD6qUCQEIQAACEIBAVQkgcKqKn8ohAAEIQAACEBgPAgic8aBKmRCAAAQgAAEIVJUAAqeq+KkcAhCAAAQgAIHxIIDAGQ+qlAkBCEAAAhCAQFUJIHCqip/KIQABCEAAApOPwM6dO+2+++6zefPmRZuOFVfJgMCpJE3KggAEIAABCECgIIEnnngiL2xc4Phe5yoVEDiVIkk5EIAABCAAAQgUJHDo0CG7/vrrI4GzePFik6DRtnDhwihO544fP16wjFJPInBKJUU6CEAAAhCAAAQyEdiwYUMkZObPnz9CyEjUKE4jOUpTiVB3Aqe9vd2uvfZa6+/vz7d/0aJFdsUVV9jBgwfzcRxAAAIQgAAEIFBbBNauXRuJmLvuumuUYYqTwFGaSoS6FzgrVqwYJXjKAdPZ2Wlz585FHJUDjbQQgAAEIACBFAQQOAWghSM4Os46coPAKQCbUxCAAAQgAIEKEdi3b59pUEKjNEuWLLFdu3aN2BSnc0qjtFlD3Y7gyPCkkRdNU0n0XHzxxdEWTme5OFqwYEF07t57782nU3pNdSlo+kv5vAyP1zmB12dtfl5xHoqdV74wvexVOyS0ksp3Aac8pdRXLL3X4WV5esXH+egzAQIQgAAEIJCVgJ5hEi/lbKtWrcpUbV0KHD2UtbkoCAnooewPZhc7/ll7Pdj9s/LFR3Bc3LgI8c+ex4WGf9Z+9uzZeVuKnS9F4IQ2upBye1RfKEri9ZWSPhR9yq88Cio7rDvkyjEEIAABCEAgLQFfX1OOwElap1NO/XUpcCQo9JD3h36hBoeCQg/w8OGufHGBE/+sNMrnIiAUBDqXJIA8bdL50B6dH2sER+cU4oImS/q4rSpf5YmJ9kl8hqzgLwQgAAEIQCA9AQROCez8Idzd3Z0ocvwh7lMw2rsQ8rxK4yEuaJQmzOvHLowmWuDIPk2puc3FBE6h9MorYeht8r2PQCXxcU7sIQABCEAAAmkJIHBKIBc+hPUw18NZcQoubvyz4sIRkzCvVxUXOHGB4Ol8X88CR3wkltTGpJDEJykdcRCAAAQgAIFyCCBwSqAVfwjrs49AxEc3fMSinBEcF0meJ25SVoGj/D4apLIlwNx+fY6XHxdc8TamSR/WH7YvzjY8xzEEIAABCEAgLQEETgnkkh7CeshrukXn/FifNR2jh7niFJLyKl4iQ+m1V3Bh5FM4XrbOxQWFCyKVXcp5T+9lr169OvEtqqiw4TVClZqi8jK9vW6Dt3ssPp6PPQQgAAEIQCANAQROGmrkgQAEIAABCECgpgkgcGr68mAcBCAAAQhAAAJpCOg3bcp5RVxpJ93v4KQBSx4IQAACEIAABCYXgbr7HZzJdXloLQQgAAEIQAACaQggcNJQIw8EIAABCEAAAjVNAIFT05cH4yAAAQhAAAIQSEMAgZOGGnkgAAEIQAACEKhpAgicmr48GAcBCEAAAhCAQBoCCJw01MgDAQhAAAIQgEBNE0Dg1PTlwTgIQAACEIAABNIQQOCkoUYeCEAAAhCAAARqmgACp6YvD8ZBAAIQgAAEIJCGAAInDTXyQAACEIAABCBQ0wSqKnC2bt1qp06dqmlAGAcBCEAAAhCAQH0RkLaQxjhx4kTqrSlL5s7OTuvr66svalgLAQhAAAIQgEBNE5C2kMbIolEyCZwDBw7Y9u3bGcWpaTfBOAhAAAIQgED9ENDojbSFNEbVBI4q7u7ujgyR2mK6qn4cCEshAAEIQAACtURAGkJaQuJG2iKLuFHeTCM4XrlUloaSNF+mRUFsMMAH8AF8AB/AB/CBcnxAGkJaIuvIjWuTiggcL4x9+sVQsIMdPoAP4AP4AD5QOR9A4GRYoY0jVs4RYQlLfAAfwAfwgUr6AAIHgZN5nrOSDklZdHD4AD6AD+ADlfABBA4CB4GDD+AD+AA+gA80nA8gcHDqhnPqSih/yuAbJD6AD+AD9e0DCBwEDgIHH8AH8AF8AB9oOB9A4ODUDefUfOuq729dXD+uHz6AD1TCBxA4CBwEDj6AD+AD+AA+0HA+gMDBqRvOqSuh/CmDb5D4AD6AD9S3DyBwEDgIHHwAH8AH8AF8oOF8AIGDUzecU/Otq76/dXH9uH74AD5QCR9A4CBwEDj4AD6AD+AD+EDD+UBFBA7/bJN/qFbOP1QjLf6CD+AD+AA+EPeBmvtnm/qX5vrX5voX5/pX5wQIQAACEIAABCBQLgFpCGkJaQppi6zTVJlGcDRyI0MQNuVeRtJDAAIQgAAEIJBEQJpC2kIaI4vIySRwOjs7I7WVZCBxEIAABCAAAQhAIA0BjeRIY1RN4Gi+jNGbNJeOPBCAAAQgAAEIjEVA2kIao2oCRwuECBCAAAQgAAEIQKDSBKQxEDiVpkp5EIAABCAAAQhUlQACp6r4qRwCEIAABCAAgfEggMAZD6qUCQEIQAACEIBAVQkgcKqKn8ohAAEIQAACEBgPAgic8aBKmRCAAAQgAAEIVJUAAqeq+KkcAhCAAAQgAIHxIIDAGQ+qlAkBCEAAAhCAQFUJIHCqip/KIQABCEAAAhAYDwIInPGgSpkQgAAEIAABCFSVAAKnqvipHAIQgAAEIACB8SCAwBkPqpQJAQhAAAIQgEBVCSBwqoqfyiEAAQhAAAIQGA8CCJzxoEqZEIAABCAAAQhUlUDdCZz29na7+OKLbcWKFaPALVq0KDF+VMIJjjh48KDNnTvXOjs7K1azOFx77bXW39+fL1Ptv+KKK0z1VTvo+sTtG8umLHyy5B3LHuIhAAEIQKD+CdSlwNFDXIIh/iCfzAKnHEGR5LbVFApZ6s6SN4kDcRCAAAQg0BgE6lLgaGRgwYIFJkEThskqcDSak3XkpppCIUvdWfKGvsMxBCAAAQg0FoG6FTjd3d3RQ10Pdw9xgaNRDU1n+eZp/aG4evVqmz17dn7KS/ESCkofFwzhubGmyNwOTRtJhHm9d9xxx6gpqtC2sK5S6/EpKl3ApNGsuA1hHZ5XIlE2rly5Ms9Bn8OppbHs9DLuvffefDtDwennZUcS79CeYufFNbRDNqp8Bc+rzypT53RNw+nAOIvQTpUrDmqz51Ne94uwLr++7CEAAQhAoPYJ1K3A0UPLH2p6yCmEAkfn9fDVXkEPMn9wK70ehv7ZH2j+0PUHovIoePr4QzV8iEYJzaL6VK7nVbzs8oenPoe2+Gd/6MbboAuUFLztsjnJDsVJwCnE26O88Qe3C4WwrEJ2ehneTuVTG52R9s7X+flnt8fbXOy80he7ln7t1F7V7Z+9LrfTP7udig+vTfy8bAuZJF0L4iAAAQhAoPYI1LXAEc5QEITHcdR6SPlIR/xh7g81fwgqr479ARw+rL1cnQ/Te3xYj8eF9Xld/oBVGp3Xw1971en1ev6kvfLrwawHeZId8TzF2hPaqLzF7ExiEvIPz8fLVvnlnI+3JWScVHZoe5jWy1HdzjjkEra7FKZeHnsIQAACEKg9AnUvcPQA81GM8AEr1HqQaaTCN/9Wn/RQVF6l9xA++HTsZYR7f0h6Hq/TRyo8PqxPx7IjLEfH4SiCylVcvBwvL6zHp+qSHshejtfl9obiwssMbVRcMTuTylD5bkd4Pl52aL/ESLHznt7boX2ha6n0skU2aAvz+bGzDa+z8im4QFJaZzZ8ih0EIAABCNQJgboXOOKsh5QeWFpLkfSAVZrwm3zSA9UfiH7dwgefHpKlPujCerysUITp4Sk7FVcseLuUJx5CAaGywukhpZW9zkKf4+3xB7yXG2dSzM6wfi8jrDM8Hy9b6cs5H6ZV3pBxUtkuUJRPacU7iaHKCrl4O8K92lTqtQ/zcQwBCEAAAtUl0BACxx9o+sbtD/X4g0ufC33r10NMD0QPYX49RJU3PO/p4ntP63bovMoOR2h0Li4wlE7tCNeaxB/sYV3xc/rsdTgPt9c/+4M6nlflJgmFsexU+qQyVL63OzyfVHY551Wm26669Tm8ljqOn3e+3na3K2ToZYV5Zet9992XTxavO3+CAwhAAAIQqGkCDSFwRNhHMfxB5kLDpyT0LX6sNTjKr4ecHroe4g82L9/LczHh6cN9vG4t9lXdKsOD6vOytPeHbBjvD3HPE+5DgeDxslll6Zw2L1+2qv1eR1JeleH5XRwoLrQntDOpDKV1/uH5rAInzjPpWoZvc8W5xfM7I2+zc9FnF0TOLmSh8wQIQAACEKgPAnUncOoDK1ZCAAIQgAAEIFBNAgicatKnbghAAAIQgAAExoUAAmdcsFIoBCAAAQhAAALVJIDAqSZ96oYABCAAAQhAYFwIIHDGBSuFQgACEIAABCBQTQIInGrSp24IQAACEIAABMaFAAJnXLBSKAQgAAEIQAAC1SSAwKkmfeqGAAQgAAEIQGBcCCBwxgUrhUIAAhCAAAQgUE0CCJxq0qduCEAAAhCAAATGhQACZ1ywUigEIAABCEAAAtUkgMCpJn3qhgAEIAABCEBgXAggcMYFK4VCAAIQgAAEIFBNAlUVOFu3brVTp05Vs/3UDQEIQAACEIBAgxGQtpDGOHHiROqtKUvmzs5O6+vrazCsNAcCEIAABCAAgWoSkLaQxsiiUTIJnAMHDtj27dsZxammF1A3BCAAAQhAoIEIaPRG2kIao2oCRxV3d3dHhkhtMV3VQB5GUyAAAQhAAAITSEAaQlpC4kbaIou4Ud5MIzheuVSWhpI0X6ZFQWwwwAfwAXwAH8AH8IFyfEAaQloi68iNa5OKCBwvjH36xVCwgx0+gA/gA/gAPlA5H0DgZFihjSNWzhFhCUt8AB/AB/CBSvoAAgeBk3mes5IOSVl0cPgAPoAP4AOV8AEEDgIHgYMP4AP4AD6ADzScDyBwcOqGc+pKKH/K4BskPoAP4AP17QMIHAQOAgcfwBn6XSIAACAASURBVAfwAXwAH2g4H0Dg4NQN59R866rvb11cP64fPoAPVMIHEDgIHAQOPoAP4AP4AD7QcD6AwMGpG86pK6H8KYNvkPgAPoAP1LcPIHAQOAgcfAAfwAfwAXyg4XwAgYNTN5xT862rvr91cf24fvgAPlAJH0DgIHAQOPgAPoAP4AP4QMP5QEUEDv9sk3+oVs4/VCNtY/lLJf9BHn1JY/kG9zrXsxwfqGRfohGgzAJH/9Jc/9pc/+Jc/+qcAAEITC4Cuu91/6sfUH+QdmiZvmRy+Q2thUCcQKX6Eu+DMgkcfdtSp4awiV8mPkNg8hFQP6D+QP2CdzCl7ulLJp+/0GIIjEUgS18S9jmZBE5nZ2f0zW0sI4mHAAQmFwGN5KhfCDuZUo7pSyaXn9BaCBQjkLYvCfubTAJH82WM3hS7TJyHwOQhoP5A/ULYyZRyTF8yeXyElkKgFAJp+5Kwv8kkcLR4iAABCEAgJKB+IexkSjmmLwkJcgwBCIhAmr4k7G8QOPgRBCBQUQJpOiUETkUvAYVBoCEIpOlLEDgNcelpBARqk0CaTgmBU5vXEqsgUE0CafoSBE41rxh1Q6DBCaTplBA4De4UNA8CKQik6UsQOClAkwUCECiNQJpOCYFTGltSQWAyEUjTlyBwJpOH0FYITDCBNJ0SAmeCLxLVQaAOCKTpSxA4dXBhMREC9UogTaeEwKnXq43dEBg/Amn6EgTO+F0PSobApCeQplNC4Ex6twEABEYRSNOXIHBGYSQCAhCoFIE0nRICp1L0KQcCjUMgTV+CwGmc609LIFBzBNJ0SgicmruMGASBqhNI05cgcKp+2TAAAo1LIE2nhMBpXH+gZY1H4NChQ7Zq1SpbsmSJzZs3L9p0rDidq1RI05cgcCpFn3IgAIFRBNJ0SgicURiJgEBNEpCIcVEz1l5pKhHS9CUInEqQpwwIQCCRQJpOCYGTiJJICNQUgcWLFxcVNy567r777sy2p+lLEDiZsVMABCAwFoE0nRICZyyaxEOgNgjER27uuusu27dvX964nTt3WlwAZR3JSdOX1ITAaW9vt4svvnjEtmjRojysQgcHDx60uXPnWmdnZ2IyxV9xxRVjnk/MFESuWLHCCtmi89dee6319/cHuUo7DPOqDtmp9iQFZ6S9gto1e/ZsUxlJQfbIrrFsU31elqf1zypPx55XaQsxSKqfOAiIQJpOKa3A0b0Q9iN+b5TaB4Q+X4mrl6W8Um2uhJ2FyhBD7v1ChCbfOa2r8ZEZ7W+88cYIwvHjx+2JJ56wDRs2mI7j6ZQ2y5qcNH1J1QWObp74g10PecW7aNBnpVGHoS1MHxc4lb4hK12e3w7qwCTMXNCovfrsnbKn094FiDpvtV/B84dlhHmUTuldpITnPK/X7eV72UqrY8+bdD4sj2MIjEUgTaeURuDo/tHmQT67evVq/1jSPvT5kjIUSVTJ8uL3bJGqK3Z6vPq/ihlIQRNOID56I+Fy3333RULHhY8/xzSy43HaZxnFSdOXVFXgVKIDqFeBo87YnUAe6gLHRUXoteIkIaNNxwrq8CT0XPiF6V2QqMyk8lRvWLen97JVVvzaKH34AAnr4xgCYxFI0ymVK3CS/HcsewrFx32+UNpSzlWyPAROKcRJMxEE4lNPoYDxY43kKMTT6u2qtCFNX1I1gVNqp5R0Y4cP21Dg6AEcDlGrgwnPO1jl93TKoy184Hs67b2ueB5PE+/EwnThSJOn1z7JJtlw7733RoJEZYZB59atWzfinHPRt9S4iNG5BQsW5POItQcd65zSeEi6FvF2eX2ynQCBUgmk6ZTKFTiyxe/jJLvGut+8D/D71H1e96GfU7lhUBo/pyliv4+8Ds+rfJUoT+WHdaput6lQX6M0bqe3T+0YqyxvY3he+e644458fUqjdirey5YNhMlFwEVM0v7pp5/OT0NpHU5SmrS00vQlVRM43iF4BzFWo5MerLqp/CaPlxOeU5lJ50NB4Df0WDeq4nUz+3kXA/5Z+b28uK36rPrjIZ5O59UelRmWp3hP293dnShw4vGFytK5ePmK8zbpnId4ujhHT8ceAoUIpOmU0ggc92Hdq6Efy7a47+pe8/5D5/XlQWmUL7zXde9JxHh52sfFgt/7yq9zYblZy9OIrWxQ8H5A9Yz12c8Val8oypxZ2JeF7fP2e5u8jc5Dn0MbI8P40/AEkkSLx2mNjRYbJ01jeZq0gNL0JTUlcLxDUCfjN1r8xhYc3ZDhTRfeZOE5pQ1vQr+h/QZ10CrLb3KP8328PMUrv3ds4bFsld3aFwo6r1EU2ePBbQjt1TmPj9secgltDOND28J64u2Pl6208bxJabxM9hAYi0CaTimNwPH6/SHs/Yfiw3sqvD88j+/jPq94v//ix/qse8JHQ8M6xqO8uN36nNTXxNO5LUn2Ky5sc9hWzxf2LWHa8PxYfaenYd9YBOLTTi5ctNcCY/lDGBceK2/akKYvqZrAKfTADG/S8NjBhDddvGMJzyl9eD489rK0T7qx/Xy8PMXLJhco8Zte5/QtKembpJcZ5ve40AavM7Q3zivkEqbzvCo3bpvSSZhpH4awo/Z45ZVNHuL1ezx7CBQikKZTyiJw3BbdB/4lJLw/4veEp9c+6Zzfl+7/uq/jm/KFdXiZlSwvvN+9/KS+JqlOpXf7dT4MXm7SSLDShf2JjuNt1+ewnwjL5rgxCRQanQnFTNLxpFpkHN48oSv4TadOIzz2NGG+eMcSnlP68LyO9a0nvMn9xle+pBAvT2nCTiQ8DvMn1eXnk9rkHanSKK8653D+2+102+NlyE6lD0ez4rYltcXrC/MpLp5W9fu3VW8HewgUI1AtgRPeH2EfEMbHbY/fLzof3pc69vsvnjesw89VsrxCdod9TaF0YVvcRqX3L2tJ5xWnTUHt8WPPz37yEUh6/VtiRm9MKYy19kZpJtVr4v7Q9m9a7irhTRrevDqvcxoh8Rst3rHEH8zx88oX1qebVt9ClC8pKD6ct47bE3ZiOtam4G3zz2HZcZt0TnaFNuhzWG+8vJCR8se5KC60rZBACdMpX7wuL18iSLYTIFAqgYkQOPJXLe7V3oPuJb/Pw/vNfdv7D6UP1+B4Hi8nvC91n4RTX55G+7AOj4/fV4pPW178flfZ2hS8Tfrsx2O1L6lP8X5H+7B98T5FbYx/QfS2sp9cBJJGcYoJnCyjN6Kbpi+p2hRV6A66GeNDn37zKp2O/bw6IHVmfgPHOxa/CZVe+eLnvQPw8lSONr/JQ7t0rHh9w1G9nidMqzq8U/QOISldvNx4nfHPKsu/WSmv2+1c4h2e0qgMP6/PcdvC8vy8bPVOzetQXNhGT6vyCRAoh0CaTkl5yg3yTb/vtPd7UuUU6wM8bXi/eP3x+1L3RVI98TqUv9LleRu1L9TXhPdxnIVsCu2P3+dh+8Ql7GvVpni9oWByZuwnB4FCa3Hi01P6nZysIU1fUhMCJ2vDs+T3zkA3/kSGJIEynvXHO+py6qoWo3JsJG1tEkjTKaUROLXZeqyCQGMTSBrJiYubrCM3TjBNXzLpBY6+sfgIhoOcqL3q9m+P41mnvl2qHu3TBIkjbQQIlEsgTaeEwCmXMukhUD0CWlcjEROO6OhYcVnW3MRblKYvmXQCJxyC1VBttcRN/OLxGQKNSCBNp4TAaURPoE0QyEYgTV8y6QRONsTkhgAEyiGQplNC4JRDmLQQmBwE0vQlCJzJ4Ru0EgJVIZCmU0LgVOVSUSkEappAmr4EgVPTlxTjIFDfBNJ0Sgic+r7mWA+B8SCQpi9B4IzHlaBMCEAgIpCmU0Lg4DwQgECcQJq+BIETp8hnCECgYgTSdEoInIrhpyAINAyBNH0JAqdhLj8NgUDtEUjTKSFwau86YhEEqk0gTV+CwKn2VaN+CDQwgTSdEgKngR2CpkEgJYE0fQkCJyVsskEAAsUJpOmUEDjFuZICApONQJq+BIEz2byE9kJgAgmk6ZQQOBN4gagKAnVCIE1fgsCpk4uLmRCoRwJpOiUETj1eaWyGwPgSSNOXVEzgbN261U6dOjW+LaR0CECgbgioP1C/EHYypRzTl9TNJcZQCEwIgbR9SdjfNIUfyj3Wf8fu6+ubkMZSCQQgUPsE1B+oX6Avqf1rhYUQqGUCafuSsO/JJHAOHDhg27dvZxSnlr0E2yAwQQT0jUv9gfqFsJMp5Zi+ZIIuEtVAoA4IZOlLwv4mk8BRQd3d3VGnJrUlowgQgMDkIqD7Xve/xI36g7CDKeeYvmRy+Q2thUCcQKX6Eu93MgscFaRvXxqW1jy6FgWxwQAfmDw+oPte93+akRvviHxPXzJ5/IY+gmsd94FK9iXqUyoicLxzYn8i9bdX2MEOH8AH8AF8AB+onA8gcE5UDiaOCUt8AB/AB/ABfKA2fACBg8Bh1AkfwAfwAXwAH2g4H0Dg4NQN59R8e6qNb09cB64DPoAPVNMHEDgIHAQOPoAP4AP4AD7QcD6AwMGpG86pq/mNgbr5xooP4AP4QG34AAIHgYPAwQfwAXwAH8AHGs4HEDg4dcM5Nd+eauPbE9eB64AP4APV9AEEDgIHgYMP4AP4AD6ADzScDyBwcOqGc+pqfmOgbr6x4gP4AD5QGz6AwEHgIHDwAXwAH8AH8IGG8wEEDk7dcE7Nt6fa+PbEdeA64AP4QDV9AIGDwEHg4AP4AD6AD+ADDecDCBycuuGcuprfGKibb6z4AD6AD9SGDyBwEDgIHHwAH8AH8AF8oOF8AIGDUzecU/PtqTa+PXEduA74AD5QTR9A4CBwEDj4AD6AD+AD+EDD+QACB6duOKeu5jcG6uYbKz6AD+ADteEDCBwEDgIHH8AH8AF8AB9oOB9A4ODUDefUfHuqjW9PXAeuAz6AD1TTBxA4CBwEDj6AD+AD+AA+0HA+gMDBqRvOqav5jYG6+caKD+AD+EBt+EDTli1bjA0G+AA+gA/gA/gAPtBIPtBkBAhAAAIQgAAEINBgBBA4DXZBaQ4EIAABCEAAAmYIHLwAAhCAAAQgAIGGI4DAabhLSoMgAAEIQAACEEDg4AMQgAAEIAABCDQcAQROw11SGgQBCEAAAhCAAAIHH4AABCAAAQhAoOEIIHAa7pLSIAhAAAIQgAAEEDj4AAQgAAEIQAACDUcAgdNwl5QGQQACEIAABCCAwMEHIAABCEAAAhBoOAIInIa7pDQIAhCAAAQgAAEEDj4AAQhAAAIQgEDDEUDgNNwlpUEQgAAEIAABCNSlwOnef8TuXrnZrrntUZu3ZL1do+22R0ftr739Ubv+7p/ZivXb7dCRAa42BCAAAQhAAAKThEBdCpzvrHrKXvtPN9jLzv2G/c5fXZvf9Nk3j//d/+8b9sf/8G2betGdtvqxndY/MDhJLi3NhAAEIAABCExeAhUXOEeOHLE9e/ZYR0eHbd26Ndp0rDidq0T4+pL19vw3X2VNZ15Z8vbrb7na3jnrDnv0ye5KmEAZEIAABCAAAQjUMIGKCZz+/n7bsWNHtPX29trAwOkpIR0rzs8rbdow+Nwpu3Lhj+2M15cublwI/dZbW+y9V7SlrZp8EIAABCAAAQjUCYGKCByNzGi0RiKmWFAapU07mtN3bMAubvn+GCM3X7amMwtvb3v/rcVMHHH+1KlTJlF14uRzo7aTg89F506dGpFlQj4MnjI7Ibue0z7cTtnJ507ZcxltUv6T+ToyFjYhRKgEAhCAAAQgcJpAZoGj0ZhyBYsLojQjOVt2HrB3fvyu0QLnT6+wptf8hzW95rLk7bWfs6Y/vcLe9m/lCZy+IwO26qc7bEnbJrvtgSds8X8+Hh3r8z0rt0TnunuOmMTORIYf7+23u7YdsSXPHLHbnjlii58+bEueOWx3dBy2h7r67alDJ00iKG3Yfvik3b/jWFT2HR2VmVpMawv5IAABCEAAAuUSyCxwNO1UyshN3DCfsorHF/v86JN77Kx/uWmkwPlfX7KmP77UznjlRwtss+yMV3/SXjfzRvvJvuM2UOIQx8+e7LbzPnyH/f5fXzdie/l537RX/M18e+30G+zcC2+35T/cagcOpZ96K9ZuP6/RopPPmZ3btsf+4PYd9vux7Q+X7rBX37XT3vrd3XblY72251i6RdU3be2z3LJdpvJed/cur549BCAAAQhAoC4IZBI4GomRwEkblLfcqao1j+2010xfMFLgaPTmVRfbGX/4wcLb6y6x3/jgnTZ1RbdphEJTMMXCsh9stVf+7fyoPq37+dU3z7Vfa/6q/fIbr7IzXv+VKP4X3zDH3vKvt9iaDTuLFZf5vKafuo4O2h8s3WFNN3TYGTd02PMWbrMX3LzdfuXGbfaLrdui+F9s7YjEz72dR+2oFFGZ4aM/7rHfumWozNcicMqkR3IIQAACEKg2gUwCR29GpRm98UYrr8ooJyz+3hP2h8OCwxcPN73uC3bG//h4YXEj8fNnn7emz6+xF96y3RY/fcT6tHilSPjaonXRa+iq61fePNfe/v4l9u5Ll1vze26xF0/5el5oaQGz0o536B88ZT/a228vu60zEjK/etM2kwD5Pz/Ya+/8Xrf9zpJO+6WFQyJHAuiitT1lj+JI9533QHckmH7jlu329w/tHe9mUT4EIAABCECgogQyCRy9/h2+LVWuZcqrMsoJH/zqg/bCt7bkhUUkcl77H3bGK2cVFjiv+JA1/fNCa/rGE/ZrN223z/2s1/b1F5++ufCLD5jEi+r57XOusZ8/tc8GTgzazu5DdtHch/J2PP9NV9kXvvVw1BQtTH5OC32fO2WDwwuR/XO4V2JNOSmNx8dZhGUpjUSZxNlvLx4SOL972w5bsLkvWnA8eOqUfe3nB+03b9keiR8JnAtWP2vb+k5E9TynBdOqT/adsmiTmPFjndexRnw0LaX8/+3WTrvkkf1xs/gMAQhAAAIQqGkCmQSOFhdnDeWW8bez7rRfOmtOXlhEAudPPju09qbQFNXZX7Smzz1sTd9+xn7tpm32hZ/12rP9xUdw3vHvt9mvvGlu9Fr67/31N6y3rz8SC1pYLEET1X/mlfait37d5i1eb/3HT9rmbfvt6kWP2PRP3pMf8fn23Y/Zd76/xT43/2H7xFcfsitbfxwJpW/c/lO7+OqVdum8H9ji+zdF+Z3psf4TtnHrPrvsutWRmPrKwp/Yjzfvsy9u6LUXLRoSMX981y5r23ksenNK+eY/echetGhI/EigfGrdftt1dNB2HjlpC7f02fk/3GfvaNtj73qwOypn9Z5+m/3oAfv42v121caDtqn3hG0+eMJedefOSOD83u077PonD7lJ7CEAAQhAAAJ1QaCuBI7eVHrb+xeP/g2cV3/aznjFh0eP4Cju1RdZ01991ZouW2VN1z0ZPbS1XkWLaA8VmKLSaMmRYyfsf77rW/YLb/hKtObmrBk3Wefug7azu8/uf/jpaJrKBc6r//7btui7P48WG7/t/Uuiaa0X/PnV0ZqdF/751aZFya+bfoO99B3XRiNBmuKSGHrv5+6Pzv33t8+z1//vhda173D06vngc89Zx65em3bxPfbSd1xjv/32ayLBtL7jgL3/4Z5omk0C5k/v2WXf23UsWpfTfmDAZvxgnz3/xm3R2pzn39hhN209bA/sOmbTHuqOFiVryulXb9xmv37TNnvJkh2WW9YV7f/rrZ32F/fttlV7+u3BrmNRWpUvofPdHUfrwpkxEgIQgAAEIOAEMgmciZ6i2t59yN50fuwNKv3uzf/6rJ1x5qftjNdfOrTlZtsZzV+wM/5qrjWdv8iavvyINc3fEokbLb7VOpUNPXqTyjGM3ut3b7Z2HojenJKIed5Zc+yVf3u9zZrzoH3oy9+zN/3LTfbCP/9atND4l984x97z2fvs23dviESKC6KXn3ddtPj4zeffbP/tbfPsl3JDI0//5c++aud9eKkdHxi01mXt+TokhO5d9VQkrPY8e9iuumlttKBZ5emNrW/dtcGeOXDc/qptTyRSJEBetqTT3rNqn2lRsN6s+u+3Do3ePG9hh715eZct7Thi/7hyr/2Xm7bZL7Rus5cu6bQ3Lu+yP79vt/3h0p1RnMrR1nzvbntk33G7cevhiJHizvzOLtvQc/pHG0eTIgYCEIAABCBQewQyCZyJXmT83Z902Kve9e38tNDQ6MmXrGn6jdb0iTZr+tSKoe3/ft+avvAja2ppt6YFz0QPb3+Iv+DmbTb9oe6Coze6TEf7T9iKn2yLRlx8lCbc6w2q5511VSRyzvznVlv2gy3RaMwvvuEr0YjP/5h6fSRI9Jr5usd328fnPmS/8Rdfi2x/0V9+3T5y5Ypoikpreqb82+IoXsJH6bbvPmR3Pvik/dHfXR8JKMXP/sYq27W3zzoPn7Q/umNn9OaUtyncS8BpjdHv37bDbn7qsM36SU+0XkdvV73w5m32Hz/ttbX7jtuG/QPRlJVGdPzNKwmkpw6diKbvXnzrdjujtcPecm+X7U35qnntuTsWQQACEIDAZCGQSeBM9GviC5Y9Zr/319eNFDhv/Io1fXb1kJCRmPFteFQifPjr+DV37TStO9GvABcKh44cN62b0chLKGz8WKMxf/DOb9p7P3+/ScQ89Mj2aPRG5/UK+bW3/dR6eo+ZFglrUfIzO3vzIzX6R6BfX7w++mVkTYN9+MrvRaJIo0Rnz1wU/YDg33/i7kjcSDDpza3Htuw1Wbz10In8FFS8bfqsERy99fSd7Uet+9hgNO2kV8kl7Gb8YK892z8YlaPFzXrd/G9WdA+N7tzQYf+0Uuefs5mr9tmQ8Omwd35vT5S+ECvOQQACEIAABGqNQCaBo8ZM5A/9XXPb+vwr25HQ0O/QTLnGmq5YO2KUJunBr3Upb753ty3brt+FOVX0ob3/YL995tpV+Teo9F/Jv7jgR/bg2m32g/WdkaiRaNFiY0013fLdx+0Vw6+va1Hyo0/sieLFSOc3bN5rKkN263d19Ps6WlOktT433PNYNFKkqagXvbXFNKX14ilDU1ovecc19v11ndG0lV4Rf6jrWLS+Rm184c3b7Z+/v9ce3HXMvr/7WDS9JAHUdfSk9Q48Z4/3Dtjrv9MVsdHbUHPae+1QMC+nhcdvuW93JJi0LkmvlOvNsr/87u5oCkzlf/jHPbXms9gDAQhAAAIQKEogs8CZyH/V8P4vP2Ca3vFRlCYJnKmt1jR3wwiBo4e1foH3zHt2RWtN3v2DfdEbQmu6++3A8eKvhouahIt+70b/hVz1ac3No5v22LHjJ6MRGb3aHYab7/t5XuBoBEejP7ufPWz6Vw9bO/fbx656MD9FpSmtH7fvssHh/6WwftOeaK2O6vmFaOprTrReRwuPJap6+45Hb27J9vlP9uXbqmmohVsO2/HBU9F6IhXn41L6QUC9ESUGkRi6Zbu9d/W+6AcOD584ZTuOnLRvbe6LXinXFJXW5rQ8fsh2Hz1pL7996Ld0Xrq4067+OW9QhdeZYwhAAAIQqA8CmQWOmun/W6qUH/1TmnL/d5WjfO2MG00/tpcXOG/4ijX9063W1PLz/ENfD/OzlnXZrU8dtkf2HrfH9g/Y9sODJY3aeD3aa73LW/51UfSKuOo794O32979RyOhEabz49U/25mfotK00pn/vNAu/9Yau/7ODfa+z/9nNBLki4zf+t5b7ekdvdHojfJrQfH/veaHI94O0wLmd37kDtu5ty//f640MvOJR/bn2/q6u3faD3cfcxNG7DUD133spL3t/t32ywu3RWt2NH316XX77VtPHrJPrN2ffxVczP7ozp2m/zn1ZO9A9Bq91t9orY+muggQgAAEIACBeiNQEYGjRmskR9NVPmUV/gCgjiVs/Hyaf7KpOn797K9Fa1VOC5w51nTBHdY0b1P+oa+H9aXrD5T9673xC7d990H7/b/+pukH/DQi878vXW4nC/zLgz09R+wjX1kRjfhoqkk26l87aF2NFglr2koCR9vffewu0xofrc9R0BTWfaueMr2NpcXLEkgaMdJUWBie6TsR/X6NFhJre8d/7rbHD4z9hpPK//KG3uhNK/07B7HRpl861i8gazGyl/Wm5V3RK+JtO45Ga3IUr7ew1j97PDSBYwhAAAIQgEBdEKiYwPHWajRHb1fpFXKN1GjTseLK/b9TXqbvz3j9l0+P3px5pTXpteuPteV/38Yf4K1b+uxgsNbE85ez15tMr5x6fbSo+U/+4ds258afFMyutTQbn9pnH7iiLVqYLJHz/DfNtT/9x9botfJ3XXR3tPZGb1dptMbFjQqV2Flwz2P2/DfqBwW/EuVvuXWdDcR+p0c/wKeFwHo1XL9gfPHa/bb7aOEpN62p+dJjvfY/79xpvzD8v6v0Tzrf/f299uEfPZsv6wMPP2uP956IRnE0vafy37d6X/TWVsGGcxICEIAABCBQgwQqLnDGs41/9p6b7az/c5O94d032uvffaO9dsZN9vyvbrCmbz2dH52QyNFbUqX+t/Cx7NWP8D3R0WObnnnWtmzfb/sOFJ+q6R84aRrJ0avfP2nvsvWbdkd59eN927oO2pMdPdGmKSkPEkb/ueYZe820BdHolEZ49Ds7GkEKRZDSHxs8Ff0isdbWbOodiEapiuk4/UPRnuPPRb9OrCm7tXuPR2tztAZHU15e1u5jg3b4xHORMHxiuHyd18JmAgQgAAEIQKDeCNSVwGnfus/Wbdpjax/fbQ9v7LJbfrzDfvPG079z8wutHdEv/D516KTp/ypVM0i4xAVKkj0ST//0qWXRNJams/5i5qLod3M0bVXpICLVpVLpFlEeBCAAAQhAIJlAXQmcsAkaWdBIjX7XRr9MrO3lt++wt92/J3oTKExby8fXLHnU9C8g9Ar5n/zDArv9e0/YwcOse6nla4ZtEIAABCBQ+wTqVuDoh/p2HD4Z/SftazYdMm167XnFrmN2RPMydRL0P63m3/kz++YdP7M7Vjw54p9t1kkTMBMCRpy90wAADcBJREFUEIAABCBQcwTqVuDUHEkMggAEIAABCECgZgggcGrmUmAIBCAAAQhAAAKVIoDAqRRJyoEABCAAAQhAoGYIIHBq5lJgCAQgAAEIQAAClSKAwKkUScqBAAQgAAEIQKBmCCBwauZSYAgEIAABCEAAApUigMCpFEnKgQAEIAABCECgZgggcGrmUmAIBCAAAQhAAAKVIoDAqRRJyoEABCAAAQhAoGYIIHBq5lJgCAQgAAEIQAAClSKAwKkUScqBAAQgAAEIQKBmCCBwauZSYAgEIAABCEAAApUigMCpFEnKgQAEIAABCECgZgggcGrmUmAIBCAAAQhAAAKVIoDAqRRJyoEABCAAAQhAoGYIIHBq5lJgCAQgAAEIQAAClSLQtGXLFmODAT6AD+AD+AA+gA80kg8wglMpqUg5EIAABCAAAQjUDAEETs1cCgyBAAQgAAEIQKBSBBA4lSJJORCAAAQgAAEI1AwBBE7NXAoMgQAEIAABCECgUgQQOJUiSTkQgAAEIAABCNQMAQROzVwKDIEABCAAAQhAoFIEEDiVIkk5EIAABCAAAQjUDAEETs1cCgyBAAQgAAEIQKBSBBA4lSJJORCAAAQgAAEI1AwBBE7NXAoMgQAEIAABCECgUgQQOJUiSTkQgAAEIAABCNQMAQROzVwKDIEABCAAAQhAoFIEEDiVIkk5EIAABCAAAQjUDAEETs1cCgyBAAQgAAEIQKBSBBA4lSJJORCAAAQgAIE6JnD8Z1tt/2UL7dmPXVvVTTbIlqwBgZOVIPkhAAEIQAACdU5AgiKrsOm59NumLSznwBduHvE5PFfsOKvIqbjAOXLkiO3Zs8c6Ojps69at0aZjxekcAQIQgAAEIACB2iKQdeRGwub4I09Gm4ucgY0dduSe1Xbw2ntSiRzZlCVUTOD09/fbjh07oq23t9cGBgbydulYcX5eaQkQgAAEIAABCNQGgWKjKcXO9151mx1e/JBpf+iG+/N7jeAovlj+sc5noVMRgaORGY3WSMQUC0qjtIzmFCPFeQhAAAIQgMDEEBhLYJQTf7TtkUjIaK9NIzkudsopJ0ybpfWZBY5GY8oVLC6IGMnJcunICwEIQAACEKgMgVBUpD0+9sPHIoGjvR+76ElbZpbWZRY4mnYqZeQmbqRPWcXji37u22zLrrzQpp+Ts1wuZ7lzptucVX1Fs+UTHO2wZVfOtCnK+9Fl1pM/UZmDgfUtNuWcFls3YNZz/yxrnrbIOrzovctsVi5ns5ZXulavINu+6/7ZNuOTS61jMFs55IYABCAAgfoikFaAhPlczGivtTc653FhunKOs1DMJHA0EiOBkzYob1lTVYObrXWaRM2F1vrAOlu3dp2tWd5iLQ+ULhg2L5xquZxEUZf1HU1rufJ1WdtlF9r0Be0jCqlfgTNg7fOnW27addZ+evnUiLbxAQIQgAAEGpNAOaIjnlYiRtvJXc9GokbrbvztqboVOHozKs3ojbuH8qqMksPwCMicH6V/ArfP08hPi42UJSVbECRstxaNAs0ro6QaH8EJGschBCAAAQhMIgJx0VLOZ70tpfU2GrVxsaMpKn3OssBYNmQJmUZw9Pp3+LZUuYYor8ooOfSttNm5nDVftMy6xphG6Vm/yGa/71xrlvg4+1ybeeUy64hGanps2UeHp7V0LpgqGjuPLBsWMlcvs5VfnGHNuVm2bNPQVFM0RTZcVssGs9HiKSaCXODcs9nab55l556t0aiZNmd5h52WbAPWsXyOzTyv2XK5Zjv3fXNsZdcQoZ7lsyyXm2WLHlhkF2qKbl67DfxojuVyM2zptmGKzigvvHqs7aKcNfvnnnXW+snpQ1N050y3S27enK87bn/XA25HzprPm2lLnzYzb0MwzeZ2Lds7ZIOXs+bppTY7ascUm3nlytPXbLDH1i0Ybv/Z59qsm9tska7NOEwZDlNhBwEIQAACBQiUI2jCtBIw2nykRq+K+3m9Hi6Ro4XGHlfuvoDJRU9lEjhaXJw1lFtG14OX2wwJg7Nn2Oyb11lPIHQGNrTY9FyzzZzfZpt39FjHquts5tkSRG3RWpuBvj5bc5XEzRxb09tnfQNmxfLkBU5uurWsH17rMzhgfb1rbI7EzVVrrK+3zwYGSxc4U6ddaJff2W5dezus7arplstNtZYNQxKna/ksa/YptL2bbelFzZab1mqbB82GhERM4A0LGl/XMyR4cpab2mqbdXEGhuyMRr2OtlvLNOVfapv39lnXqjkRr9kPDrXLhUk0JrWl1aZKBC7ebD29PbZ5+eW2aEM5AqfZZnxxmW3e22XtC9WmnHk9mxeqzdPzDNbMnzkkSBE4WW8n8kMAAhBIRaBc4eHpJWAkZCRidHziqV2R2NFxJaapUjVmOFPdCZzI7r3tttQXCk+7fHiEY2ikInfBUhse8IiS9j1wyYgRjhEPcSslz/AozGdW2silzLHRGY31jJr+iqUZHv2YuiCSHkOXYFiANM+XrGi3687O2YjzkdBotus2usCZaq1bhq/eUAut7dM5y125JhqJaZ/XbJcsXmSzNdKkEZWN11lzbrat7Bta9JzLXWJt+bf5+2zlZ3KWGxaAI+wPBY4PL0lMljyCE9QzuC6YzhtqY/NV6/IjR2YdtvR8RnDCq8oxBCAAgYkk4IIlzV6jNvr9Gxc6Ejsa0VGcyvM3qtKUnYVBJoEz4VNU8ZbuXWlzpuYsF4mPoQfnqDUxG1qi6ShNISmMeIgPC4rCeWIiJW/D6PiRZUe1BQ/2ZHGQHyHSFNKweAinvvxY9sengtyUKP7sFmvXIuypEjZdtuzfh0ZMOm6fMczH2z5ymi4qf3jkZKT9w1Nl0dtqmmJqG5piKlnghOucAlY9bQlvkg1PHzKC45eUPQQgAIEJJZBGfHgeTVFJ5EjIaC1OKGgkerKsw8kCIZPAmfBFxgktXXe1pquus/aCozHDoxmjBE6hERzPEzycR9Q/Or59vtbNzLE1+RGPcOTitMCZcXuw7qi3zS7J5WzqQo3qDIm06Qvbo2kvTX35pimwsQSObVtqM3JTrXX5Uptx/tLotXS9LdY8b6W1feb0a+l6bT2Xm21tXafLjcrXXN0oNsONHRwYnsrK2cw7u8yGBUrYhq57LozWBsXX4Jxefh2wGh7Nya8JUjWRMGMEZ5g4OwhAAAITTsDFSpp9XNR4GWPF+/lS9llAZBI4E/6a+MZWm3XlUmtbO/yK+J2X2/RczqbPb4+mO/oenG3N4Rqcta02S2twgumlkaMUZsXzBA/nEaSHR4w+2mrt29ZZ+9NDZWlh8Mz564L1NcGbVsOjH83nXGjXreqwnh3ttujTUyyXm2lLo7fth1/VPnvm0PnePuvZtsYWzV8ZrSEaU+AMT/FMOWfKsFAysw0t1nz+DJuRL1sCqy3iMf0LS619h0ROl7Uvb7GlG4caNoLNxkXW8kCH9ciGTYuiUZdI4JhGiXKWm3a5LdvUY10bhhhr8XNJAscGbN1VEoLTbc7yzda1Y7Mtu2qGNWtdFSM4IzyMDxCAAAQmikApYqNQGq230SjO0KLi70ZTVPrs63AK5S10Lkv7MwkcVTyhP/S3o81mf2jG0NtHepvqvJmjFhr3rG21S6ZJNAz9COAlC0YuRB7xEB8mVzjPWALH7PSC53OtVSJhsMtW+tqgc2Zay4/akqeo7llnbZ8ZetOr+bxZ1ro++B2f6A2jS/I/ZBi18c6hN53GFjhmQ7/vM9VaNw03anhtT254RMedZODpZTbH3zLLTbHpn2yxNbG3n6KRlx3LxuQ4IMHjb3l9ZqmtWTz0dldpAsfMgh9bHGp/+9AbbsNrgdxW9hCAAAQgMDEEComMcs5p1EbTUuXkKZQ2S+szCxz+VUMW/OSNCBxdY5dLsEYLrWECAQhAAAITTaCQyKjmuSwcMgscVe7/W6qUH/1TmnL/d1WWBpK39gj0PNBirQ+0W4deVd/UZte9T1NWM0//lk/tmYxFEIAABBqaQKkiRlNO+sXigY3PjBql0WLicIFxWKZGddJMV2WBXhGBIwM0kqPpKp+yCn8AUMcSNn6ef7KZ5ZLVf96+tdfZhT6NqGmyD82xZVtGvoRf/62kBRCAAATqh0AoRgodS8T0P/JEXqxozY1eCdfU1Kn+gfzr4v6auISNp9Fv5BQqO+lcFoIVEzhuhEZz9HaVXiHXSI02HSuurP875QWyhwAEIAABCEBgXAkkiYukOAkZiZfn9vdFe43YSMBor6BjjfBI2HgaLTZWHm1JZRaKy9LoigucLMaQFwIQgAAEIACBiSdQSGSE5/xH/CRiJGY0KuMiR1YrrYSNCx2JGokdjfworfKX87s4WUggcLLQIy8EIAABCECgAQjsv2xhSaMrGsGRQJFokZhx8aJjH6HRWhsJHO21KY/O65eN9dl/4VhxhTbZlCUgcLLQIy8EIAABCECgAQgc/9nWgmKjkBAZr3OyKUtA4GShR14IQAACEIBAgxCQoCh1JGe8RI3KlQ1ZxY0uCQKnQRyTZkAAAhCAAAQgcJoAAuc0C44gAAEIQAACEGgQAgicBrmQNAMCEIAABCAAgdMEEDinWXAEAQhAAAIQgECDEEDgNMiFpBkQgAAEIAABCJwmgMA5zYIjCEAAAhCAAAQahAACp0EuJM2AAAQgAAEIQOA0AQTOaRYcQQACEIAABCDQIAQQOA1yIWkGBCAAAQhAAAKnCfw/TG4ppcDXHGgAAAAASUVORK5CYII=;" vertex="1" parent="K1axlJIXEC6P-MiM49ua-127">
          <mxGeometry x="209.5" y="149.90999999999985" width="270" height="170.17" as="geometry" />
        </mxCell>
        <mxCell id="K1axlJIXEC6P-MiM49ua-121" value="Name" style="rounded=0;whiteSpace=wrap;html=1;align=left;verticalAlign=top;" vertex="1" parent="K1axlJIXEC6P-MiM49ua-127">
          <mxGeometry x="209.5" y="60" width="270" height="20" as="geometry" />
        </mxCell>
        <mxCell id="K1axlJIXEC6P-MiM49ua-122" value="Adresse" style="rounded=0;whiteSpace=wrap;html=1;align=left;verticalAlign=top;" vertex="1" parent="K1axlJIXEC6P-MiM49ua-127">
          <mxGeometry x="209.5" y="90" width="270" height="20" as="geometry" />
        </mxCell>
        <mxCell id="K1axlJIXEC6P-MiM49ua-123" value="Mail" style="rounded=0;whiteSpace=wrap;html=1;align=left;verticalAlign=top;" vertex="1" parent="K1axlJIXEC6P-MiM49ua-127">
          <mxGeometry x="209.5" y="120" width="270" height="20" as="geometry" />
        </mxCell>
        <mxCell id="K1axlJIXEC6P-MiM49ua-124" value="" style="verticalLabelPosition=bottom;shadow=0;dashed=0;align=center;html=1;verticalAlign=top;strokeWidth=1;shape=mxgraph.mockup.containers.userMale;strokeColor=#666666;strokeColor2=#008cff;" vertex="1" parent="K1axlJIXEC6P-MiM49ua-127">
          <mxGeometry x="495.5" y="59" width="40.26" height="40.26" as="geometry" />
        </mxCell>
        <mxCell id="K1axlJIXEC6P-MiM49ua-125" value="&lt;font style=&quot;font-size: 12px&quot;&gt;Bezahlen.....&lt;/font&gt;" style="rounded=1;html=1;shadow=0;dashed=0;whiteSpace=wrap;fontSize=10;fillColor=#cce5ff;align=center;strokeColor=#36393d;" vertex="1" parent="K1axlJIXEC6P-MiM49ua-127">
          <mxGeometry x="209.5" y="330" width="270" height="20" as="geometry" />
        </mxCell>
        <mxCell id="K1axlJIXEC6P-MiM49ua-126" value="" style="endArrow=none;html=1;" edge="1" parent="K1axlJIXEC6P-MiM49ua-127">
          <mxGeometry width="50" height="50" relative="1" as="geometry">
            <mxPoint x="15" y="350" as="sourcePoint" />
            <mxPoint x="175" y="350" as="targetPoint" />
          </mxGeometry>
        </mxCell>
      </root>
    </mxGraphModel>
  </diagram>
</mxfile>
